<svg xmlns="http://www.w3.org/2000/svg" viewBox="0 0 616.76 524.56"><title>leaves-left_1</title><g id="Layer_2" data-name="Layer 2"><g id="Layer_1-2" data-name="Layer 1"><path d="M315.31,412.38c.36,7.59.69,15,2.25,22.18l.91-.05c0-1.26,0-2.52,0-3.78-.17-4.9.16-9.89-.72-14.65-.84-4.5.58-7.64,3.89-10a36.91,36.91,0,0,1,8.12-3.81c2.5-1,5.14-1.54,7.73-2.26a13.7,13.7,0,0,1,1.89-.2c-.82,1.82-1.43,3.31-2.14,4.76-1.95,3.93-4.22,7.73-5.82,11.79a65,65,0,0,0-2.55,10.21,10.49,10.49,0,0,0,.22,2.85,4.48,4.48,0,0,0,3.3-3.37c1.2-4.82,2.17-9.76,4-14.35,3.37-8.42,9.28-12,17.47-10.44,5,.93,9.33,3.36,13.57,6,1.23.77,2.61,1.31,4.23,2.1-.12-.3,0-.16,0-.08-3.74,8.88-4.94,18.44-7.33,27.68A50.06,50.06,0,0,1,355,455.67a95.41,95.41,0,0,0-8.26,12.62c-2.67,4.8-6.16,8.27-11.63,9.44-3.52.75-7,1.45-10.58,2.11a5,5,0,0,1-4.85-1.88c-3.6-4-4-8.66-3-13.64.57-2.87-.34-4.29-3.28-4.26a68.07,68.07,0,0,0-8.18.89c-4.14.54-6.22-.58-8-4.37a15.39,15.39,0,0,1-.75-12.23c2.7-7.22,5.06-14.62,9.56-21,2.1-3,4.12-6,6.31-9C312.9,413.59,314,413.23,315.31,412.38Z"/><path d="M265.95,181c-3.62,3.16-6.52,7.14-9.75,10.75,1.32-3.17,3.15-6.08,4.75-9.11a4.31,4.31,0,0,0,.15-3.11c-.13-.38-1.74-.5-2.6-.33-8.28,1.71-16.5,3.7-24.82,5.2-5.3,1-9.55,2.94-13,7.31-6.65,8.37-10.17,18-11.71,28.28-2.09,14-3.57,28.08-5.68,42.07-.3,2-2.63,3.65-4,5.47-1.4-1.68-3.87-3.27-4-5.05-.66-7.88-2.13-16.13-.56-23.67,2.46-11.82,7.09-23.19,10.91-34.71,1.31-3.95,3.07-7.74,4.41-11.68a3.68,3.68,0,0,0-.61-3c-.3-.39-2.06-.26-2.58.24-7.52,7.19-17.64,5.13-26.53,7.12-2.6.58-4.45,1.09-6,2.94A47,47,0,0,0,163,227.08c-1.48,19.42-2.13,38.9-3.12,58.35q-.38,7.42-.76,14.84l-1.34,1.24c-2.11-1.32-4.89-2.17-6.21-4a29.39,29.39,0,0,1-5.34-18.8c1.11-25.81,8.9-50.06,16.7-74.32.2-.61.71-1.11.93-1.72.48-1.34.86-2.71,1.28-4.07-1.7,0-4.07-.78-5,.06-5.06,4.57-11.35,4.16-17.36,5-7.58,1-15.28,1.41-22.75,3-9,1.86-14.33,7.84-16.27,16.93-2.48,11.66-.71,22.92,3.23,33.88,4.12,11.43,9.36,22.5,12.81,34.12,2.48,8.32,3,17.25,4,26,.18,1.7-1.72,3.63-2.66,5.45-1.79-1-4.47-1.63-5.21-3.16a57.47,57.47,0,0,1-5-13.89c-2.06-11-2.75-22.2-5.3-33-4.28-18.13-9.55-36-14.48-54a11.68,11.68,0,0,0-1.9-2.94c-1.87,13.79-12.71,19.83-21.5,27.44-3,2.62-6.18,5.09-9.06,7.86-11.33,10.91-12.68,19.17-4,32.22,6.08,9.11,13.78,17.13,20.06,26.12,5.89,8.43,11,17.39,16.09,26.35,1,1.75.13,4.55.13,6.86-2.59-.44-6.05,0-7.59-1.48-5-4.84-10.11-9.88-13.51-15.81C62.83,313,56.78,300,50.33,287.22c-1.29-2.56-2.43-5.16-5.15-4.81-2.13,4.72-3.75,9-5.93,13-4,7.3-8.71,14.23-12.43,21.66-9.21,18.4-4.57,33.28,13.27,43.6C46,364.09,52.22,367,58,370.61a72.11,72.11,0,0,1,12.19,9.44c4.2,4.12,3.32,7.66-2.31,9.09-4.76,1.21-9.91,2.1-14.73,1.62C34.81,388.91,20,378.56,4.64,369.61a5.64,5.64,0,0,0-3.34-1.05c-.6.11-1.44,1.89-1.29,2.77,2.2,13.27,3.27,26.9,9.76,39,5.09,9.53,14.54,14,25.2,12,4.71-.87,9.24-2.7,13.83-4.19,6-1.92,11,1.16,17.47,2.25-5.41,7.55-13.06,6.55-19.5,8.13s-13.19,2.33-21.28,3.7a15,15,0,0,1,3,1.29c4.39,3.28,9.22,6.17,13,10.08,11.67,12.12,25.24,14.17,40.8,9.47,9.51-2.87,18.56-6.43,26.66-13.63-1.87,4.52-4.19,7.92-4.62,11.53-1.7,14.39,3.2,26.14,15.24,34.68,9.46,6.71,20,9.58,31.49,9.57,1,0,1.92-.81,2.88-1.24a12.6,12.6,0,0,0-2.53-2.34c-3-1.55-6.81-2.24-9.19-4.45-8.26-7.66-8.43-27.35-.49-36.26,1.89,5.2,4,9.89,5.27,14.8,2.05,8.12,8.19,13.94,16.66,13.77,13-.25,24.92-4,35.22-12.19,3.13-2.48,6.16-5.11,9.09-7.83,2-1.85,3.71-4,6-6.5-26.28-5.74-38.67-13.27-41.41-25.68,5.25,2.46,10,4.3,14.4,6.84,10.8,6.27,21.3,13,32.13,19.25,7.06,4,14.76,5.19,21.53-.27,5.51-4.45,10.25-9.86,15.15-15,.93-1,1-2.76,1.59-4.49-19.46-1.8-34.9-12-51.18-20.44a215.21,215.21,0,0,1,29.15,5.58c11.83,3.28,23.32,7.81,35.16,11.05,15.07,4.12,27.94-1,35.95-14.46,3.62-6.07,5.81-13,8.45-19.64a69.93,69.93,0,0,0,2.45-8.64c.52-2.06.88-4.16,1.21-5.75-3.62,1.39-6.37,3.07-9.29,3.45-10.4,1.33-20.85,2.52-31.31,3.21-18.62,1.23-37.29,2.48-55.85-.58-3.88-.64-7.59-2.35-11.38-3.56l-.25-2.47c3.16-1.76,6.16-4.53,9.53-5.08,9-1.45,18.19-2.75,27.28-2.65,15.47.17,30.92,1.55,46.38,2.26,10.77.49,21-1,29-9.32,9.87-10.25,14.61-22.86,16.92-36.57.22-1.33-.32-2.78-.51-4.18-1.32.42-2.9.5-3.92,1.31A86.61,86.61,0,0,1,304,342.67c-13.63,3.8-27.28,7.67-41.13,10.45-8,1.62-16.5,1.29-24.78,1.63-6.55.27-3.68-5.48-4.82-8.49-.3-.79,2.11-3.66,3.49-3.83,6.88-.86,14-2.34,20.73-1.41,24.74,3.42,47.56-3.29,70.16-11.77,7.51-2.82,12.63-8.28,14.54-16,2.46-10,4.28-20.08,6.34-30.14,0-.2-.36-.49-.75-1l-2.24.2,1.61-31.05c-2.66,1.32-4.53,2.8-6.61,3.18-13,2.39-25.61,5.83-37.47,11.87-5.77,2.94-11.83,5.34-17.88,7.7a29.44,29.44,0,0,1-8.71,2c-1.44.09-3.82-1.13-4.25-2.31s.7-3.32,1.68-4.63c.7-.93,2.26-1.3,3.49-1.74,11.45-4.11,23-7.89,35.19-9.07,9.35-.9,17.09-5.35,23.47-12.12,7-7.46,7.2-14.19,1-22.27-2.92-3.83-6.67-7.55-8-11.94-2.22-7.33-7.57-11.67-12.6-16.45-4.87-4.64-10-8.92-17.88-8a21.81,21.81,0,0,0,.92-2.7,22.32,22.32,0,0,0,.21-2.58c-1.77-.58-3.51-.7-4.62-1.59A22.52,22.52,0,0,0,265.95,181ZM158.31,414.11c-4,4.82-8.73,4.68-12.55-.9Zm-27.87.91a13.89,13.89,0,0,1-2.58,5.31c-4.77,5.65-9.76,11.12-14.67,16.66l-.76-.85c2.21-5.34,4.16-10.81,6.74-16a38.1,38.1,0,0,1,6.37-8.65c.81-.87,2.94-.5,4.47-.69C130.19,412.24,130.77,413.75,130.43,415Zm41.95-16c-3.18,3.38-6.11,3.37-9.57,0C166.35,395.43,168.74,395.44,172.38,399.07Zm-70.6-4.66c-4.11-.35-7-1.61-7.62-5.41-.14-.89,2-3.15,2.86-3C101.29,386.72,101.87,390.07,101.78,394.41Zm91-20.35c-3.59,1.1-6.57,2.49-9.67,2.85-3.52.41-5.18-2.43-5-5.39.08-1.09,2.87-2.63,4.57-2.84C186.42,368.22,190,368.84,192.8,374.06Zm-73.65-3c-.29,2.53-2,4.34-4.45,2.18a41.85,41.85,0,0,1-8-9.66c-1.4-2.32.13-4.13,3.08-3.74C114.26,360.42,119.33,366.35,119.16,371.06ZM208,352.36c-3.32-2-6.59-3.24-5-8C206.24,346,210,346.71,208,352.36Zm-68.08-6.57c4.13,4.23,5.89,9.41,2.39,17.36-4-4.57-7.45-8.1-10.34-12-1.72-2.35-1.47-5.63,1.52-6.7A7.39,7.39,0,0,1,139.94,345.78Zm28.47-7.66c-6.2-.12-13.74-6.62-13.71-12.34a7.42,7.42,0,0,1,3.65-5.53c2-.89,5.77-2.64,6.4,2.24C173.36,326.08,168.68,332.55,168.42,338.12Zm65.48-17.75-4.32-5.29.82-1.85c1.61.41,3.65.39,4.65,1.4C235.64,315.22,234.55,317.46,233.9,320.37Zm87.48-20.09c-7.09,2.33-14.4,4-21.69,5.66-13.26,3-26.53,6-39.89,8.58-2.91.56-6.19-.79-10.13-1.39,3.36-5.52,5-10.75,11.52-10.55,20.77.66,40.46-5.34,60.4-9.79,6.39-1.43,12.64-3.48,18.82-5.21C335.81,293.6,329,297.77,321.38,300.28ZM196.19,284.1c1.15,3.94,1.55,8.1,2.53,13.82-1.1,2-2.36,7-4.38,7.37-4.87.78-5.5-4.58-6.15-8a43.71,43.71,0,0,1-.14-13.24c.18-1.51,2.65-3.61,4.26-3.79C193.5,280.15,195.72,282.48,196.19,284.1Zm70-40.78c-2.77-4.22-.63-6.34,2.57-8.54C270.91,238.52,269.61,240.93,266.15,243.32Zm17.63-38.11L274,223.87c-.62-8.24,3.88-13.9,8.47-19.51Zm-36.19,32.27c-1.18,6.27-4.84,12.29-8.31,17.83-1.74,2.78-4.21,0-4.37-2.1-.47-6.08-2.12-12.86-.13-18.18,5-13.28,11.73-25.89,18.08-39.46C251.11,210.28,250.11,224,247.58,237.48Z"/><path d="M484.52,524.56c.55-3.93,2.15-7.39,1.14-9.74-2.76-6.46-6.88-12.31-9.95-18.66-3.88-8-4.85-16.67-4.58-26.42,3.93,6.26,7.09,11.74,10.69,16.93,5.63,8.12,12,15.47,20.9,20.39,15.74,8.71,29.72,5.91,40.54-8.35,2-2.58,4.08-5,6.46-8-1.48-.59-3.07-1.36-4.74-1.85-7.51-2.22-15.32-3.7-22.5-6.7a157.19,157.19,0,0,1-24.13-12.71c-4.82-3.09-7.27-8.57-8-15,6.67,1.69,13.09,3.53,18.89,6.56,11.35,5.92,22.13,13,33.57,18.67,8.58,4.29,18,4.72,26.29-.92,16.14-11,24.88-26.52,25.7-46.12.11-2.73-1.63-5.55-2.77-9.1.27-.29,1.45-1.46,2.54-2.71,9.89-11.47,18.26-23.79,21.54-38.9,1.36-6.27.65-12.18-3.89-17.43-.84.3-1.24.32-1.45.53-2,2-3.95,4-5.88,6.11-15.27,16.34-33.05,27.77-56.08,29.51-10.79.81-21.57,2.63-32.21-.65-1.77-.55-4.43-2.52-4.37-3.72.12-2.51,1.11-6.09,3-7.18a35,35,0,0,1,12.56-4.36,219,219,0,0,1,22.39-1.73,49.22,49.22,0,0,0,27.51-9.36c7-5.09,13.52-10.8,20.22-16.27,3.87-3.16,7.78-6.28,11.48-9.62,1.47-1.33,3.06-3,3.55-4.87,2.57-9.47-1.35-18.08-4.45-26.63-1.32-3.65-3.26-1.48-5,.48-6.59,7.24-13.16,14.51-20.12,21.37-4.25,4.19-9.61,7.28-13.76,11.55a41.66,41.66,0,0,1-30.84,13.16c11.25-9.83,22.81-19.33,34.43-28.75s23.55-19,35.18-28.32c-4.75-22.82-16.3-41.15-33.8-57.3l-25.2,21.32c2.66-5.4,6-10.63,9.17-16,.73-1.25.6-3,.86-4.51-1.49-.12-3.16-.75-4.44-.28-5,1.8-9.87,4-14.84,6-23.21,9-34.35,26.1-34.68,50.79-.16,11.64-.33,23.35-1.64,34.89-.65,5.71-3.23,11.52-6.19,16.54-2.74,4.65-6.59,3.92-8.2-1.25-3.11-10-5.61-20.19-4.28-30.75.57-4.51,2.78-8.81,3.42-13.32,2.35-16.51,10.56-30,21.48-42,2.86-3.15,6.7-5.4,10.09-8.07l-.72-1.65c-1.42.38-2.88.65-4.25,1.16-4.13,1.56-8.16,3.45-12.36,4.78-7.61,2.39-15.56,3.86-22.92,6.83-10.62,4.29-17.33,12.29-18.34,24.12A161.65,161.65,0,0,0,461,314c.2,9.81,1,19.61.93,29.41a32.08,32.08,0,0,1-3,11.93c-.72,1.67-3.55,2.44-5.42,3.62-.81-1.85-2.36-3.73-2.3-5.55a97.65,97.65,0,0,0-2.08-23.19c-1.86-9.11-.55-18.21,2.08-27.14,1.55-5.26,2.72-10.64,3.84-16,.33-1.58-.06-3.32-.12-5-11,5.56-21.54,10.58-31.77,16.11-4.87,2.63-8.45,7.11-8.42,12.82s.44,11.53,2.39,16.67c5.18,13.67,11.35,27,17,40.47,2.77,6.64,4.51,13.49,2.5,21.41-13.83-16.57-19.15-36.6-27.4-56.47-2.35,2.15-4.44,3.46-5.73,5.33-8.87,12.88-12.8,27.74-16.52,42.62-.32,1.29,1.13,3.54,2.38,4.64,7.84,6.93,16.35,13.18,23.64,20.64,5.29,5.4,9,12.31,13.47,18.55-18.38,1-29.73-9.23-40-22.26-3,7.83-6,14.54-8.11,21.51-.82,2.7-.69,6.73.82,8.88,3.77,5.37,7.93,10.89,13.11,14.78,12.65,9.5,25.69,8.21,36.53-2.51,1-1,1.95-2,2.92-3.05a9.25,9.25,0,0,1-.93,4c-5.52,12.78-5.1,25.4,1.66,37.51a87.54,87.54,0,0,0,36.12,35.65C473.37,521.89,479,522.82,484.52,524.56Zm23.1-218.88,1.45.06-1.28,28.61-1.38-.06Zm8.19,125.94c9.22.67,18.45,1.22,27.65,2,20.4,1.8,26.28,1,45.06-6.79C579,438.17,528.08,441.72,515.81,431.62Z"/><path d="M16.38,150.13c1.84,4.14,4.29,8.41,7.57,11.42,6.28,5.76,11.79,5.15,18-.67,1.79-1.67,3.71-3.19,5.46-4.68.58.38.81.44.85.56,2,6.35,8,8.68,12.08,12.84s5.5,11,11,14.28A231,231,0,0,0,95.55,196.8c4.05,1.81,9,1.64,13.53,2.37C92.64,182.23,90.7,179.44,92,172.38c6.89,11,11.8,23.65,26.08,26.69,13.49,2.87,25-2.27,37.26-9.88-20.24-6.66-36.72-16.87-49.14-33.16,3.72.86,7.47,1.94,10.32,4.18,4.69,3.68,8.8,8.1,13.14,12.21,6.91,6.56,15.05,10,24.59,8.45a73.61,73.61,0,0,0,33.21-14.19c2.7-2.06,4.49-5.3,7-8.4-10.27-3.76-19.36-1.89-28.37-.5-10.29,1.59-20.37,1-29.93-3-4.63-1.95-8.7-5.24-13-7.92L124,145c1.9,0,3.91-.33,5.67.18,4.31,1.23,8.47,2.95,12.75,4.31,14.72,4.7,29.43,7.51,44.11-.3,10.26-5.46,20-21,19.28-31-2,3.43-9.73,6-18,5.72,21.63-9,28.84-26.56,31.29-48.24-1.9,1-3.18,1.61-4.4,2.32C196,88.87,177.2,99.74,156.38,106.28a53.13,53.13,0,0,1-15.14,2c-1.65,0-4.46-2.46-4.71-4.1-.29-1.91,1.17-4.74,2.78-6.09A19.71,19.71,0,0,1,147,94.59c5.31-1.38,10.77-2.15,16.09-3.48,8.84-2.22,18-3.77,26.32-7.28,9.28-3.91,17.77-9.68,26.54-14.6l-3.78-31c-4.41,3.47-8.35,5.78-11.28,9C190.24,59,176.28,65.34,162.53,72.06c-1.38.67-4.11.84-4.83,0a5.26,5.26,0,0,1-.42-5,26.91,26.91,0,0,1,6.29-6.81c6.93-5.27,15.06-8.49,22.1-14C194,39.81,200.52,33.36,201.23,22c-10.92-5.69-25-7.91-29.21-22L149.55,2.49c-6.94,13.42-8.48,29.62-9.7,46-5.21-1.67-6.59-2.94-6-7.94a208.46,208.46,0,0,1,4.59-23.89C139.84,11.21,142.23,6,144.4.09c-6.8,1.26-12.87,2.18-18.85,3.54-5.81,1.32-9.4,4.94-11.11,10.89a64.06,64.06,0,0,0,0,36c2.42,8.39-.62,15.91-1.73,23.84-5-21-3.89-42.56-5.32-63.63-7.52,3.08-14.64,5.81-21.57,9a9,9,0,0,0-4.37,4.58A46.79,46.79,0,0,0,80,51.81c2,7.73,4.85,15.23,7.06,22.91,1.59,5.52,2.72,11.17,4.05,16.76-8.05-9.39-11-20.54-12.58-32.11s-2.7-23-4-34.43c-20.23,5.53-27,19-23.71,38.69l-1.33-.12L47.54,43.77c-8.11,5.16-15.65,11.42-20.35,19.87-5.14,9.23-6.69,19.27.63,28.63q4.89,6.26,9.94,12.4c2.09,2.55,4.3,5,6.45,7.48-12.12-5.41-23.7-11.2-32.41-23.26-1.23,1.71-1.26,3.73-1.5,5.72-.69,5.61-1.83,11.19-2.15,16.82-.67,11.63,9.38,21.41,21,21.39,4.42,0,8.84,1.23,13.26,1.9l.36,2.17c-1.85,1.42-3.51,3.61-5.58,4.1a118,118,0,0,1-16.07,2.51C16.1,144,14.37,145.62,16.38,150.13Zm110.54-23.57c.88-3,1.65-6,6.22-5.43,13.53,1.6,27.11,2.81,41.76,4.29-14.23,8.47-28.74,9.25-43.63,7.1C128.32,132.09,125.85,130.23,126.92,126.56ZM52.85,72.25l13.68,28.42C55.42,93.49,56,81.07,52.85,72.25Z"/></g></g></svg>