<svg xmlns="http://www.w3.org/2000/svg" viewBox="0 0 517.34 526.12"><title>leaves-right_1</title><g id="Layer_2" data-name="Layer 2"><g id="Layer_1-2" data-name="Layer 1"><path d="M470.77,180.82c1.85-.66,5.76,2.86,8,5.19,6.57,6.76,12.77,13.87,19.36,21.11,7.13-10.16,14.54-20.39,18.05-32.78,2.76-9.73.61-15.63-8.16-20.63a51,51,0,0,0-13.84-5.45c-6.47-1.46-13.18-1.84-19.77-2.75-5.58-.77-7.36-3.6-4.29-8.13a29.66,29.66,0,0,1,9.11-8.69,23.33,23.33,0,0,1,18.42-2.1c4.69,1.3,5.39-1,3.89-4.19-2.36-5-4.48-10.93-8.51-14.31C487.22,103.16,480,99.79,473,96.43c-8.18-3.94-15.89-2.44-22.6,3.79-5.25,4.88-10.4,9.86-15.78,14.58-6,5.26-12.79,8.84-21.76,9.19,0-3.72-.64-7.26.07-10.52a235.28,235.28,0,0,1,6.29-24.09c4.16-12.64,6.46-25.36,1.6-38.14-3.24-8.51-7.6-16.59-11.47-24.86-.62-1.33-1.32-2.63-1.93-4s-1.18-2.72-1.76-4.09c-1.13,1.05-2.59,1.91-3.32,3.19-3.09,5.47-6,11.06-9.49,17.72-.43-3.3-.65-5.37-1-7.43C390.27,22,386.72,13.25,377.3,8.65c-10.43-5.09-21.51-5.31-32.65-2.31a11.54,11.54,0,0,0-3.93,2.12c-6.13,4.79-6.33,9.51-.35,14.31,3.89,3.12,8.07,5.89,12.24,8.63,9.43,6.21,11.79,16.11,13.67,26.18.63,3.39-1.48,5.66-4.84,6.54-3.13.81-5.49.13-6.79-3.2-1.57-4-2.85-8.3-5.17-11.88C346,43.69,342.31,38.26,337.69,34c-4.82-4.49-10.74-7.84-16.35-11.44-9.3-6-18-4.29-24.32,4.82a33.36,33.36,0,0,0-4.68,9.31c-2.75,9.18-5.06,18.49-7.42,27.29,4.58-.08,9.87-1.2,14.59,0,10.08,2.5,19.42,7,26.79,14.74,6.16,6.45,5.25,4.11,1.37,11.42-1.6,3-3.67,3.66-6.49,2.55-6.94-2.74-14-5.33-20.69-8.55-5.24-2.5-10-6.06-15.1-8.79-13.06-6.93-25.65-6-37.48,3a69.32,69.32,0,0,0-24.48,34.5c-.95,2.9-2.38,5.64-3.54,8.48-1,2.36-.55,4.08,2.42,3.85,2.65-.2,5.27-.74,7.91-1.12,26.41-3.81,52.84-7.48,79.57-3.56,2.27.33,4.34,2.09,6.5,3.18-2,2.48-3.94,5.09-6.18,7.37-.63.64-2.23.45-3.39.45-11.82,0-23.65-.16-35.47-.19-9.82,0-19.69-.59-29.45.2-15.89,1.3-36.05,12.76-39.13,34.24-1,7.19-3.17,14.23-4.79,21.31a13.24,13.24,0,0,0,1.57-.39c10.59-3.5,21.09-7.29,31.76-10.49,24.65-7.37,49.8-12.18,75.57-13.13,2.13-.08,4.3.93,6.45,1.44l-.06,2.17c-2.07,1-4,2.34-6.21,2.85-7.94,1.88-15.91,3.66-23.93,5.14-28,5.17-56.22,9-81.54,23.72-4.75,2.77-7.5,5.78-8.64,10.42a50.47,50.47,0,0,0-1,11.88c0,7,.22,14,.52,21,.26,5.84.77,11.66,1.2,18.08,1.35-.81,2.2-1.07,2.66-1.64,8.14-10,18.61-17.19,29.28-24a174.49,174.49,0,0,1,56.9-23.63c6.61-1.43,13.35-1.57,20.1,1.62-2.42,3.4-4.26,6.64-6.75,9.26a12.61,12.61,0,0,1-6.42,3.69c-9,1.57-18.16,2.36-27.16,4-14.63,2.63-29.11,6.22-42.1,13.63a79.46,79.46,0,0,0-17,13.56c-4.61,4.71-5.56,11.15-4.52,18.16,23-20,30.62-23.95,39-19-3.89,3.29-7.22,6.76-11.17,9.29-6.58,4.21-13.68,7.61-20.34,11.72-14.64,9-14.91,34.94-.52,44.48a6.58,6.58,0,0,0,1-1.06c14.72-25.34,36.54-42.42,63-53.94A23.78,23.78,0,0,1,279.68,264c3.43.14,5.2,2.62,3,5.93a14.41,14.41,0,0,1-5.21,4.83c-13.73,6.72-27.8,12.77-41.31,19.88-9.79,5.16-18.25,12.28-23.42,22.54-.42.83-1.64,1.29-2,2.13-.88,2.23-2.59,4.93-2,6.81a203,203,0,0,0,7.72,19.47c.59,1.37,2.05,3.09,3.27,3.22,1,.11,2.33-1.81,3.33-3a18.66,18.66,0,0,0,1.35-2.66c8-13.6,19-23.92,33.82-29.78a30.84,30.84,0,0,1,5.23-1.1l1.7,2.65c-3.32,2.2-6.75,4.24-9.93,6.62-6.68,5-13.52,9.78-19.77,15.26-10.86,9.52-10.13,16.2.48,25.71a27.39,27.39,0,0,0,11.81,6.18,157.66,157.66,0,0,0,26.56,3.84c12.78.59,16.44-1.95,19.4-14.53,2.46-10.47,3.19-21.36,4.54-32.08,1.08-8.55,3.46-16.52,10-23.16a59.38,59.38,0,0,1,.17,15.5c-1.38,9.38-3.37,18.68-5.14,28-2.28,12-4.19,24.22-14.93,32.39.55.54.9,1.19,1.24,1.18,11.28-.28,22.6-.19,33.83-1.12,7.12-.59,12-5.51,13.45-12.4,1.67-8.1,3.37-16.49,3-24.65-1-19.94-3.15-39.82-5-59.71-.75-8.1-.94-8.08,8-10.81.73,7.86,2,15.62,2.09,23.4.32,18.8.61,37.62-.07,56.4-.29,8-3,16-4.73,24.34,10.86-.83,23.09-.06,34-6.6,2.19-1.32,4.95-3.46,5.38-5.63,2.57-12.82,11.56-15.28,22.58-15a2.82,2.82,0,0,0,.5-.06c8.61-1.3,14.88-5.5,17.58-14.17a29.55,29.55,0,0,1,1.71-3.68,19.25,19.25,0,0,1-.62,7c-.92,3.77.6,5.18,4.13,4,17-5.51,30.23-15.12,36.26-32.88a51.57,51.57,0,0,0-1.29-38c-5.48-12.87-11-25.7-16.91-38.4-5.33-11.56-11.11-22.92-16.69-34.36,13.83,13.77,21.25,31.32,27.85,49.14,6.66,18,12.32,36.33,18.3,54.14,1.1-1.21,3-3.2,4.8-5.27,11.84-13.54,21.72-28.27,27-45.66,6-19.87,1.47-32.36-15.91-43.63-4.89-3.17-10-6-15-9-3.65-2.27-7.18-4.73-12-7.94C465.07,186,467.43,182,470.77,180.82Zm-165.8,75c-.94,1.48-2.51,2.56-3.75,3.76-4.39-3.18-4.75-6.37-.77-8.5,1.7-.91,4.24-.27,6.4-.34C306.24,252.49,305.92,254.37,305,255.86ZM367.29,81.66c2.49-.39,5.26,4,5.23,8.07-.13.1-.27.29-.4.28-3.9-.15-7.18-3-6.8-6.15A3.15,3.15,0,0,1,367.29,81.66Zm7.1,34c-7.4,4.94-20.36,2.77-24.54-4.05C358.53,110.23,366.89,109.35,374.39,115.65Zm-50.76,112-2.22,1.75c-2.22,1.75-4.46,3.48-6.82,5a35.67,35.67,0,0,1-2.87-3.56c.47-4.75,4-7.71,7.58-6.89,1.23.28,2.25,1.49,3.29,2.61.35.38.7.74,1.05,1.06h0Zm-8.87-21.76c-1-1-1.42-2.52-1.89-4-.16-.5-.32-1-.51-1.46h0c1-.36,2.09-.92,3.13-1.36a6.36,6.36,0,0,1,3.06-.66c8,.84,13,5.56,13.34,12.17C325.69,210.66,319.55,210.46,314.76,205.9Zm13.68,54.65c-1.09-.2-2-1.59-2.94-2.46,1.15-.77,2.27-2.09,3.46-2.16,1-.06,2.11,1.31,4.27,2.82C330.81,259.73,329.51,260.74,328.44,260.55Zm-3.23-78.26c-2-.78-3.44-2.7-.78-4.46,4-2.65,13.91,2.34,15.1,9.2C334.09,185.26,329.56,184,325.21,182.28Zm10.68-8.49c-3-2-7.36-3-6.43-7.75,2.55-.5,4.82-.85,7-1.4,6.81-1.68,13.51-2.34,19.22,2.82,1.5,1.36,2.35,3.43,3.77,5.58C351.11,178.29,343.51,178.78,335.89,173.79Zm8.28,79.37c-3.88-.34-4.49-4.35-4.25-7.76s-.19-8.09,4.71-7.49c1.8.22,3.05,4.86,4.83,8C347.37,248.88,345.57,253.28,344.17,253.16Zm7.82-28a4.77,4.77,0,0,1,2.84-2.84c.53-.19,2.42,1.43,2.55,2.38a98.59,98.59,0,0,1,.41,10C352.63,232.28,351.31,229.09,352,225.2Zm13.09-77.8a43.17,43.17,0,0,1-5.94.26l-.53,1c-5.16-2.39-10.56-4.4-15.37-7.35-1.81-1.11-2.7-4.37-3-6.78-.1-.68,3.14-2.38,5-2.69,8.84-1.5,16.18,2.45,22.81,7.5C371.32,141.89,369.41,146.63,365.08,147.4Zm7,54.81c1.18,6.3,6.63,11.8,2.43,19.22C366.61,216,365.42,206,372,202.21Zm-.41,41.89c10.22,12.7,17.51,36.13,16.57,52.37C379.1,283.66,370.49,256.84,371.63,244.1Zm27.75-40.58a56.82,56.82,0,0,1-1.79,6.22c-.58,1.43-1.86,3.81-2.53,3.71a7.71,7.71,0,0,1-4.9-2.64c-5.57-8.11-4.84-17.08-2.42-25.93,1-3.77,4.06-2.18,5.09,0,2.83,5.91,5.05,12.11,7.52,18.2Zm1-40.11,2-1.07,13.32,20.32c-3.81,2.23-6.31.58-8.37-1.49C402.5,176.25,398.7,170.8,400.39,163.41ZM427,300l-20.75-64,2.33-.7C424.2,254.47,428.15,277.11,427,300Zm1.48-130.57c-2.63-1.68-4.83-4-7.18-6.16l4.83-4.63,6.46,8.19C431.19,167.75,429.07,169.79,428.49,169.41Z"/><path d="M81.57,11.77A24,24,0,0,0,60.86,9.14c-14.32,4.8-22.19,16.57-30.12,29.12,22.55-1.76,43.38,2.1,61.48,16.51-4,.28-8.16.35-11.77-1C75,51.77,70,48.68,64.7,46.23c-11.45-5.31-22.71-5.34-33,2.48-10,7.58-18.84,16.54-25.1,27.49-3,5.17-4.41,11.2-6.55,16.85l1.6,1.8c4.38-1.08,9.08-1.5,13.07-3.4,6-2.84,11.55-6.6,17.15-10.19,9.9-6.35,20.59-10.17,32.42-10.19,5.32,0,10.54.69,15.55,4.88-2.73,1-4.78,2.2-6.95,2.48a99,99,0,0,1-14.4,1,59.24,59.24,0,0,0-26.22,5.24C18.74,90.88,9,100.52,4.67,115.08c-3.18,10.75-2.95,21.69-2.23,32.71a44.54,44.54,0,0,1-.55,7.36c-.41,4-1.49,8-1.22,11.88.82,12.08,2.14,24.14,3.31,36.2,0,.36.61.67,1.4,1.48a48.33,48.33,0,0,0,3.25-3.62c2.56-3.49,5-7.07,7.52-10.59,13.76-19.25,27.79-38.29,46-53.71a62.48,62.48,0,0,1,10.77-7.11,5.44,5.44,0,0,1,4.94.41c2.88,2.45,3.23,9.53.39,12.15-5.73,5.28-11.53,10.61-17.94,15-12.46,8.5-24.27,17.43-32.83,30.22C22.71,194.6,16.74,201,11.62,207.91c-1,1.3-1,4-.44,5.58,2.25,6,4.85,12,7.54,17.81,2.16,4.7,4.66,9.26,7.37,14.59,2.29-3.82,4.47-6.95,6.14-10.33,4.35-8.81,7.75-18.18,12.88-26.49,5.64-9.13,12.69-17.41,19.39-25.85,1-1.23,3.87-2.19,5.1-1.61s2.48,3.26,2.34,4.9a17.25,17.25,0,0,1-2.51,7.9A193.35,193.35,0,0,1,56.7,211.69c-11.89,14.16-15,30.72-14.08,49.36,14.13.87,29.66-1.77,39,12.7,8-3.86,13.21-11.7,22.48-11.53a149.36,149.36,0,0,0-5.21-56.15c-.79-2.82-.47-5.94-.72-9.73,5.9,4,9.37,9,10.14,17.19,1.12,11.9,1.22,23.89,1.74,35.84.14,3.35.22,6.71.34,10.78,5.81-3.7,10.69-6.84,15.59-9.93,10.41-6.57,11.91-16.34,10.24-27.5-2.5-16.75-9.49-31.77-16.9-46.76-3-6-4.48-12.81-6.42-19.32-.45-1.52,0-3.31.1-5l1.88-.65c1.91,3.28,4.39,6.36,5.63,9.87,7.71,21.82,15.12,43.74,22.67,65.62.57,1.66,1.44,3.22,2.46,5.47,1.32-2.75,1.78-4.77,3-6.06,5.61-5.9,11.49-11.54,17.14-17.39,1-1.08,2.15-2.77,2.1-4.13a71.31,71.31,0,0,0-1.38-13.84c-4.51-19.18-11.69-37.08-25.15-52.06-3.61-4-5.8-9.31-8.65-14l1.51-.85c21.06,20.75,27.46,49.64,40.33,75.3,14.07-13.36,20.88-28.44,16.27-47.5l4.34,12.23c16-25.74,19.58-44.55,11.66-60.63.14,1.06.23,1.88.36,2.69s.32,1.74.49,2.6c-7-14.4-19.82-22.3-32.79-30.07,15.2.82,29.43,3.84,41,14.47l1.61-.9c-1.64-9.93-3-19.92-5.08-29.76a25.55,25.55,0,0,0-5-9.77c-5.55-7.18-16.88-10.87-25-6.19-4,2.29-8.94,2.79-13.46,4.1l-1.5-1.82c1.4-2.36,2.28-5.4,4.3-7a155.57,155.57,0,0,1,16.16-10.66c5.07-3,6.19-5.71,2.81-10.43a42.15,42.15,0,0,0-8-8.78c-8.83-6.89-18.12-4.55-23,5.41-1.59,3.22-3.17,6.44-4.85,9.85-7-7.11-7-7-16.28-9-1.27-.27-2.3-1.65-3.43-2.53-4.93-3.86-9.37-9.9-14.89-11.15C106.32.88,91.91-3,77.7,3.57a32.11,32.11,0,0,0-3,1.82c1,.91,1.8,2.15,2.95,2.68,4.53,2.07,9.33,3.6,13.7,5.94,5.55,3,9.8,8.6,11,13.84-1.65-1.43-2.8-2.55-4.06-3.52C92.74,20.08,87.46,15.43,81.57,11.77ZM141.12,188l-.84.43-6.12-12,.78-.55Zm54.68-59.89-23.58-25.45C184.62,107,189.58,118.17,195.8,128.16Zm-8-5.35c-11.27-8.65-15.25-10.84-18.14-19.88ZM96.42,96.46c3.54,8.72,2.23,11.6-5.67,14.23-13,4.33-26,8.77-39.91,13.47C63.16,109,77.09,98.35,96.42,96.46Z"/><path d="M349.94,501.26c6.84-3.13,13.16-7.65,19.15-12.3,7.86-6.1,15.16-12.91,22.83-19.26,1.15-1,3-1,4.54-1.53l1.21,1.63c-3.6,4.2-6.58,9.26-10.93,12.43-9.92,7.21-20.48,13.54-30.87,20.08-2,1.24-3.08,2.48-1.06,4.12a84.49,84.49,0,0,0,10.93,7.75c2.69,1.55,5.43,1.2,8.16-1.23,4.09-3.64,8.73-6.66,13.16-9.91,10.12-7.42,18.52-16.13,22.6-28.43a161.49,161.49,0,0,1,6.71-16.13c1.39-3,3.42-6.66,7.22-5.24,1.35.5,2.14,5.26,1.57,7.7-5.2,22.43-14.91,42-36,53.79-2.26,1.27-4.5,2.58-6.82,3.92,3.25,7,9,8.34,14.9,7,9-2,17.74-5,26.43-7.52.55.61,1.34,2.15,2.59,2.77,9.69,4.8,29.2-.21,35.62-9,5.67-7.72,5.64-16.49,4.66-25.39-.92-8.44-2.29-16.84-2.92-25.3-.23-3,1.14-6.19,1.79-9.3l1.79.14c10.31,15.16,6.44,32.2,5.37,48.51,2.67-.27,5.19.08,7.14-.82a25.11,25.11,0,0,0,14.06-21c.48-11.53-3.62-21.07-9.69-30.27a64,64,0,0,1-3.51-7c11.48,3.7,18.06,12,24,22.6,1.53-2.35,3.13-3.88,3.57-5.7a47.91,47.91,0,0,0,1-9.41c.38-10.74-5.59-19.29-10-28.39-5.4-11.22-13.76-17.32-26.71-15.61-.13,0-.32-.4-.68-.87,5.63-3.46,10.06-7.6,12.07-14.42,2.84-9.61-.83-17.51-5.66-24.83-3.4-5.16-9.45-2.4-14.45-2-2,.14-3.93.45-6.48.76,5.81,10.61,8.72,21.26,5,33.54a24.56,24.56,0,0,1-2.18-2c-.71-.92-1.33-1.91-2-2.87-6-8.83-9-18.86-11.42-29.11-.35-1.49-1.68-3.82-2.7-3.9-10-.76-20-.72-29.6,2.84-3.32,1.23-4.14,3.12-1.24,5.8,3.43,3.16,7.08,6.14,10.14,9.63,5.15,5.88,9.91,12.1,14.83,18.17l-1.12,1.12c-.59-.11-1.31,0-1.73-.35-5.66-4.32-11.5-8.44-16.86-13.12s-10.1-10.68-15.88-15c-3.77-2.85-9.09-6.91-13.87-2.53-7,6.4-13.06,13.81-20.52,21.88,5.09.5,8.69.67,12.24,1.23,5.38.85,10.92,1.38,16,3.13,6.1,2.09,11.84,5.26,17.66,8.11,2.42,1.18,2.13,4.61-.71,5.71a11.15,11.15,0,0,1-6.75.5c-4.91-1.48-9.62-3.62-14.39-5.54-4.62-1.86-9.1-4.15-13.84-5.59-6.82-2.07-13.5-.42-17.71,5.07-7,9.09-12.9,19-19.28,28.5,3.59-1.25,6.22-3.67,9.26-5.31a51.08,51.08,0,0,1,29.4-6.2c7.55.7,15.48,1.37,21.47,6.89,1.68,1.55,3.33,4.55,3,6.55-.5,3-2.69,5.73-6.74,5-3.6-.65-7.29-.91-10.79-1.88-6.58-1.81-13-4.22-19.58-6-11.38-3.07-21.15,0-28.87,8.81-4.28,4.87-8,10.19-11.9,15.41-.67.9-.64,2.31-.93,3.49a13.72,13.72,0,0,0,3.59,0c3.2-.81,6.35-1.85,10.37-3.05l-18,14.13c.89,2.51,1.24,4.58,2.27,6.21,5.24,8.25,10.27,16.69,16.25,24.38C342.13,499.75,347.67,502.3,349.94,501.26Zm77,14.46-1.16-.83,8.87-12.69,1.26.9Zm17.32-51.06,2.25.41-5.12,23.47-1.68-.34Z"/></g></g></svg>