<?xml version="1.0" standalone="no"?>
<!DOCTYPE svg PUBLIC "-//W3C//DTD SVG 1.1//EN" "http://www.w3.org/Graphics/SVG/1.1/DTD/svg11.dtd" >
<svg xmlns="http://www.w3.org/2000/svg" xmlns:xlink="http://www.w3.org/1999/xlink" version="1.1">
<metadata>
Created by FontForge 20170910 at Tue Aug 14 03:21:46 2018
 By Jimmy Wärting
Copyright (c) 2018 by Kurniadi Saputra. All rights reserved.
</metadata>
<defs>
<font id="MelindaScript" horiz-adv-x="406" >
  <font-face 
    font-family="Melinda Script"
    font-weight="400"
    font-stretch="normal"
    units-per-em="1000"
    panose-1="2 0 5 7 3 0 0 2 0 4"
    ascent="800"
    descent="-200"
    x-height="513.5"
    cap-height="1033"
    bbox="-514.583 -215.003 2362 1100.16"
    underline-thickness="50"
    underline-position="-100"
    unicode-range="U+0020-20AC"
  />
<missing-glyph 
 />
    <glyph glyph-name=".notdef" 
 />
    <glyph glyph-name="space" unicode=" " 
 />
    <glyph glyph-name="exclam" unicode="!" horiz-adv-x="344" 
d="M255 651l-164.999 -333.999c-4 -7.33301 -10.333 -11.5 -19 -12.5s-18 -0.833008 -28 0.5c32.667 58.667 61.167 115.167 85.5 169.5s49.166 106.166 74.499 155.499c8 14.667 16.333 22 25 22s17.667 -0.333008 27 -1zM24.001 243.001c7.33301 0 13.333 -2.33301 18 -7
s7 -10.334 7 -17.001s-2.33301 -12.334 -7 -17.001s-10.667 -7 -18 -7c-6.66699 0 -12.334 2.33301 -17.001 7s-7 10.334 -7 17.001s2.33301 12.334 7 17.001s10.334 7 17.001 7z" />
    <glyph glyph-name="quotedbl" unicode="&#x22;" horiz-adv-x="233" 
d="M105 591c4.66699 2.66699 8.16699 8 10.5 16s4.5 17 6.5 27s4.16699 20 6.5 30s5.5 18.667 9.5 26l35 -1c-6 -8 -10.167 -18.167 -12.5 -30.5s-5 -23.833 -8 -34.5s-7.83301 -19.5 -14.5 -26.5s-17.667 -9.16699 -33 -6.5zM35 591c4.66699 2.66699 8.16699 8 10.5 16
s4.5 17 6.5 27s4.16699 20 6.5 30s5.5 18.667 9.5 26l35 -1c-6.66699 -8 -11 -18.167 -13 -30.5s-4.5 -23.833 -7.5 -34.5s-7.83301 -19.5 -14.5 -26.5s-17.667 -9.16699 -33 -6.5z" />
    <glyph glyph-name="numbersign" unicode="#" horiz-adv-x="737" 
d="M108 363c9.33301 14 20.999 25.335 34.999 34.002s29.5 15 46.5 19s35.333 6.33301 55 7s39.834 0.333984 60.501 -0.999023c10.667 24 21.334 47.333 32.001 70s21.667 44 33 64c4.66699 10 9.5 17.167 14.5 21.5s10 7 15 8s10 1 15 0s10.167 -1.5 15.5 -1.5l-80 -166
c16 -0.666992 32.167 -1.83398 48.5 -3.50098s32.166 -3.16699 47.499 -4.5l71 146c5.33301 10 10.5 17.167 15.5 21.5s10 7 15 8s10.167 1 15.5 0s10.666 -1.5 15.999 -1.5l-88 -178c31.333 -0.666992 58.5 2.16602 81.5 8.49902s38.833 20.166 47.5 41.499
c4.66699 -2.66699 8.5 -4.66699 11.5 -6s4.83301 -2.83301 5.5 -4.5s0.166992 -3.83398 -1.5 -6.50098s-4.5 -7 -8.5 -13c-14 -19.333 -34 -31.5 -60 -36.5s-55 -6.83301 -87 -5.5l-42 -84c20.667 -2 40.5 -3.16699 59.5 -3.5s36.167 1 51.5 4s28.5 8 39.5 15
s19.167 16.833 24.5 29.5c4.66699 -2 8.5 -3.66699 11.5 -5s5 -2.83301 6 -4.5s0.833008 -4 -0.5 -7s-4.33301 -7.5 -9 -13.5c-8.66699 -11.333 -19.667 -20 -33 -26s-28.5 -10.167 -45.5 -12.5s-35.333 -3.33301 -55 -3s-39.5 1.5 -59.5 3.5l-82 -165
c-4.66699 -9.33301 -12 -14.833 -22 -16.5s-21 -1.5 -33 0.5c16 30.667 31.833 61.334 47.5 92.001s30.834 61 45.501 91c-32.667 4.66699 -65.334 7.66699 -98.001 9l-87 -176c-5.33301 -9.33301 -13.166 -14.833 -23.499 -16.5s-21.166 -1.5 -32.499 0.5
c17.333 32 34.166 64 50.499 96s32.5 64.667 48.5 98c-30 -1.33301 -56.833 -6.5 -80.5 -15.5s-41.167 -25.167 -52.5 -48.5c-8.66699 6 -13.667 9.66699 -15 11s1.66699 7 9 17c14.667 22 35.167 37.333 61.5 46s55.5 13 87.5 13l41 87
c-20 0.666992 -39 0.333984 -57 -0.999023s-34.833 -4.16602 -50.5 -8.49902s-29.5 -10.833 -41.5 -19.5s-21.333 -20.334 -28 -35.001c-8 5.33301 -13.167 8.66602 -15.5 9.99902s0.166992 7 7.5 17zM395.999 304.002l40 82c-17.333 1.33301 -34 2.83301 -50 4.5
s-32 3.16699 -48 4.5l-40 -82z" />
    <glyph glyph-name="dollar" unicode="$" horiz-adv-x="441" 
d="M351 604l-20 -42.001c12.667 -14.667 21.5 -34.667 26.5 -60s2.16699 -58 -8.5 -98c-1.33301 -3.33301 -3 -5.5 -5 -6.5s-4 -1.33301 -6 -1s-3.83301 1 -5.5 2s-2.83398 1.5 -3.50098 1.5c10 34.667 13.833 64 11.5 88s-8.16602 42.667 -17.499 56
c-13.333 -28 -27 -55.5 -41 -82.5s-28.333 -54.5 -43 -82.5c22.667 -39.333 34.667 -75.666 36 -108.999s-4.83398 -61 -18.501 -83s-33.167 -36.833 -58.5 -44.5s-52.666 -4.83398 -81.999 8.49902l-14 -27c-4 -9.33301 -9.5 -13.333 -16.5 -12s-12.167 3 -15.5 5l27 48
c-15.333 16 -24.333 38.667 -27 68c-0.666992 10 1.16602 15.167 5.49902 15.5s8.5 -0.166992 12.5 -1.5c0 -26 6.33301 -47 19 -63l101 188c-6 12 -11.833 25.333 -17.5 40s-10.167 29.834 -13.5 45.501s-4.66602 31 -3.99902 46s4.66699 28.833 12 41.5
c6.66699 10.667 15 19.5 25 26.5s20.833 12 32.5 15s23.667 3.83301 36 2.5s23.5 -5.33301 33.5 -12c2.66699 8 6.33398 15 11.001 21c3.33301 8.66699 7.66602 12.167 12.999 10.5s10.333 -3.16699 15 -4.5zM219 342.999l-93 -175c22.667 -11.333 43.334 -14 62.001 -8
s33 17.5 43 34.5s14.667 38.5 14 64.5s-9.33398 54 -26.001 84zM224 404.999c14.667 26 28.502 52.1699 41.502 78.5029s25.833 52.166 38.5 77.499c-8 6 -16.667 9.66699 -26 11s-18.5 0.833008 -27.5 -1.5s-17.167 -6.33301 -24.5 -12s-13.333 -12.834 -18 -21.501
c-5.33301 -10 -8.33301 -20.833 -9 -32.5s0.166016 -23.334 2.49902 -35.001s5.66602 -23 9.99902 -34s8.5 -21.167 12.5 -30.5z" />
    <glyph glyph-name="percent" unicode="%" horiz-adv-x="833" 
d="M390 602c-20.667 -41.333 -43.665 -84.0029 -68.998 -128.003s-51.5 -88.333 -78.5 -133s-53.833 -89 -80.5 -133s-51.667 -86.333 -75 -127c-2.66699 -4 -6 -6.83301 -10 -8.5s-8 -2.5 -12 -2.5s-7.83301 0.333008 -11.5 1s-6.5 1.33398 -8.5 2.00098
c23.333 40.667 48.5 83 75.5 127s54 88.333 81 133s53.167 89.334 78.5 134.001s48.666 87.667 69.999 129c5.33301 8 11.666 11.333 18.999 10s14.333 -2.66602 21 -3.99902zM209.002 470.997c-11.333 2 -18.8311 7.00098 -22.498 15.001s-4.16699 16.667 -1.5 26
s7.83398 17.666 15.501 24.999s17.5 11 29.5 11c12.667 0 21.167 -4.16699 25.5 -12.5s5.16602 -17.5 2.49902 -27.5s-8.33398 -19 -17.001 -27s-19.334 -11.333 -32.001 -10zM204.004 117.998c-10.667 1.33301 -17.834 6.16797 -21.501 14.501s-4.16699 17 -1.5 26
s7.83398 17.167 15.501 24.5s17.167 11 28.5 11c12.667 0.666992 21.167 -3.33301 25.5 -12s5 -18 2 -28s-8.83301 -18.833 -17.5 -26.5s-19 -10.834 -31 -9.50098zM211.004 489c6.66699 -0.666992 12.5 1.16895 17.5 5.50195s8.5 9.16602 10.5 14.499s2.5 10.333 1.5 15
s-4.5 7 -10.5 7c-4 0 -8.16699 -2 -12.5 -6s-7.83301 -8.5 -10.5 -13.5s-4 -9.83301 -4 -14.5s2.66699 -7.33398 8 -8.00098zM208.004 135.003c6 -0.666992 11.334 1.16797 16.001 5.50098s8.16699 9.16602 10.5 14.499s2.83301 10.333 1.5 15s-5 7 -11 7
c-3.33301 -0.666992 -7.16602 -3 -11.499 -7s-7.83301 -8.5 -10.5 -13.5s-3.83398 -9.66699 -3.50098 -14s3.16602 -6.83301 8.49902 -7.5z" />
    <glyph glyph-name="ampersand" unicode="&#x26;" horiz-adv-x="526" 
d="M348 485c8 9.33301 15.501 20.1748 22.501 32.5078s11.333 24.333 13 36s0 21.667 -5 30s-15.167 13.166 -30.5 14.499c-10.667 0.666992 -21 -1.83301 -31 -7.5s-19 -13 -27 -22s-14.667 -19.333 -20 -31s-8.83301 -23 -10.5 -34s-1.16699 -21.167 1.5 -30.5
s8.33398 -16.333 17.001 -21l-3 -15c-26.667 -3.33301 -50.667 -12 -72 -26s-39.5 -31 -54.5 -51s-26.333 -41.167 -34 -63.5s-10.667 -43 -9 -62s8 -34.833 19 -47.5s27.833 -19.334 50.5 -20.001c19.333 -0.666992 37.333 3 54 11s31.167 18.5 43.5 31.5
s22.666 27.5 30.999 43.5s13.666 31.5 15.999 46.5s1.83301 28.667 -1.5 41s-10.333 21.5 -21 27.5c-18.667 10 -35 13.167 -49 9.5s-24.833 -10 -32.5 -19s-11.667 -18.167 -12 -27.5s4.5 -15 14.5 -17c11.333 -1.33301 20.333 2.16699 27 10.5s10 17.166 10 26.499
c0.666992 0 1.83398 0.166992 3.50098 0.5s3.5 0.166016 5.5 -0.500977s3.83301 -1.66699 5.5 -3s2.16699 -4 1.5 -8c-3.33301 -13.333 -10 -24 -20 -32s-22.333 -11.333 -37 -10c-13.333 2 -22 9 -26 21s-2.83301 24.167 3.5 36.5s18.333 22.333 36 30
s41.834 8.5 72.501 2.5c8.66699 -1.33301 20 -2.83301 34 -4.5s27.667 -2 41 -1s25.166 4.16699 35.499 9.5s16.166 14.666 17.499 27.999c0.666992 6.66699 -1.5 11.167 -6.5 13.5s-10.333 2.5 -16 0.5s-10.834 -5.66699 -15.501 -11s-6.66699 -12 -6 -20
c-0.666992 0 -2 -0.166992 -4 -0.5s-4 -0.5 -6 -0.5s-3.66699 0.666992 -5 2s-1.66602 3.66602 -0.999023 6.99902c2 11.333 7.16699 20.5 15.5 27.5s17.333 11 27 12s18 -1 25 -6s9.83301 -13.5 8.5 -25.5c-1.33301 -14 -6.33301 -24.833 -15 -32.5s-19 -13 -31 -16
s-24.833 -4.5 -38.5 -4.5s-26.167 0.666992 -37.5 2c14 -18.667 19.167 -40.5 15.5 -65.5s-13 -48.667 -28 -71s-34.5 -41.5 -58.5 -57.5s-49.333 -24 -76 -24c-30 0 -53.333 6.5 -70 19.5s-27.5 29.5 -32.5 49.5s-4.5 41.833 1.5 65.5s16.833 46.667 32.5 69
s35.834 42.166 60.501 59.499s53 29.333 85 36c-14 10.667 -21.333 25.5 -22 44.5s3.66602 37.833 12.999 56.5s23.166 34.5 41.499 47.5s39.833 18.5 64.5 16.5c18 -1.33301 30.833 -6.33301 38.5 -15s11.834 -19.334 12.501 -32.001s-1.83301 -26.167 -7.5 -40.5
s-13.167 -27.833 -22.5 -40.5c-2.66699 -3.33301 -5.16699 -5.33301 -7.5 -6s-4.5 -0.666992 -6.5 0s-3.66699 1.66699 -5 3s-2.33301 2 -3 2z" />
    <glyph glyph-name="quotesingle" unicode="'" horiz-adv-x="165" 
d="M28 591c4.66699 2.66699 8.16699 8 10.5 16s4.5 17 6.5 27s4.16699 20 6.5 30s5.5 18.667 9.5 26l35 -1c-6.66699 -8 -11 -18.167 -13 -30.5s-4.5 -23.833 -7.5 -34.5s-7.83301 -19.5 -14.5 -26.5s-17.667 -9.16699 -33 -6.5z" />
    <glyph glyph-name="parenleft" unicode="(" horiz-adv-x="346" 
d="M328 787c-26 -8 -51.4971 -27.4971 -76.4971 -58.4971s-47.833 -68.5 -68.5 -112.5s-38.667 -92 -54 -144s-26 -102.667 -32 -152s-7 -94.833 -3 -136.5s14.667 -74.167 32 -97.5c-0.666992 -0.666992 -1.66699 -1.83398 -3 -3.50098s-3 -3 -5 -4
s-4.33301 -1.16699 -7 -0.5s-5.33398 3 -8.00098 7c-22 26 -36.333 60.167 -43 102.5s-7.66699 88 -3 137s14.667 99 30 150s34.333 98.667 57 143s48.167 82.833 76.5 115.5s58.166 55 89.499 67c9.33301 3.33301 14.666 2.66602 15.999 -2.00098s2 -8.33398 2 -11.001z
" />
    <glyph glyph-name="parenright" unicode=")" horiz-adv-x="347" 
d="M-27 90c26 8 51.499 27.4971 76.499 58.4971s47.833 68.5 68.5 112.5s38.667 92 54 144s26 102.667 32 152s7 94.833 3 136.5s-14.667 74.167 -32 97.5c0.666992 0.666992 1.66699 1.83398 3 3.50098s3 3 5 4s4.16699 1.16699 6.5 0.5s5.16602 -3 8.49902 -7
c21.333 -26.667 35.5 -61 42.5 -103s8.16699 -87.5 3.5 -136.5s-14.667 -99 -30 -150s-34.333 -98.667 -57 -143s-48.167 -82.833 -76.5 -115.5s-58.166 -55 -89.499 -67c-9.33301 -3.33301 -14.666 -2.66602 -15.999 2.00098s-2 8.33398 -2 11.001z" />
    <glyph glyph-name="asterisk" unicode="*" horiz-adv-x="375" 
d="M135 736c0.666992 -8 4.00391 -19.3359 10.0039 -34.0029s12.667 -30.667 20 -48c10 13.333 20 26 30 38s18.667 22 26 30c2.66699 -2.66699 5.5 -5.16699 8.5 -7.5s5.5 -4.83301 7.5 -7.5s2.66699 -5.66699 2 -9s-3.33398 -7.66602 -8.00098 -12.999
c-5.33301 -6 -10.333 -12 -15 -18s-9.33398 -12.333 -14.001 -19c33.333 2 60 2 80 0c-0.666992 -4 -0.833984 -7.66699 -0.500977 -11s0.166016 -6.16602 -0.500977 -8.49902s-2.33398 -4.5 -5.00098 -6.5s-7 -3.33301 -13 -4c-13.333 -2 -26.166 -3.66699 -38.499 -5
s-24.833 -2.66602 -37.5 -3.99902l36 -80c-7.33301 -3.33301 -14.333 -5.33301 -21 -6s-12.667 4.66602 -18 15.999c-4.66699 9.33301 -8.83398 18.333 -12.501 27s-7.83398 16.667 -12.501 24c-6.66699 -9.33301 -13.5 -17.833 -20.5 -25.5s-15.167 -15.167 -24.5 -22.5
c-10.667 -9.33301 -18.334 -12.166 -23.001 -8.49902s-8.66699 10.167 -12 19.5c6 4 13.333 10.667 22 20s17.667 19.666 27 30.999c-12.667 0 -24.667 0.333008 -36 1s-22.666 2 -33.999 4c-12.667 2.66699 -19.667 7 -21 13s-0.666016 13.667 2.00098 23
c8.66699 -1.33301 21.5 -1.66602 38.5 -0.999023s35.5 1.33398 55.5 2.00098c-4.66699 10 -8.83398 20.167 -12.501 30.5s-7.16699 20.166 -10.5 29.499c-3.33301 13.333 -2.66602 21.5 2.00098 24.5s12.334 4.83301 23.001 5.5z" />
    <glyph glyph-name="plus" unicode="+" horiz-adv-x="543" 
d="M92 378l141.002 -0.00292969l36 119c1.33301 6 4.66602 10.333 9.99902 13s10.666 3.83398 15.999 3.50098s9.83301 -2.16602 13.5 -5.49902s4.16699 -8.33301 1.5 -15l-33 -115h124c6.66699 0 11.834 -2.33301 15.501 -7s5.5 -9.66699 5.5 -15s-2 -10.333 -6 -15
s-10 -7 -18 -7h-133l-39 -132c-2 -6.66699 -5.5 -11.167 -10.5 -13.5s-10 -3 -15 -2s-9.33301 3.33301 -13 7s-4.83398 7.83398 -3.50098 12.501l38 128h-130c-7.33301 0 -12.333 2.33301 -15 7s-3.66699 9.66699 -3 15s2.66699 10.333 6 15s7.33301 7 12 7z" />
    <glyph glyph-name="comma" unicode="," horiz-adv-x="145" 
d="M60 298c0.666992 -8.66699 -0.333008 -17.168 -3 -25.501s-6.5 -15.833 -11.5 -22.5s-11.333 -12 -19 -16s-16.5 -5.66699 -26.5 -5c10 6 17.333 13.833 22 23.5s3.66699 19.167 -3 28.5c-3.33301 4 -3.83301 7.83301 -1.5 11.5s5.83301 6.5 10.5 8.5s10 2.83301 16 2.5
s11.333 -2.16602 16 -5.49902z" />
    <glyph glyph-name="hyphen" unicode="-" horiz-adv-x="455" 
d="M329 376c4 0 6.16797 -1.66699 6.50098 -5s-0.833984 -7 -3.50098 -11s-6.5 -7.66699 -11.5 -11s-10.167 -5 -15.5 -5h-227c-5.33301 0 -8 1.66699 -8 5s1.66699 7 5 11s7.33301 7.66699 12 11s9 5 13 5h229z" />
    <glyph glyph-name="period" unicode="." horiz-adv-x="196" 
d="M75 308c7.33301 0 13.333 -2.33301 18 -7s7 -10.334 7 -17.001s-2.33301 -12.334 -7 -17.001s-10.667 -7 -18 -7c-6.66699 0 -12.334 2.33301 -17.001 7s-7 10.334 -7 17.001s2.33301 12.334 7 17.001s10.334 7 17.001 7z" />
    <glyph glyph-name="slash" unicode="/" horiz-adv-x="421" 
d="M348 790c-66 -126 -135.166 -250.666 -207.499 -373.999s-145.5 -247.333 -219.5 -372c-4 -6.66699 -8 -11.167 -12 -13.5s-8 -3.5 -12 -3.5s-7.83301 0.666992 -11.5 2s-6.83398 2.33301 -9.50098 3c72.667 124.667 145.5 248.667 218.5 372s143.167 249 210.5 377
c3.33301 6 6.66602 10 9.99902 12s6.83301 3 10.5 3s7.33398 -0.833008 11.001 -2.5s7.5 -2.83398 11.5 -3.50098z" />
    <glyph glyph-name="zero" unicode="0" horiz-adv-x="320" 
d="M43 148c-25.333 2 -43.835 13.834 -55.502 35.501s-17.667 48.334 -18 80.001s4.5 65.5 14.5 101.5s24.333 69.333 43 100s41.334 56.167 68.001 76.5s56 30.166 88 29.499c27.333 -0.666992 46.666 -11.834 57.999 -33.501s16.333 -48.5 15 -80.5
s-8.16602 -66.5 -20.499 -103.5s-28.166 -71.167 -47.499 -102.5s-41.5 -56.833 -66.5 -76.5s-51.167 -28.5 -78.5 -26.5zM43.998 162.001c18.667 -1.33301 36.835 3.16699 54.502 13.5s34.334 24.5 50.001 42.5s29.834 39 42.501 63s23.167 48.5 31.5 73.5
s14.166 49.667 17.499 74s3.66602 46 0.999023 65s-8.66699 34.5 -18 46.5s-23 18 -41 18c-23.333 -0.666992 -45 -10.667 -65 -30s-37.833 -43.666 -53.5 -72.999s-28.334 -60.833 -38.001 -94.5s-15.834 -65.167 -18.501 -94.5s-1 -53.833 5 -73.5
s16.667 -29.834 32 -30.501z" />
    <glyph glyph-name="one" unicode="1" horiz-adv-x="272" 
d="M239 570l-214.998 -414h-45l175 336c-30.667 -27.333 -66.667 -46.333 -108 -57c-7.33301 -2 -11.333 -1.33301 -12 2s-1.33398 6 -2.00098 8c31.333 7.33301 60.166 19.5 86.499 36.5s47.833 39.5 64.5 67.5c4 8 7.16699 13.5 9.5 16.5s6.5 4.5 12.5 4.5h34z" />
    <glyph glyph-name="two" unicode="2" horiz-adv-x="421" 
d="M17 208c21.333 2 40.667 1.49805 58 -1.50195s33.166 -6.66699 47.499 -11s28 -8.5 41 -12.5s25.5 -5.66699 37.5 -5c11.333 0 22.833 3 34.5 9s24.167 16.667 37.5 32c1.33301 -1.33301 3.33301 -3.16602 6 -5.49902s2.33398 -5.5 -0.999023 -9.5
c-14 -13.333 -26.667 -23 -38 -29s-22.666 -9.66699 -33.999 -11c-18.667 -2 -38.5 -1.66699 -59.5 1s-41 5.16699 -60 7.5s-36 3.5 -51 3.5s-25.5 -3 -31.5 -9l-34 -3c-5.33301 8.66699 -1.83301 20.167 10.5 34.5s29.5 30.333 51.5 48s46.833 36.5 74.5 56.5
s54.167 40.333 79.5 61s47.833 41.167 67.5 61.5s32.167 39.166 37.5 56.499c6 23.333 6.5 41.666 1.5 54.999s-19.167 20.666 -42.5 21.999c-27.333 1.33301 -51.5 -4.16699 -72.5 -16.5s-38.833 -28.666 -53.5 -48.999s-26.334 -43 -35.001 -68s-14 -48.833 -16 -71.5
c-6.66699 -1.33301 -11 -1 -13 1s-2.33301 8.33301 -1 19c4 24 11.167 48.167 21.5 72.5s23.5 46 39.5 65s35 34.333 57 46s46.667 16.834 74 15.501c14 -0.666992 26.667 -3.5 38 -8.5s20.666 -11.667 27.999 -20s12.333 -18.166 15 -29.499s2.33398 -24 -0.999023 -38
c-4.66699 -16 -13.667 -32.167 -27 -48.5s-29.5 -32.666 -48.5 -48.999s-39.667 -32.5 -62 -48.5s-44.5 -31.333 -66.5 -46s-42.667 -28.5 -62 -41.5s-35.333 -24.833 -48 -35.5z" />
    <glyph glyph-name="three" unicode="3" horiz-adv-x="403" 
d="M131 451c-7.33301 6.66699 -11.166 17.167 -11.499 31.5s3.5 28.333 11.5 42s20.5 25.167 37.5 34.5s38.833 12.666 65.5 9.99902c24.667 -4 41.5 -12.667 50.5 -26s12 -27.833 9 -43.5s-10.667 -30.667 -23 -45s-27.833 -24.166 -46.5 -29.499
c25.333 -8 43 -20.5 53 -37.5s14 -36 12 -57s-9.5 -42.5 -22.5 -64.5s-30 -42.167 -51 -60.5s-45.333 -33.166 -73 -44.499s-57.167 -16.333 -88.5 -15c-30.667 1.33301 -52.5 11 -65.5 29s-18.333 38.5 -16 61.5s12 45.333 29 67s39.833 36.834 68.5 45.501
c8 2.66699 12.5 2.33398 13.5 -0.999023s1.83301 -6 2.5 -8c-18.667 -4 -34.834 -11 -48.501 -21s-24.834 -21.5 -33.501 -34.5s-14.334 -26.667 -17.001 -41s-2 -27.666 2 -39.999s11.333 -22.5 22 -30.5s25.334 -12.333 44.001 -13
c27.333 -1.33301 52.5 3.83398 75.5 15.501s42.833 26.667 59.5 45s29.834 38.666 39.501 60.999s15 43.166 16 62.499s-2.83301 36 -11.5 50s-23.334 22 -44.001 24c0.666992 3.33301 1 7.66602 1 12.999c12 0 24 6 36 18s21.167 25.333 27.5 40s8.33301 28.667 6 42
s-11.833 21.666 -28.5 24.999c-26 2.66699 -46.333 -0.833008 -61 -10.5s-25 -20.834 -31 -33.501s-8.16699 -24.667 -6.5 -36s5.83398 -17.333 12.501 -18c0.666992 -3.33301 -0.5 -6.33301 -3.5 -9s-6.83301 -2 -11.5 2z" />
    <glyph glyph-name="four" unicode="4" horiz-adv-x="374" 
d="M335 570l-105.002 -256.001c7.33301 -1.33301 14.333 -2.83301 21 -4.5s13 -3.5 19 -5.5c6.66699 -2.66699 9.5 -5.33398 8.5 -8.00098s-2.16699 -5.33398 -3.5 -8.00098c-12 6.66699 -28.667 11 -50 13l-66 -163h-45l67 166c-13.333 0 -28 -0.166992 -44 -0.5
s-32 -1 -48 -2s-31.667 -2.16699 -47 -3.5s-29 -2.66602 -41 -3.99902c-1.33301 4.66699 -1.66602 11.167 -0.999023 19.5s4.66699 13.833 12 16.5c17.333 6 35.833 15.667 55.5 29s39.5 28.333 59.5 45s39.333 34.167 58 52.5s35.334 35.333 50.001 51s27 29.334 37 41.001
s16 18.834 18 21.501h45zM37.998 325.999c22.667 0.666992 47.167 0.667969 73.5 0.000976562s51.833 -2.66699 76.5 -6l86 209c-10 -12 -24.667 -28.333 -44 -49s-40.333 -41.334 -63 -62.001s-45.5 -39.667 -68.5 -57s-43.167 -29 -60.5 -35z" />
    <glyph glyph-name="five" unicode="5" horiz-adv-x="378" 
d="M185 524c-11.333 -18.667 -20.4971 -35.0039 -27.4971 -49.0039s-15.167 -29 -24.5 -45c32 -1.33301 57 -9 75 -23s30 -31 36 -51s6.5 -41.333 1.5 -64s-14.333 -43.667 -28 -63s-31 -35.166 -52 -47.499s-44.5 -18.166 -70.5 -17.499s-46.833 7.66699 -62.5 21
s-25.834 29.333 -30.501 48s-3.16699 38.334 4.5 59.001s21.5 38.667 41.5 54c6.66699 5.33301 11 6.5 13 3.5l5 -7.5c-20.667 -13.333 -35.167 -29.166 -43.5 -47.499s-11.166 -36 -8.49902 -53s10.834 -31.667 24.501 -44s32.5 -18.833 56.5 -19.5
c18.667 0.666992 35.667 6.5 51 17.5s28.166 24.833 38.499 41.5s17.666 34.834 21.999 54.501s4.66602 38.167 0.999023 55.5s-11.667 32.333 -24 45s-29.833 20.334 -52.5 23.001c-7.33301 0.666992 -14.166 1.16699 -20.499 1.5s-13.5 0.5 -21.5 0.5
c12 19.333 24.167 40.666 36.5 63.999s24.166 44.666 35.499 63.999c2.66699 3.33301 9 4.5 19 3.5s21.5 -2.66699 34.5 -5s26.833 -4.5 41.5 -6.5s28.167 -2.66699 40.5 -2s22.666 3.66699 30.999 9s12.833 14 13.5 26l14 -1c-1.33301 -18.667 -8.5 -31.667 -21.5 -39
s-28.5 -11.666 -46.5 -12.999s-36.5 -0.833008 -55.5 1.5s-34.5 4.16602 -46.5 5.49902z" />
    <glyph glyph-name="six" unicode="6" horiz-adv-x="339" 
d="M268 564c-30 -4 -58.1689 -15.6641 -84.502 -34.9971s-49.666 -42.333 -69.999 -69s-37.166 -55 -50.499 -85s-22 -58.167 -26 -84.5s-2.66699 -48.833 4 -67.5s20 -29.334 40 -32.001c-7.33301 22.667 -9.16602 45.667 -5.49902 69s11.167 44 22.5 62
s25.666 32 42.999 42s36.666 13.667 57.999 11c12.667 -2 22 -8 28 -18s8.66699 -22 8 -36s-4.16699 -29 -10.5 -45s-15.166 -31 -26.499 -45s-25 -25.833 -41 -35.5s-34 -15.5 -54 -17.5c4.66699 -16.667 10.667 -27.334 18 -32.001l-3 -13
c-14.667 8.66699 -25.667 23.334 -33 44.001c-29.333 0.666992 -50.833 10 -64.5 28s-20.667 40.333 -21 67s5.5 56 17.5 88s29.167 62.667 51.5 92s49 55.166 80 77.499s65.5 37.5 103.5 45.5c6.66699 1.33301 11 0.666016 13 -2.00098s3 -5.66699 3 -9zM99.998 191.003
c26 2 48.501 11.501 67.501 28.501s33.167 35.5 42.5 55.5s13.333 38.5 12 55.5s-9.33301 27.167 -24 30.5c-17.333 2 -32.833 -2.83301 -46.5 -14.5s-24.834 -26.334 -33.501 -44.001s-14.667 -36.667 -18 -57s-3.33301 -38.5 0 -54.5z" />
    <glyph glyph-name="seven" unicode="7" horiz-adv-x="353" 
d="M65 543c12.667 -1.33301 27.1719 -2.66699 43.5049 -4s34 -1.66602 53 -0.999023s39.333 3 61 7s44.5 11 68.5 21c9.33301 4 15 4.33301 17 1s4.66699 -7.66602 8 -12.999c-22 -23.333 -42.833 -48.166 -62.5 -74.499s-37.834 -53.166 -54.501 -80.499
c11.333 0.666992 23.166 1.16699 35.499 1.5s24.166 1.16602 35.499 2.49902v-13c-13.333 -1.33301 -26.666 -2.33301 -39.999 -3s-26.666 -1 -39.999 -1c-28 -46.667 -51.167 -90.5 -69.5 -131.5s-30.5 -72.167 -36.5 -93.5l-36 1
c7.33301 25.333 19.666 58.166 36.999 98.499s38.666 81.833 63.999 124.5l-66 3l2 13c7.33301 -0.666992 17.166 -1.16699 29.499 -1.5s26.166 -0.5 41.499 -0.5c15.333 25.333 30.833 49.666 46.5 72.999s32.167 44.666 49.5 63.999
c-31.333 -9.33301 -61.833 -13.5 -91.5 -12.5s-62.167 3.16699 -97.5 6.5z" />
    <glyph glyph-name="eight" unicode="8" horiz-adv-x="332" 
d="M162 383c12 -19.333 23.0029 -39.3311 33.0029 -59.998s14.667 -42.667 14 -66c-0.666992 -22 -7 -40.667 -19 -56s-26.5 -27 -43.5 -35s-35 -12.167 -54 -12.5s-36 3.16699 -51 10.5s-26.5 18.666 -34.5 33.999s-9.33301 35 -4 59c4.66699 22.667 17 45.334 37 68.001
s49.333 42 88 58c-10.667 21.333 -19.834 42.5 -27.501 63.5s-9.83398 41.5 -6.50098 61.5c2.66699 16.667 9.33398 30.5 20.001 41.5s23 19.167 37 24.5s28.667 7.83301 44 7.5s29.166 -3.5 41.499 -9.5s22.166 -14.667 29.499 -26s10 -25.333 8 -42
c-2 -12.667 -6.83301 -25.167 -14.5 -37.5s-17 -23.833 -28 -34.5s-22.667 -20.334 -35 -29.001s-23.833 -15.334 -34.5 -20.001zM175.003 257.002c0.666992 16 -3.33301 33.666 -12 52.999s-18.334 39.666 -29.001 60.999c-34.667 -14.667 -61.334 -32.167 -80.001 -52.5
s-30.667 -40.5 -36 -60.5s-5.16602 -36.833 0.500977 -50.5s14.334 -24.167 26.001 -31.5s24.834 -11.166 39.501 -11.499s28.667 2.83398 42 9.50098s24.666 17 33.999 31s14.333 31.333 15 52zM115.003 509.001c-3.33301 -20 -0.501953 -39.1689 8.49805 -57.502
s19.5 -37.166 31.5 -56.499c9.33301 4.66699 19.833 10.834 31.5 18.501s22.834 16.5 33.501 26.5s19.834 20.5 27.501 31.5s12.167 22.167 13.5 33.5c2.66699 19.333 -2.83301 34.5 -16.5 45.5s-29.5 17 -47.5 18s-35.167 -3.33301 -51.5 -13s-26.5 -25.167 -30.5 -46.5z
" />
    <glyph glyph-name="nine" unicode="9" horiz-adv-x="335" 
d="M-30 171c34 -1.33301 66.4971 7.49805 97.4971 26.498s58.5 43.333 82.5 73s44 61.667 60 96s26.167 66.333 30.5 96s2 54.167 -7 73.5s-26.167 28.666 -51.5 27.999s-46.666 -7 -63.999 -19s-30.5 -26.5 -39.5 -43.5s-13.667 -34.667 -14 -53
s3.66699 -34.166 12 -47.499s21 -22.333 38 -27s38.5 -1.66699 64.5 9c1.33301 -2.66699 2.16602 -5.5 2.49902 -8.5s-3.83398 -6.16699 -12.501 -9.5c-32 -10 -58 -11.667 -78 -5s-34.5 17.834 -43.5 33.501s-12.667 34 -11 55s8.33398 41 20.001 60s28 35 49 48
s46.167 19.833 75.5 20.5c34.667 0.666992 59.334 -9.66602 74.001 -30.999s20.834 -48 18.501 -80s-11.666 -66.667 -27.999 -104s-38.333 -71.5 -66 -102.5s-59.5 -56.5 -95.5 -76.5s-74.667 -28.667 -116 -26c0 2.66699 0.166992 5 0.5 7s0.833008 4.33301 1.5 7z" />
    <glyph glyph-name="colon" unicode=":" horiz-adv-x="307" 
d="M123 410c7.33301 0 12.998 -2.33301 16.998 -7s5.33301 -10.334 4 -17.001c-1.33301 -7.33301 -4.66602 -13.333 -9.99902 -18s-11.666 -7 -18.999 -7c-6 0 -11 2.33301 -15 7s-5.33301 10.667 -4 18c1.33301 6.66699 4.5 12.334 9.5 17.001s10.833 7 17.5 7z
M143.998 531c7.33301 0 12.999 -2.33301 16.999 -7s5.33301 -10.334 4 -17.001s-4.66602 -12.334 -9.99902 -17.001s-11.666 -7 -18.999 -7c-6.66699 0 -12 2.33301 -16 7s-5.33301 10.334 -4 17.001s4.66602 12.334 9.99902 17.001s11.333 7 18 7z" />
    <glyph glyph-name="semicolon" unicode=";" horiz-adv-x="262" 
d="M147 403c-0.666992 -8 -2.83301 -16.334 -6.5 -25.001s-8.66699 -16.167 -15 -22.5s-13.5 -11.5 -21.5 -15.5s-17 -5.66699 -27 -5c10.667 5.33301 19.167 12.833 25.5 22.5s6.83301 19.167 1.5 28.5c-2.66699 4 -2.66699 7.83301 0 11.5s6.5 6.5 11.5 8.5
s10.5 2.83301 16.5 2.5s11 -2.16602 15 -5.49902zM143.001 530.999c7.33301 0 12.833 -2.33301 16.5 -7s4.83398 -10.334 3.50098 -17.001s-4.5 -12.334 -9.5 -17.001s-11.167 -7 -18.5 -7c-6.66699 0 -12 2.33301 -16 7s-5.33301 10.334 -4 17.001
s4.66602 12.334 9.99902 17.001s11.333 7 18 7z" />
    <glyph glyph-name="less" unicode="&#x3c;" horiz-adv-x="431" 
d="M243 191c-5.33301 12.667 -14.834 26.832 -28.501 42.499s-29 30.834 -46 45.501s-33.833 28.334 -50.5 41.001s-30.334 22.667 -41.001 30c-3.33301 1.33301 -7.5 4.66602 -12.5 9.99902s-4.5 10.333 1.5 15c12.667 6 31.334 18 56.001 36s50.334 37.833 77.001 59.5
s52.167 43.334 76.5 65.001s42.833 39.5 55.5 53.5c2.66699 -13.333 -4 -30.833 -20 -52.5s-35.833 -44 -59.5 -67s-48.167 -44.333 -73.5 -64s-45.666 -33.834 -60.999 -42.501c10 -10 23.5 -22.667 40.5 -38s33 -31.333 48 -48s26.667 -32.667 35 -48
s9.16602 -28 2.49902 -38z" />
    <glyph glyph-name="equal" unicode="=" horiz-adv-x="568" 
d="M104 282h253.002c4.66699 0 7.5 -2 8.5 -6s0.666992 -8.5 -1 -13.5s-4.66699 -9.5 -9 -13.5s-9.5 -6 -15.5 -6h-251c-6 0 -9.33301 2 -10 6s0.166016 8.5 2.49902 13.5s5.66602 9.5 9.99902 13.5s8.5 6 12.5 6zM163.002 431h251c4.66699 0 7.83398 -2 9.50098 -6
s1.66699 -8.5 0 -13.5s-4.66699 -9.5 -9 -13.5s-9.5 -6 -15.5 -6h-250c-6 0 -9.5 2 -10.5 6s-0.333008 8.5 2 13.5s5.66602 9.5 9.99902 13.5s8.5 6 12.5 6z" />
    <glyph glyph-name="greater" unicode="&#x3e;" horiz-adv-x="402" 
d="M120 589c4.66699 -13.333 14.0029 -27.668 28.0029 -43.001s29.5 -30.333 46.5 -45s33.833 -28.334 50.5 -41.001s30.334 -22.667 41.001 -30c3.33301 -1.33301 7.5 -4.66602 12.5 -9.99902s4.5 -10.333 -1.5 -15c-12.667 -6 -31.334 -18 -56.001 -36
s-50.334 -37.833 -77.001 -59.5s-52.167 -43.334 -76.5 -65.001s-42.833 -39.5 -55.5 -53.5c-2 8.66699 0.5 19.5 7.5 32.5s16.667 26.833 29 41.5s26.666 29.834 42.999 45.501s32.833 30.334 49.5 44.001s32.5 26 47.5 37s27.5 19.5 37.5 25.5
c-10 10 -23.5 22.667 -40.5 38s-33 31.333 -48 48s-26.833 32.667 -35.5 48s-9.33398 28 -2.00098 38z" />
    <glyph glyph-name="question" unicode="?" horiz-adv-x="466" 
d="M135 521c-3.33301 18 -1.83203 36.334 4.50098 55.001s15.833 35.5 28.5 50.5s27.834 27.167 45.501 36.5s36.167 13.333 55.5 12c29.333 -2 50.833 -11 64.5 -27s18.5 -36.333 14.5 -61c-3.33301 -20.667 -10.833 -40 -22.5 -58s-25.334 -35 -41.001 -51
s-32.5 -31.5 -50.5 -46.5s-34.833 -29.167 -50.5 -42.5s-29.167 -26.5 -40.5 -39.5s-18.333 -25.5 -21 -37.5c-1.33301 -5.33301 -5.16602 -7.83301 -11.499 -7.5s-12.833 0.833008 -19.5 1.5c1.33301 16 7.16602 31.667 17.499 47s23.166 30.666 38.499 45.999
s31.666 30.5 48.999 45.5s34 30.333 50 46s30.167 31.834 42.5 48.501s20.5 33.667 24.5 51s3.16699 32.666 -2.5 45.999s-20.167 21.666 -43.5 24.999c-17.333 2 -34.166 -1.83301 -50.499 -11.5s-30.333 -22.167 -42 -37.5s-20 -32.333 -25 -51s-4.5 -35.667 1.5 -51
c-3.33301 -1.33301 -6.5 -2.16602 -9.5 -2.49902s-5.16699 4.16699 -6.5 13.5zM88.001 243.001c7.33301 0 13.333 -2.33301 18 -7s7 -10.334 7 -17.001s-2.33301 -12.334 -7 -17.001s-10.667 -7 -18 -7c-6.66699 0 -12.334 2.33301 -17.001 7s-7 10.334 -7 17.001
s2.33301 12.334 7 17.001s10.334 7 17.001 7z" />
    <glyph glyph-name="at" unicode="@" horiz-adv-x="720" 
d="M375 216c28 1.33301 56.666 12.8311 85.999 34.498s55.166 48 77.499 79s38.833 63.667 49.5 98s11.334 64.5 2.00098 90.5c-7.33301 19.333 -20.666 35.333 -39.999 48s-46.666 20 -81.999 22c-41.333 2.66699 -79.5 -2.33301 -114.5 -15s-66.333 -30.334 -94 -53.001
s-51.5 -49 -71.5 -79s-35.333 -60.833 -46 -92.5s-16.5 -62.667 -17.5 -93s3.5 -57.666 13.5 -81.999s25.833 -43.833 47.5 -58.5s49.834 -22 84.501 -22c18 0 37.167 2 57.5 6s40.333 9.5 60 16.5s38.334 15.5 56.001 25.5s33.5 21 47.5 33
c3.33301 -3.33301 5.83301 -6.5 7.5 -9.5s-1.16602 -7.83301 -8.49902 -14.5c-14.667 -11.333 -30.834 -21.666 -48.501 -30.999s-36.167 -17.166 -55.5 -23.499s-39 -11.333 -59 -15s-39 -5.5 -57 -5.5c-38 0 -69.167 7.83301 -93.5 23.5s-42.166 36.5 -53.499 62.5
s-16.833 55.333 -16.5 88s6 66 17 100s27 67 48 99s46.167 60.167 75.5 84.5s62.666 43.333 99.999 57s78 19.167 122 16.5c40 -3.33301 70.833 -12.333 92.5 -27s36.5 -33 44.5 -55c6.66699 -20 8.5 -41.833 5.5 -65.5s-9.83301 -47.667 -20.5 -72
s-24.334 -47.833 -41.001 -70.5s-35.167 -42.834 -55.5 -60.501s-41.5 -31.667 -63.5 -42s-43.667 -15.166 -65 -14.499c-18 0 -31 4.16699 -39 12.5s-12.5 18.833 -13.5 31.5s0.5 26.5 4.5 41.5s9 29.167 15 42.5c-11.333 -12.667 -22 -22.334 -32 -29.001
s-20.667 -10.667 -32 -12c-19.333 0 -31 7.83301 -35 23.5s-2.5 32.834 4.5 51.501s19 35 36 49s37.5 19 61.5 15c5.33301 -1.33301 11.833 -4 19.5 -8s13.167 -11.333 16.5 -22c0.666992 2 1.66699 3.83301 3 5.5s2.66602 3.5 3.99902 5.5c4 4 9 5.66699 15 5
s14.667 -3.66699 26 -9c-4.66699 -6.66699 -11 -15.834 -19 -27.501s-16.333 -24.5 -25 -38.5s-16.334 -28.167 -23.001 -42.5s-11 -27.333 -13 -39s-0.5 -21.167 4.5 -28.5s15.167 -10.666 30.5 -9.99902zM358.999 377.998c-0.666992 10.667 -3.16797 18.167 -7.50098 22.5
s-9.16602 6.5 -14.499 6.5c-15.333 0.666992 -28.5 -4.33301 -39.5 -15s-19.5 -22.667 -25.5 -36s-9.33301 -25.5 -10 -36.5s2 -16.5 8 -16.5c8 -0.666992 16.167 1.5 24.5 6.5s16.333 11.333 24 19s15 16 22 25s13.167 17.167 18.5 24.5z" />
    <glyph glyph-name="A" unicode="A" horiz-adv-x="1198" 
d="M616 474c-36.667 -49.333 -72.8281 -98.4971 -108.495 -147.497s-70.834 -96 -105.501 -141s-68.834 -87 -102.501 -126s-66.5 -73 -98.5 -102s-63.5 -52.5 -94.5 -70.5s-60.833 -28 -89.5 -30c-4.66699 -0.666992 -8.16699 0 -10.5 2s-4 4.33301 -5 7
s-1.5 5.33398 -1.5 8.00098s0.333008 5 1 7c29.333 1.33301 59.333 10.166 90 26.499s62 38.5 94 66.5s64.333 60.667 97 98s66 78 100 122s68.333 90 103 138s69.667 96.667 105 146c-50 7.33301 -93.833 10.5 -131.5 9.5s-63.834 -10.167 -78.501 -27.5
c-3.33301 1.33301 -6.33301 3.83301 -9 7.5s-2 7.16699 2 10.5c18.667 16.667 48 25 88 25s86.333 -4 139 -12c40 55.333 80.833 109.666 122.5 162.999s83.667 103 126 149s85.333 87 129 123s88.167 64.667 133.5 86c-42 -10 -89 -22.167 -141 -36.5
s-105.833 -28.833 -161.5 -43.5s-111.834 -28.667 -168.501 -42s-111 -23.833 -163 -31.5s-100.167 -11.334 -144.5 -11.001s-82 6.33301 -113 18s-53.833 30.5 -68.5 56.5s-18.334 60.667 -11.001 104c-1.33301 2 -2.33301 5.5 -3 10.5s-0.5 10.167 0.5 15.5s3 10 6 14
s7.83301 6 14.5 6c7.33301 0 11.5 -2.16699 12.5 -6.5s0.5 -9.16602 -1.5 -14.499s-4.66699 -10.5 -8 -15.5s-5.66602 -7.83301 -6.99902 -8.5c-8 -46.667 -2.33301 -82.5 17 -107.5s48.5 -41.833 87.5 -50.5s85.5 -10.667 139.5 -6s111.667 13 173 25s124 26.5 188 43.5
s125.167 33.5 183.5 49.5s111.833 30 160.5 42s88.667 19.333 120 22c53.333 7.33301 106.333 0.666016 159 -20.001c-8 -8.66699 -19.667 -23.334 -35 -44.001s-33.333 -45.667 -54 -75s-43 -62.5 -67 -99.5s-49 -76.167 -75 -117.5s-52 -84.166 -78 -128.499
s-51 -88.5 -75 -132.5c40 -2.66699 77 -2.5 111 0.5s63.667 10.833 89 23.5c5.33301 3.33301 10.5 6.5 15.5 9.5s9.83301 6.5 14.5 10.5l9 -10c-26.667 -22.667 -61.334 -37 -104.001 -43s-90 -7 -142 -3c-33.333 -62.667 -63.166 -123.167 -89.499 -181.5
s-45.5 -110.333 -57.5 -156s-15 -82.5 -9 -110.5s24 -43.333 54 -46c19.333 -1.33301 36.833 2.66699 52.5 12s28.167 22.666 37.5 39.999c3.33301 -1.33301 7 -3 11 -5s3 -7 -3 -15c-11.333 -15.333 -25.833 -27 -43.5 -35s-36.167 -11.333 -55.5 -10
c-25.333 2 -44.333 10 -57 24s-20.5 32.833 -23.5 56.5s-1.66699 51.334 4 83.001s14.834 66.167 27.501 103.5s28 76.666 46 117.999s37.667 83.333 59 126c-54.667 6 -110.334 14.5 -167.001 25.5s-110.334 20.5 -161.001 28.5zM1319.01 1026
c-38.667 8 -77.498 7.33594 -116.498 -1.99707s-78 -25.5 -117 -48.5s-77.833 -52 -116.5 -87s-77.334 -73.833 -116.001 -116.5s-77 -88.334 -115 -137.001s-75.667 -98 -113 -148c51.333 -8.66699 105 -18.334 161 -29.001s110.667 -19 164 -25
c22 43.333 45.333 86.833 70 130.5s49.167 86 73.5 127s48.166 79.667 71.499 116s45 69.166 65 98.499s37.667 54.5 53 75.5s27.333 36.167 36 45.5z" />
    <glyph glyph-name="B" unicode="B" horiz-adv-x="1656" 
d="M18 1027c-8 -46.667 -4.16992 -82.3369 11.4971 -107.004s39.667 -41.834 72 -51.501s71.333 -12.834 117 -9.50098s94 9.83301 145 19.5s103.167 21.334 156.5 35.001s104.166 26.334 152.499 38.001s92.166 20.834 131.499 27.501s70.666 7.66699 93.999 3
c34 -6.66699 58 -23.667 72 -51s20.333 -61.666 19 -102.999s-8.66602 -87.833 -21.999 -139.5s-30.333 -105.334 -51 -161.001s-43.334 -111.334 -68.001 -167.001s-49 -108 -73 -157s-46.333 -93 -67 -132s-36.667 -69.5 -48 -91.5c6 4.66699 13.5 13.834 22.5 27.501
s18.667 29.667 29 48s20.666 37.666 30.999 57.999s20 39.833 29 58.5s17 35.5 24 50.5s12.167 25.833 15.5 32.5c26 54 53.833 110.833 83.5 170.5s60.5 118.167 92.5 175.5s65.167 111.833 99.5 163.5s69.833 96.834 106.5 135.501s73.834 68.834 111.501 90.501
s76.167 31.5 115.5 29.5c50.667 -3.33301 91.5 -18.833 122.5 -46.5s51.167 -61.167 60.5 -100.5s7.83301 -81.5 -4.5 -126.5s-35.833 -87 -70.5 -126s-81 -72 -139 -99s-128 -41.5 -210 -43.5c22 -13.333 40.833 -28.666 56.5 -45.999s28.5 -36.666 38.5 -57.999
c58 23.333 121.5 43.833 190.5 61.5s144.167 31.167 225.5 40.5l2 -14c-80.667 -8.66699 -155.167 -21.667 -223.5 -39s-131.5 -37.666 -189.5 -60.999c13.333 -33.333 20.333 -68.833 21 -106.5s-4.16602 -75.334 -14.499 -113.001s-26.166 -73.834 -47.499 -108.501
s-47.166 -65.167 -77.499 -91.5s-64.833 -47.333 -103.5 -63s-80.667 -23.5 -126 -23.5c-30 0 -53.667 4.5 -71 13.5s-29.666 20.667 -36.999 35s-10 31 -8 50s7.66699 38.5 17 58.5c16.667 38 40 74.167 70 108.5s63.167 66 99.5 95s74.5 55.333 114.5 79
s78.667 43.834 116 60.501c-8.66699 28.667 -21.5 54 -38.5 76s-38.5 39.333 -64.5 52c-1.33301 2.66699 -1.66602 5.5 -0.999023 8.5s2 4.5 4 4.5c58.667 0 111 7 157 21s85.833 32.667 119.5 56s61.667 49.833 84 79.5s38.833 60.167 49.5 91.5s16 62.166 16 92.499
s-5.16699 57.666 -15.5 81.999s-25.833 44.5 -46.5 60.5s-46.334 25 -77.001 27c-37.333 2 -74.5 -7.83301 -111.5 -29.5s-73.167 -51.667 -108.5 -90s-70 -83 -104 -134s-66.833 -104.833 -98.5 -161.5s-62 -114.5 -91 -173.5s-56.5 -115.5 -82.5 -169.5
c-2 -4.66699 -6.5 -14.834 -13.5 -30.501s-15.5 -34 -25.5 -55s-20.833 -43 -32.5 -66s-23.5 -44.333 -35.5 -64s-23.667 -36.167 -35 -49.5s-21 -20.333 -29 -21c-2.66699 0 -6.5 0.166992 -11.5 0.5s-10.333 1 -16 2s-11.167 1.83301 -16.5 2.5
s-9.33301 1.33398 -12 2.00098c8 14.667 21.167 39.667 39.5 75s39.5 76.666 63.5 123.999s49.333 99 76 155s51.834 112.5 75.501 169.5s44.334 112.333 62.001 166s29.834 102.167 36.501 145.5s6.16699 79.333 -1.5 108s-24.834 46.334 -51.501 53.001
c-22.667 5.33301 -53.834 4.83301 -93.501 -1.5s-83.834 -15.166 -132.501 -26.499s-100 -24 -154 -38s-107.167 -25.833 -159.5 -35.5s-101.666 -16 -147.999 -19s-86 0.666992 -119 11s-57.5 28.833 -73.5 55.5s-20 64.667 -12 114c-1.33301 2 -2.33301 5.5 -3 10.5
s-0.5 10.167 0.5 15.5s3 10 6 14s7.83301 6 14.5 6c7.33301 0 11.5 -2.16699 12.5 -6.5s0.5 -9.16602 -1.5 -14.499s-4.66699 -10.5 -8 -15.5s-5.66602 -7.83301 -6.99902 -8.5zM930.997 -130.003c38 0 73.167 7.33398 105.5 22.001s61.166 34.334 86.499 59.001
s47 53.167 65 85.5s31.833 66 41.5 101s15.167 70.167 16.5 105.5s-2 68.666 -10 99.999c-36.667 -16.667 -74.5 -36.5 -113.5 -59.5s-76.333 -48.833 -112 -77.5s-68.167 -59.667 -97.5 -93s-52.333 -68.333 -69 -105c-8.66699 -19.333 -14 -37.333 -16 -54
s0.333008 -31.334 7 -44.001s17.834 -22.5 33.501 -29.5s36.5 -10.5 62.5 -10.5z" />
    <glyph glyph-name="C" unicode="C" horiz-adv-x="1209" 
d="M21 1072c4 0 6.83887 -1.83691 8.50586 -5.50391s2.16699 -8 1.5 -13s-2.33398 -9.83301 -5.00098 -14.5s-6 -8 -10 -10c-6.66699 -38 -1.83398 -71.667 14.499 -101s39.5 -55.333 69.5 -78s65 -42 105 -58s80.667 -29.333 122 -40s81 -19 119 -25s70.333 -10.333 97 -13
c37.333 47.333 76.5 90.5 117.5 129.5s84 72.167 129 99.5s92.333 48 142 62s102.167 19.333 157.5 16c53.333 -3.33301 93.833 -16.666 121.5 -39.999s39.834 -51.666 36.501 -84.999c-6.66699 -32 -23.834 -59.333 -51.501 -82s-61.334 -41.667 -101.001 -57
s-83 -27.333 -130 -36s-93.5 -15 -139.5 -19s-89 -6.16699 -129 -6.5s-72.667 0.166992 -98 1.5c-43.333 -55.333 -83 -113.666 -119 -174.999s-67.5 -122 -94.5 -182s-49.333 -117.5 -67 -172.5s-29.667 -103.833 -36 -146.5s-6.33301 -77.5 0 -104.5
s19.833 -42.167 40.5 -45.5c42 -6 88.833 0.666992 140.5 20s105.334 46.5 161.001 81.5s112 75.333 169 121s112.5 91.667 166.5 138s104.833 91 152.5 134s90.167 78.833 127.5 107.5l9 -11c-28.667 -22 -60.167 -48 -94.5 -78s-70.833 -62 -109.5 -96
s-78.834 -69 -120.501 -105s-83.834 -70.667 -126.501 -104s-85.334 -64.5 -128.001 -93.5s-84.5 -53.667 -125.5 -74s-80.333 -35.5 -118 -45.5s-72.834 -12.667 -105.501 -8c-27.333 4 -47 19.833 -59 47.5s-17.5 63.334 -16.5 107.001s8.5 93.5 22.5 149.5
s33.5 114.667 58.5 176s55 123.166 90 185.499s74.5 121.833 118.5 178.5c-28.667 2.66699 -62.5 7.16699 -101.5 13.5s-79.167 15.166 -120.5 26.499s-82 25.333 -122 42s-75 36.834 -105 60.501s-52.833 50.834 -68.5 81.501s-20.167 65.667 -13.5 105
c-2 2.66699 -3 6.16699 -3 10.5s0.833008 8.83301 2.5 13.5s4.16699 8.66699 7.5 12s7 5 11 5zM1088.01 1006c-46 0.666992 -90.3291 -6.00195 -132.996 -20.002s-83.834 -34 -123.501 -60s-78 -57.5 -115 -94.5s-73.167 -77.5 -108.5 -121.5
c24 -1.33301 54.833 -1.66602 92.5 -0.999023s78.167 3.16699 121.5 7.5s87.166 10.833 131.499 19.5s85.166 20.334 122.499 35.001s69 32.667 95 54s42.333 47 49 77c3.33301 26.667 -5.83398 50.5 -27.501 71.5s-56.5 31.833 -104.5 32.5z" />
    <glyph glyph-name="D" unicode="D" horiz-adv-x="1841" 
d="M596 -30c8 14.667 21.1641 39.6602 39.4971 74.9932s39.5 76.666 63.5 123.999s49.333 99 76 155s51.834 112.5 75.501 169.5s44.334 112.333 62.001 166s29.834 102.167 36.501 145.5s6.16699 79.333 -1.5 108s-24.834 46.334 -51.501 53.001
c-22.667 5.33301 -53.834 4.83301 -93.501 -1.5s-83.834 -15.166 -132.501 -26.499s-100 -24 -154 -38s-107.167 -25.833 -159.5 -35.5s-101.666 -16 -147.999 -19s-86 0.666992 -119 11s-57.5 28.833 -73.5 55.5s-20 64.667 -12 114c-1.33301 2 -2.33301 5.5 -3 10.5
s-0.5 10.167 0.5 15.5s3 10 6 14s7.83301 6 14.5 6c7.33301 0 11.5 -2.16699 12.5 -6.5s0.5 -9.16602 -1.5 -14.499s-4.66699 -10.5 -8 -15.5s-5.66602 -7.83301 -6.99902 -8.5c-8 -46.667 -4.16699 -82.334 11.5 -107.001s39.667 -41.834 72 -51.501
s71.333 -12.834 117 -9.50098s94 9.83301 145 19.5s103.167 21.334 156.5 35.001s104.166 26.334 152.499 38.001s92.166 20.834 131.499 27.501s70.666 7.66699 93.999 3c34 -6.66699 58 -23.5 72 -50.5s20.5 -60.833 19.5 -101.5s-8 -86.5 -21 -137.5
s-29.667 -104 -50 -159s-42.833 -110.167 -67.5 -165.5s-49 -107.5 -73 -156.5s-46.333 -93.167 -67 -132.5s-37 -70.666 -49 -93.999c8 7.33301 17 18.666 27 33.999s20.167 32.333 30.5 51s20.833 38.167 31.5 58.5s20.167 39.166 28.5 56.499s15.5 32.333 21.5 45
s10 21 12 25c26 54 53.833 110.833 83.5 170.5s60.834 118.334 93.501 176.001s66.667 112.5 102 164.5s71.333 97.5 108 136.5s74.167 69.667 112.5 92s77.166 32.5 116.499 30.5c30 -1.33301 55.667 -10.666 77 -27.999s38.166 -40.833 50.499 -70.5
s20.5 -64.167 24.5 -103.5s4.16699 -81.666 0.5 -126.999s-11.167 -92.833 -22.5 -142.5s-26 -99.5 -44 -149.5c56.667 16 115.167 30.167 175.5 42.5s122.166 22.166 185.499 29.499l2 -14c-64.667 -7.33301 -127.834 -17.166 -189.501 -29.499
s-121.5 -27.166 -179.5 -44.499c-26 -69.333 -58 -136.166 -96 -200.499s-81.5 -121.166 -130.5 -170.499s-103 -88.833 -162 -118.5s-121.833 -43.834 -188.5 -42.501c-28 0 -51 4.5 -69 13.5s-31 20.833 -39 35.5s-10.833 31.5 -8.5 50.5s9.5 38.833 21.5 59.5
c16 27.333 37.833 54 65.5 80s59 50.833 94 74.5s72.5 46.334 112.5 68.001s80 41.5 120 59.5s79 34.333 117 49s72.333 27 103 37c18.667 50 34.334 100 47.001 150s22.167 98 28.5 144s9.33301 89.167 9 129.5s-4.5 75.333 -12.5 105s-19.667 53.334 -35 71.001
s-34.666 27.167 -57.999 28.5c-37.333 2 -74.666 -8 -111.999 -30s-74 -52.333 -110 -91s-71.333 -83.667 -106 -135s-68 -105.5 -100 -162.5s-62.833 -115.167 -92.5 -174.5s-57.167 -115.666 -82.5 -168.999c-3.33301 -6 -8.66602 -16.833 -15.999 -32.5
s-16 -33.5 -26 -53.5s-20.833 -41 -32.5 -63s-23.5 -42.5 -35.5 -61.5s-23.5 -35.333 -34.5 -49s-20.5 -21.834 -28.5 -24.501c-2 -0.666992 -5.66699 -0.833984 -11 -0.500977s-11.166 0.833008 -17.499 1.5s-12.166 1.5 -17.499 2.5s-8.66602 1.5 -9.99902 1.5z
M932.997 -130.007c56.667 -1.33301 110.502 11.6689 161.502 39.002s98 64 141 110s81.833 99.167 116.5 159.5s64.667 123.166 90 188.499c-29.333 -10 -62.5 -22 -99.5 -36s-75 -30.167 -114 -48.5s-78.167 -38 -117.5 -59s-76.166 -43.333 -110.499 -67
s-64.833 -48.167 -91.5 -73.5s-47.334 -51 -62.001 -77c-10.667 -18.667 -16.834 -36.334 -18.501 -53.001s1.16602 -31.167 8.49902 -43.5s19 -22 35 -29s36.333 -10.5 61 -10.5z" />
    <glyph glyph-name="E" unicode="E" horiz-adv-x="1211" 
d="M21 1072c4 0 6.83789 -1.83203 8.50488 -5.49902s2.16699 -8 1.5 -13s-2.33398 -9.83301 -5.00098 -14.5s-6 -8 -10 -10c-6.66699 -40.667 -0.666992 -76.667 18 -108s45.334 -58.5 80.001 -81.5s74.5 -42.5 119.5 -58.5s90.667 -29 137 -39s90.333 -17.5 132 -22.5
s76.5 -8.16699 104.5 -9.5c10.667 36.667 30.167 73.667 58.5 111s63.666 71 105.999 101s90.666 54.333 144.999 73s113.166 27.334 176.499 26.001c16.667 0 34.5 -2.66699 53.5 -8s36.5 -13 52.5 -23s28.833 -22.833 38.5 -38.5s13.5 -34.167 11.5 -55.5
c-4.66699 -29.333 -18.834 -54.666 -42.501 -75.999s-53.334 -39.5 -89.001 -54.5s-75.167 -27.167 -118.5 -36.5s-86.333 -16.666 -129 -21.999s-83.334 -8.83301 -122.001 -10.5s-71 -2.16699 -97 -1.5c-6.66699 -19.333 -10 -37.833 -10 -55.5s3.83301 -33.5 11.5 -47.5
s19.5 -26 35.5 -36s37 -17.333 63 -22v-13c-54.667 -2.66699 -105.167 -14.334 -151.5 -35.001s-88.333 -46.667 -126 -78s-70.5 -66.5 -98.5 -105.5s-50.833 -78.667 -68.5 -119s-30 -79.666 -37 -117.999s-8.16699 -72.333 -3.5 -102s15.334 -53.334 32.001 -71.001
s40 -26.167 70 -25.5c28.667 0.666992 60 7.66699 94 21s70 31 108 53s77.333 47.667 118 77s81.5 60.333 122.5 93s81.5 66 121.5 100s78.5 67 115.5 99s72 62 105 90s62.833 52.333 89.5 73l8 -11c-36 -28 -77.5 -62.167 -124.5 -102.5s-96.667 -83 -149 -128
s-106.166 -89.833 -161.499 -134.5s-109.666 -85 -162.999 -121s-104.5 -65.333 -153.5 -88s-92.833 -34.334 -131.5 -35.001c-38 -0.666992 -68.5 7.83301 -91.5 25.5s-39.333 41.5 -49 71.5s-12.667 64.333 -9 103s13 78.667 28 120s35.833 82.166 62.5 122.499
s58.334 77.333 95.001 111s78.167 62 124.5 85s96.833 37.5 151.5 43.5c-35.333 14 -58.833 35.5 -70.5 64.5s-13.5 61.5 -5.5 97.5c-29.333 1.33301 -65.5 4.66602 -108.5 9.99902s-88 13.166 -135 23.499s-93.333 23.833 -139 40.5s-85.834 37.167 -120.501 61.5
s-61.334 52.833 -80.001 85.5s-24.334 70.334 -17.001 113.001c-2 2.66699 -3 6.16699 -3 10.5s0.833008 8.83301 2.5 13.5s4.16699 8.66699 7.5 12s7 5 11 5zM1222 901.001c2 18 -0.336914 33.5 -7.00391 46.5s-16.167 23.667 -28.5 32s-26.666 14.666 -42.999 18.999
s-33.166 6.83301 -50.499 7.5c-29.333 0.666992 -59 -2.83301 -89 -10.5s-59.667 -18.667 -89 -33s-57.5 -31.166 -84.5 -50.499s-51.833 -40.166 -74.5 -62.499s-42.667 -45.5 -60 -69.5s-30.666 -47.667 -39.999 -71c24.667 -0.666992 55 -0.166992 91 1.5
s74.167 5 114.5 10s80.833 12 121.5 21s77.834 20.667 111.501 35s62 31.666 85 51.999s37.167 44.5 42.5 72.5z" />
    <glyph glyph-name="F" unicode="F" horiz-adv-x="1200" 
d="M457 438c3.33301 14.667 11.8291 25.6748 25.4961 33.0078s30 12.333 49 15s39.833 3.16699 62.5 1.5s44.667 -3.83398 66 -6.50098s41 -5.66699 59 -9s32 -5.66602 42 -6.99902c19.333 56.667 39.666 112.167 60.999 166.5s45 105.166 71 152.499
c-52 -4.66699 -105.167 -10.834 -159.5 -18.501s-108.333 -18 -162 -31s-106.334 -29.5 -158.001 -49.5s-100.667 -44.5 -147 -73.5s-89.333 -63.333 -129 -103s-74.5 -85.834 -104.5 -138.501c0.666992 -3.33301 0.666992 -7.16602 0 -11.499s-2.16699 -8.33301 -4.5 -12
s-5.16602 -6.83398 -8.49902 -9.50098s-7 -3.66699 -11 -3c-4.66699 0.666992 -7.5 3.16699 -8.5 7.5s-0.666992 9 1 14s4.33398 9.66699 8.00098 14s7.83398 6.83301 12.501 7.5c30.667 54 66.334 101.333 107.001 142s84.667 75.834 132 105.501s97.333 54.5 150 74.5
s106.5 36.667 161.5 50s110.333 23.833 166 31.5s109.834 13.834 162.501 18.501c20 34.667 41.333 66.5 64 95.5s47.334 54.167 74.001 75.5s55.334 38.166 86.001 50.499s63.667 19.166 99 20.499c36 1.33301 68.5 -2.83398 97.5 -12.501s50.667 -22.5 65 -38.5
s18.833 -34.167 13.5 -54.5s-24.5 -40 -57.5 -59s-81.833 -36.5 -146.5 -52.5s-149.667 -28 -255 -36c-25.333 -48 -48.833 -100.167 -70.5 -156.5s-42.5 -113.833 -62.5 -172.5c36 -4.66699 72 -8.33398 108 -11.001s68.5 -2.83398 97.5 -0.500977s52.5 7.5 70.5 15.5
s27.333 20.667 28 38h12c5.33301 0 7.33301 -4 6 -12c-4 -17.333 -16.333 -30 -37 -38s-46.334 -13.167 -77.001 -15.5s-64.5 -2.33301 -101.5 0s-73.833 5.83301 -110.5 10.5c-24 -72 -48 -142.667 -72 -212s-49.667 -131.333 -77 -186s-57.5 -99.167 -90.5 -133.5
s-70.833 -52.5 -113.5 -54.5c-33.333 -2.66699 -61.666 1.66602 -84.999 12.999s-41.333 26.666 -54 45.999s-19.667 41.333 -21 66s3.66699 49.5 15 74.5s29.5 49 54.5 72s57.5 42.167 97.5 57.5c1.33301 3.33301 3.66602 6.5 6.99902 9.5s7.16602 5.33301 11.499 7
s8.66602 2.5 12.999 2.5s7.83301 -1.33301 10.5 -4c3.33301 -3.33301 4 -7 2 -11s-5.16699 -7.5 -9.5 -10.5s-9.16602 -5.16699 -14.499 -6.5s-10 -1 -14 1c-37.333 -14.667 -67.833 -32.5 -91.5 -53.5s-41.167 -43.167 -52.5 -66.5s-16.666 -46.333 -15.999 -69
s6.66699 -43 18 -61s27.833 -32 49.5 -42s47.834 -14 78.501 -12c34.667 3.33301 65.667 22 93 56s52.666 78 75.999 132s46 115 68 183s45 137.667 69 209c-8 0.666992 -20.5 2.66699 -37.5 6s-35.833 6.33301 -56.5 9s-42 4.66699 -64 6s-42 1 -60 -1
s-32.833 -6.66699 -44.5 -14s-17.5 -18.333 -17.5 -33h-13c-5.33301 0 -7.33301 4 -6 12zM1224 1027.01c-30 -1.33301 -57.8311 -7.83301 -83.498 -19.5s-49.834 -27.334 -72.501 -47.001s-44 -43 -64 -70s-38.667 -56.5 -56 -88.5c94 8 170.667 19.5 230 34.5
s104.666 31.333 135.999 49s50.333 35.334 57 53.001s4.66699 33.5 -6 47.5s-28.667 25 -54 33s-54.333 10.667 -87 8z" />
    <glyph glyph-name="G" unicode="G" horiz-adv-x="1232" 
d="M890 256c13.333 32 24.502 63 33.502 93s15.167 57.667 18.5 83c-46 -13.333 -85.667 -21.666 -119 -24.999s-64.333 -3.66602 -93 -0.999023c-42 4 -75.333 15 -100 33s-42 40.333 -52 67s-13.167 56.667 -9.5 90s12.834 67.666 27.501 102.999
c-28.667 1.33301 -64.334 4.5 -107.001 9.5s-87.167 12.667 -133.5 23s-92.166 23.833 -137.499 40.5s-85.166 37.167 -119.499 61.5s-60.666 52.833 -78.999 85.5s-23.833 70.334 -16.5 113.001c-2 2.66699 -2.83301 6.33398 -2.5 11.001s1.5 9.16699 3.5 13.5
s4.5 8 7.5 11s6.5 4.5 10.5 4.5c4.66699 0 7.66699 -2 9 -6s1.66602 -8.5 0.999023 -13.5s-2.5 -10 -5.5 -15s-6.5 -8.16699 -10.5 -9.5c-6.66699 -40.667 -0.666992 -76.667 18 -108s45.167 -58.5 79.5 -81.5s74 -42.333 119 -58s90.333 -28.334 136 -38.001
s89.167 -16.834 130.5 -21.501s75.666 -7.66699 102.999 -9c18.667 40.667 43.834 80.834 75.501 120.501s68 75.167 109 106.5s86.167 56.833 135.5 76.5s100.666 29.834 153.999 30.501c38.667 0 70.5 -7.66699 95.5 -23s41.667 -34.333 50 -57s8 -47.5 -1 -74.5
s-28.5 -52.167 -58.5 -75.5c-21.333 -16.667 -46 -31 -74 -43s-57.833 -22.5 -89.5 -31.5s-64 -16.5 -97 -22.5s-64.833 -10.667 -95.5 -14s-59.167 -5.66602 -85.5 -6.99902s-48.833 -1.66602 -67.5 -0.999023c-13.333 -29.333 -23.166 -58 -29.499 -86
s-7.5 -53.667 -3.5 -77s13.667 -43.5 29 -60.5s37.666 -29.333 66.999 -37s66.666 -9.66699 111.999 -6s100 14.5 164 32.5c-8 -61.333 -23.667 -122.666 -47 -183.999c57.333 25.333 112.166 54.166 164.499 86.499s103.5 68.166 153.5 107.499l8 -11
c-52 -40.667 -105.333 -77.667 -160 -111s-112.334 -63 -173.001 -89c-21.333 -51.333 -47.5 -100.666 -78.5 -147.999s-66 -89.333 -105 -126s-81 -66.834 -126 -90.501s-92.167 -37.834 -141.5 -42.501c-33.333 -3.33301 -57.666 0.666992 -72.999 12
s-23.333 26.166 -24 44.499s5.16602 38.166 17.499 59.499s29.5 40.333 51.5 57c30.667 23.333 63.667 45.666 99 66.999s71.5 41.5 108.5 60.5s74.5 37 112.5 54s75 32.5 111 46.5zM1075 1029c-37.333 0 -76 -9.16699 -116 -27.5s-78.833 -42.5 -116.5 -72.5
s-72.5 -64.167 -104.5 -102.5s-58.333 -77.166 -79 -116.499c16.667 0 37.667 0.666992 63 2s53 3.66602 83 6.99902s61.167 7.83301 93.5 13.5s63.833 13 94.5 22s59.5 19.667 86.5 32s49.833 26.833 68.5 43.5c22 20 36.5 41.5 43.5 64.5s7 44.5 0 64.5
s-20.5 36.667 -40.5 50s-45.333 20 -76 20zM882.002 239c-33.333 -12.667 -68.333 -27.335 -105 -44.002s-73.334 -34.5 -110.001 -53.5s-72.167 -39 -106.5 -60s-65.5 -42.167 -93.5 -63.5c-18 -14 -33 -30.167 -45 -48.5s-18.333 -35.5 -19 -51.5s5.33301 -29 18 -39
s34.334 -13.667 65.001 -11c42 4 82.5 17.333 121.5 40s75.5 51.334 109.5 86.001s65 73.334 93 116.001s52 85.667 72 129z" />
    <glyph glyph-name="H" unicode="H" horiz-adv-x="1246" 
d="M1065 -118c13.333 -1.33301 26.165 1.65625 38.498 8.98926s23.166 16 32.499 26l10 -9c-10 -11.333 -22.167 -21 -36.5 -29s-29.5 -11.667 -45.5 -11c-28.667 1.33301 -50.667 11.5 -66 30.5s-25.666 43.833 -30.999 74.5s-6.33301 65.5 -3 104.5
s9.16602 79.5 17.499 121.5s18.333 84 30 126s23.334 80.833 35.001 116.5s22.5 67 32.5 94s17.667 46.5 23 58.5c-80.667 -65.333 -161.834 -129.166 -243.501 -191.499s-162.834 -126.5 -243.501 -192.5c-4 -8.66699 -9.66699 -21 -17 -37s-15.833 -33.167 -25.5 -51.5
s-20.334 -37 -32.001 -56s-24 -36.167 -37 -51.5s-26.333 -27.666 -40 -36.999s-27.167 -13.666 -40.5 -12.999c-16.667 3.33301 -25.5 10.5 -26.5 21.5s2.33301 23.5 10 37.5s18.334 28.833 32.001 44.5s27.334 30 41.001 43s25.5 23.833 35.5 32.5
s15.333 13.334 16 14.001c22.667 47.333 46.667 99.333 72 156s49.333 113.834 72 171.501s42.5 114 59.5 169s28.333 104.5 34 148.5s4.33398 80.667 -3.99902 110s-26.166 47.333 -53.499 54s-59 7.5 -95 2.5s-74.167 -12.667 -114.5 -23s-81.5 -21.833 -123.5 -34.5
s-82.5 -23.5 -121.5 -32.5s-75.333 -15 -109 -18s-62.334 0.166992 -86.001 9.5s-41 26.333 -52 51s-13.167 59.667 -6.5 105c-1.33301 2 -2.16602 5.5 -2.49902 10.5s0 10.167 1 15.5s3 10 6 14s7.83301 6 14.5 6s10.5 -2.16699 11.5 -6.5s0.5 -9.16602 -1.5 -14.499
s-4.66699 -10.5 -8 -15.5s-5.66602 -7.83301 -6.99902 -8.5c-6.66699 -43.333 -4.66699 -76.5 6 -99.5s27.334 -38.667 50.001 -47s50.334 -10.666 83.001 -6.99902s68 10.334 106 20.001s77.667 20.834 119 33.501s82 24.167 122 34.5s78 18 114 23s68 4.16699 96 -2.5
c32.667 -7.33301 56.167 -24.166 70.5 -50.499s22.166 -59 23.499 -98s-3.16699 -82.833 -13.5 -131.5s-24.166 -99.5 -41.499 -152.5s-36.833 -106.167 -58.5 -159.5s-43.5 -104.333 -65.5 -153c80.667 65.333 161.5 129.333 242.5 192s161.833 126.334 242.5 191.001
c26 57.333 53.167 111.5 81.5 162.5s56.666 95.5 84.999 133.5s55.666 68 81.999 90s50.166 33 71.499 33c21.333 -2 34.333 -8.66699 39 -20s3.5 -25.833 -3.5 -43.5s-18.667 -37.5 -35 -59.5s-34.833 -44.333 -55.5 -67s-42 -45 -64 -67s-42.5 -41.833 -61.5 -59.5
s-34.833 -32.167 -47.5 -43.5s-20 -17.666 -22 -18.999c-4.66699 -10 -12.667 -28.667 -24 -56s-24.166 -59.833 -38.499 -97.5s-29.166 -79.167 -44.499 -124.5s-29.333 -91 -42 -137s-23 -90.5 -31 -133.5s-11.667 -81.333 -11 -115s6.66699 -60.834 18 -81.501
s29.666 -31.667 54.999 -33zM1432 1024.99c-12 0 -26.833 -8.49902 -44.5 -25.499s-37 -40.667 -58 -71s-42.833 -66 -65.5 -107s-45.334 -85.167 -68.001 -132.5c17.333 15.333 37.333 33.833 60 55.5s45.5 44.5 68.5 68.5s44.5 47.833 64.5 71.5s35.833 45.5 47.5 65.5
s17.834 36.667 18.501 50s-7 21.666 -23 24.999zM516.999 125.99c-1.33301 -1.33301 -6 -5.66602 -14 -12.999s-17.167 -16.333 -27.5 -27s-20.666 -22.167 -30.999 -34.5s-18.666 -23.666 -24.999 -33.999s-9.33301 -19 -9 -26s6.16602 -10.5 17.499 -10.5
c7.33301 0 15.166 5.5 23.499 16.5s16.5 24.167 24.5 39.5s15.5 31.166 22.5 47.499s13.167 30.166 18.5 41.499z" />
    <glyph glyph-name="I" unicode="I" horiz-adv-x="772" 
d="M33 481c2 -6.66699 0.327148 -14.4922 -5.00586 -23.4922s-11.666 -12.833 -18.999 -11.5c-4.66699 0.666992 -7.5 3.16699 -8.5 7.5s-0.666992 9 1 14s4.33398 9.66699 8.00098 14s7.83398 6.5 12.501 6.5c38 54 82.5 97.667 133.5 131s105.333 60.666 163 81.999
s117.334 38.5 179.001 51.5s122.5 26.167 182.5 39.5c16 36 32.333 69 49 99s33.167 55.667 49.5 77s33 37.666 50 48.999s34.167 16.666 51.5 15.999c20.667 -1.33301 36.167 -7.16602 46.5 -17.499s16.333 -23 18 -38s-0.333008 -30.833 -6 -47.5
s-14.5 -31.334 -26.5 -44.001c-11.333 -12.667 -24.666 -24.167 -39.999 -34.5s-31.333 -19.5 -48 -27.5s-33.5 -15 -50.5 -21s-32.833 -11 -47.5 -15c-22.667 -56.667 -46 -119 -70 -187s-48.833 -136.333 -74.5 -205s-52.5 -135.334 -80.5 -200.001
s-57.167 -122 -87.5 -172s-61.833 -90 -94.5 -120s-66.667 -44.667 -102 -44c-30 0 -52.5 9.16699 -67.5 27.5s-23 41.833 -24 70.5s4.5 60.5 16.5 95.5s29.667 69.333 53 103s52 64.834 86 93.501s72.333 51 115 67c0.666992 3.33301 2.83398 6.5 6.50098 9.5
s7.66699 5.33301 12 7s8.66602 2.33398 12.999 2.00098s7.83301 -1.83301 10.5 -4.5c3.33301 -3.33301 4 -6.83301 2 -10.5s-5 -7 -9 -10s-8.66699 -5.16699 -14 -6.5s-10 -1 -14 1c-40 -14.667 -76.167 -35.334 -108.5 -62.001s-60 -55.834 -83 -87.501
s-40.833 -64 -53.5 -97s-19.167 -63.167 -19.5 -90.5s5.83398 -49.833 18.501 -67.5s33 -26.834 61 -27.501c26.667 -0.666992 52.834 13.166 78.501 41.499s51.167 66.333 76.5 114s50.5 102.834 75.5 165.501s50 127.5 75 194.5s49.833 134 74.5 201
s49.667 129.167 75 186.5c-58 -12.667 -117 -25.334 -177 -38.001s-118.167 -29.334 -174.5 -50.001s-109.333 -47.334 -159 -80.001s-92.834 -75 -129.501 -127zM880.994 1020.01c-12 0.666992 -23.999 -4.16602 -35.999 -14.499s-24.167 -25 -36.5 -44
s-24.833 -41.833 -37.5 -68.5s-25.667 -56.334 -39 -89.001c13.333 3.33301 28 7.83301 44 13.5s31.667 12.5 47 20.5s30.166 16.833 44.499 26.5s26.833 20.5 37.5 32.5c8.66699 10.667 15.667 22.667 21 36s7.5 26.333 6.5 39s-5.5 23.5 -13.5 32.5
s-20.667 14.167 -38 15.5z" />
    <glyph glyph-name="J" unicode="J" horiz-adv-x="937" 
d="M163 -213c-38.667 -1.33301 -69.8369 4.17578 -93.5039 16.5088s-41.167 28.5 -52.5 48.5s-16.833 42.667 -16.5 68s5.5 50.833 15.5 76.5s24.167 50.334 42.5 74.001s40.166 43.5 65.499 59.5c27.333 17.333 57.333 31.666 90 42.999s66 21.166 100 29.499
s67.833 15.833 101.5 22.5s65.167 13.667 94.5 21c16.667 43.333 33.5 88 50.5 134s34 91.833 51 137.5s34 90.5 51 134.5s34.167 85.333 51.5 124c-58 -12.667 -117.167 -25.334 -177.5 -38.001s-118.5 -29.334 -174.5 -50.001s-108.833 -47.334 -158.5 -80.001
s-92.834 -75 -129.501 -127c1.33301 -6.66699 -0.666992 -14.5 -6 -23.5s-11.666 -12.833 -18.999 -11.5c-4.66699 0.666992 -7.33398 3.16699 -8.00098 7.5s-0.333984 9 0.999023 14s3.83301 9.66699 7.5 14s7.83398 6.5 12.501 6.5c38 54 82.5 97.667 133.5 131
s105.333 60.666 163 81.999s117.334 38.5 179.001 51.5s122.5 26.167 182.5 39.5c16 36 32.333 69 49 99s33.167 55.667 49.5 77s33 37.666 50 48.999s34.167 16.666 51.5 15.999c20.667 -1.33301 36.167 -7.16602 46.5 -17.499s16.5 -23 18.5 -38
s0.166992 -30.833 -5.5 -47.5s-14.5 -31.334 -26.5 -44.001c-11.333 -12.667 -24.666 -24.167 -39.999 -34.5s-31.5 -19.5 -48.5 -27.5s-34 -15 -51 -21s-32.833 -11 -47.5 -15c-15.333 -37.333 -30.666 -77.5 -45.999 -120.5s-31.166 -87.167 -47.499 -132.5
s-33.166 -91 -50.499 -137s-35 -91 -53 -135c62.667 18 127 43.167 193 75.5s134.667 77.166 206 134.499l8 -11c-73.333 -60 -144.666 -106.333 -213.999 -139s-135.666 -58 -198.999 -76c-12 -28.667 -25.833 -59.834 -41.5 -93.501s-33 -67.5 -52 -101.5
s-39.667 -66.833 -62 -98.5s-46.333 -59.667 -72 -84s-52.834 -44 -81.501 -59s-59 -22.833 -91 -23.5zM503.997 231.009c-28 -7.33301 -58.166 -13.999 -90.499 -19.999s-65 -13 -98 -21s-65.167 -17.5 -96.5 -28.5s-60 -24.833 -86 -41.5
c-23.333 -14.667 -43.833 -33 -61.5 -55s-31.5 -45 -41.5 -69s-15.5 -47.833 -16.5 -71.5s3.33301 -44.834 13 -63.501s25.667 -33.667 48 -45s51.5 -16.666 87.5 -15.999c27.333 1.33301 53.666 9.83301 78.999 25.5s49 35.5 71 59.5s42.667 51.167 62 81.5
s37 61.166 53 92.499s30.5 62 43.5 92s24.167 56.667 33.5 80zM920.998 1020.01c-12 0.666992 -24 -4.16602 -36 -14.499s-24.167 -25 -36.5 -44s-24.833 -41.833 -37.5 -68.5s-25.667 -56.334 -39 -89.001c13.333 3.33301 28 7.83301 44 13.5s31.833 12.5 47.5 20.5
s30.667 16.833 45 26.5s26.5 20.5 36.5 32.5c8.66699 10.667 15.667 22.667 21 36s7.5 26.333 6.5 39s-5.5 23.5 -13.5 32.5s-20.667 14.167 -38 15.5z" />
    <glyph glyph-name="K" unicode="K" horiz-adv-x="1249" 
d="M1361 -176c-34.667 -10 -64.832 -12.3291 -90.499 -6.99609s-48.334 16 -68.001 32s-37.334 36.5 -53.001 61.5s-31.167 52.333 -46.5 82s-31.166 60.834 -47.499 93.501s-34.833 64.834 -55.5 96.501s-44.667 61.667 -72 90s-59.666 53.166 -96.999 74.499
c-24 -54 -48.5 -106.667 -73.5 -158s-48.5 -98.166 -70.5 -140.499s-41.5 -79.166 -58.5 -110.499s-29.167 -54 -36.5 -68l-55 7c6.66699 13.333 18.667 36 36 68s37.5 70.167 60.5 114.5s47.833 93.166 74.5 146.499s53 108 79 164
c-19.333 8.66699 -40.166 16.167 -62.499 22.5s-46.166 11.166 -71.499 14.499l1 13c26 2.66699 53.5 7.16699 82.5 13.5s58.833 14.833 89.5 25.5c26.667 61.333 50.167 121 70.5 179s35 110.333 44 157s10.5 85.167 4.5 115.5s-22.333 48.833 -49 55.5
c-22.667 5.33301 -53.834 4.83301 -93.501 -1.5s-83.834 -15.166 -132.501 -26.499s-100 -24 -154 -38s-107.167 -25.833 -159.5 -35.5s-101.666 -16 -147.999 -19s-86 0.666992 -119 11s-57.5 28.833 -73.5 55.5s-20 64.667 -12 114c-1.33301 2 -2.33301 5.5 -3 10.5
s-0.5 10.167 0.5 15.5s3 10 6 14s7.83301 6 14.5 6c7.33301 0 11.5 -2.16699 12.5 -6.5s0.5 -9.16602 -1.5 -14.499s-4.66699 -10.5 -8 -15.5s-5.66602 -7.83301 -6.99902 -8.5c-8 -46.667 -4.16699 -82.334 11.5 -107.001s39.667 -41.834 72 -51.501
s71.333 -12.834 117 -9.50098s94 9.83301 145 19.5s103.167 21.334 156.5 35.001s104.166 26.334 152.499 38.001s92.166 20.834 131.499 27.501s70.666 7.66699 93.999 3c22.667 -4.66699 40.5 -14.5 53.5 -29.5s21.833 -34.167 26.5 -57.5s5.66699 -50.333 3 -81
s-8.16699 -63.834 -16.5 -99.501s-19.166 -73.167 -32.499 -112.5s-28 -79.333 -44 -120c60 25.333 120 56.666 180 93.999s115 79.333 165 126s93.167 96.834 129.5 150.501s61.166 109.167 74.499 166.5c7.33301 1.33301 11.333 0.166016 12 -3.50098
s0.666992 -6.16699 0 -7.5c-7.33301 -36.667 -21 -73.334 -41 -110.001s-44.333 -72.834 -73 -108.501s-61 -70.167 -97 -103.5s-74 -64.5 -114 -93.5s-81 -55.333 -123 -79s-83.667 -43.834 -125 -60.501l-32 -76c56 -25.333 102.167 -57.666 138.5 -96.999
s67 -80.833 92 -124.5s46.667 -86.834 65 -129.501s37.166 -79.834 56.499 -111.501s41.333 -55.334 66 -71.001s56.334 -18.167 95.001 -7.5zM814.002 431.004c-14 -4 -27.832 -7.66699 -41.499 -11s-27.167 -6 -40.5 -8c11.333 -2 22.5 -4.5 33.5 -7.5
s21.833 -6.16699 32.5 -9.5c3.33301 6 6.16602 12 8.49902 18s4.83301 12 7.5 18z" />
    <glyph glyph-name="L" unicode="L" horiz-adv-x="921" 
d="M1212 -50c-22 -38.667 -49.3271 -65.6729 -81.9941 -81.0059s-69.167 -22.833 -109.5 -22.5s-83.333 7.16602 -129 20.499s-92.167 29.333 -139.5 48s-94.833 38.834 -142.5 60.501s-93.5 40.834 -137.5 57.501c-31.333 -56 -63.666 -98.5 -96.999 -127.5
s-69 -44.167 -107 -45.5c-28.667 -0.666992 -52.334 4 -71.001 14s-32.667 22.833 -42 38.5s-13.833 33.167 -13.5 52.5s5.5 37.833 15.5 55.5s24.667 33.5 44 47.5s43.333 23.667 72 29c25.333 4.66699 53 5.33398 83 2.00098s61.333 -9.66602 94 -18.999
c14.667 33.333 29.5 69.666 44.5 108.999s30 80 45 122s29.833 84.5 44.5 127.5s29.667 84.833 45 125.5c-41.333 -5.33301 -81.5 -9.66602 -120.5 -12.999s-76.833 -7.5 -113.5 -12.5s-71.834 -12.167 -105.501 -21.5s-65.667 -23 -96 -41s-59 -41.333 -86 -70
s-51.833 -65 -74.5 -109c1.33301 -3.33301 1.5 -7.16602 0.5 -11.499s-2.66699 -8.5 -5 -12.5s-5.33301 -7.33301 -9 -10s-7.5 -3.66699 -11.5 -3s-6.5 3 -7.5 7s-0.666992 8.5 1 13.5s4.16699 9.5 7.5 13.5s7.33301 6.66699 12 8c23.333 46 48.833 83.833 76.5 113.5
s57.167 53.834 88.5 72.501s64.333 32.667 99 42s70.667 16.666 108 21.999s76.166 9.5 116.499 12.5s81.833 7.5 124.5 13.5c23.333 64 46.5 123 69.5 177s46.167 100.5 69.5 139.5s47 69.333 71 91s48.667 32.5 74 32.5c36 -0.666992 62.833 -10.5 80.5 -29.5
s27 -43 28 -72s-5.83301 -61 -20.5 -96s-36.5 -68.833 -65.5 -101.5s-64.833 -62.167 -107.5 -88.5s-91 -45.166 -145 -56.499c-14.667 -42.667 -29.834 -86.5 -45.501 -131.5s-31.667 -89.5 -48 -133.5s-33 -86.5 -50 -127.5s-34.5 -78.833 -52.5 -113.5
c46 -14.667 93.5 -32.167 142.5 -52.5s97.5 -39.833 145.5 -58.5s94.167 -35 138.5 -49s85.166 -22.333 122.499 -25s70.166 2 98.499 14s50.166 34.667 65.499 68c2 0 4.5 -1.16699 7.5 -3.5s2.83301 -6.16602 -0.5 -11.499zM919.006 1003.99
c-18 0 -35.8389 -10.166 -53.5059 -30.499s-35.667 -49 -54 -86s-37.166 -80.833 -56.499 -131.5s-39.666 -106.334 -60.999 -167.001c52 12 97.5 30.5 136.5 55.5s71.333 52.833 97 83.5s44.834 62.167 57.501 94.5s18.834 61.833 18.501 88.5s-7.66602 48.667 -21.999 66
s-35.166 26.333 -62.499 27zM434 46.9951c-30 10.667 -58.333 18.6641 -85 23.9971s-51.667 7 -75 5c-26 -2 -47.667 -8.5 -65 -19.5s-30.5 -24.167 -39.5 -39.5s-13.667 -31.666 -14 -48.999s3.5 -33.166 11.5 -47.499s20.667 -26.166 38 -35.499s39 -13.333 65 -12
c28 1.33301 55.667 16.833 83 46.5s54.333 72.167 81 127.5z" />
    <glyph glyph-name="M" unicode="M" horiz-adv-x="2325" 
d="M2362 462c-21.333 -16.667 -48.8301 -40.0078 -82.4971 -70.0078s-70.667 -62.333 -111 -97s-82.166 -70 -125.499 -106s-84.666 -68.5 -123.999 -97.5s-75.333 -52.333 -108 -70s-58.334 -25.834 -77.001 -24.501c-24 2 -38.5 12.5 -43.5 31.5s-3.16699 44.167 5.5 75.5
s22.667 67.666 42 108.999s41 85.166 65 131.499s48.833 94 74.5 143s49.334 96.667 71.001 143s40 90.333 55 132s23.667 78.5 26 110.5s-3.16699 58 -16.5 78s-37.333 31.333 -72 34c-36 2 -74.167 -6.66699 -114.5 -26s-81.5 -46.5 -123.5 -81.5
s-84.333 -75.833 -127 -122.5s-84.167 -96.334 -124.5 -149.001s-79.166 -106.5 -116.499 -161.5s-71.666 -107.833 -102.999 -158.5c-2 -6 -7.33301 -18.167 -16 -36.5s-18.834 -39.833 -30.501 -64.5s-24.167 -50.334 -37.5 -77.001s-26.166 -51.167 -38.499 -73.5
s-23.166 -40.333 -32.499 -54s-16 -19.834 -20 -18.501c-4.66699 1.33301 -6.16699 6.33301 -4.5 15s5.16699 19.5 10.5 32.5s11.833 27 19.5 42s15.167 29.167 22.5 42.5s13.833 24.833 19.5 34.5s9.16699 15.834 10.5 18.501c11.333 29.333 22.5 60.166 33.5 92.499
s20.833 64.333 29.5 96s15.5 61.834 20.5 90.501s7 54.167 6 76.5s-5.33301 40.5 -13 54.5s-20.167 21.667 -37.5 23c-28 0.666992 -55.667 -6.5 -83 -21.5s-54 -35.5 -80 -61.5s-51.333 -56.167 -76 -90.5s-48.334 -69.666 -71.001 -105.999s-44 -72.666 -64 -108.999
s-38.667 -69.666 -56 -99.999s-32.833 -56.333 -46.5 -78s-25.167 -36.5 -34.5 -44.5c-3.33301 -3.33301 -7.83301 -5.16602 -13.5 -5.49902s-11.834 -0.166016 -18.501 0.500977s-13.167 1.66699 -19.5 3s-11.5 2.33301 -15.5 3c8 14.667 21.333 39.667 40 75
s40 76.666 64 123.999s49.333 99 76 155s51.667 112.5 75 169.5s44 112.333 62 166s30.167 102.167 36.5 145.5s5.83301 79.333 -1.5 108s-24.666 46.334 -51.999 53.001c-22.667 5.33301 -53.834 4.83301 -93.501 -1.5s-83.834 -15.166 -132.501 -26.499s-100 -24 -154 -38
s-107.167 -25.833 -159.5 -35.5s-101.666 -16 -147.999 -19s-86 0.666992 -119 11s-57.5 28.833 -73.5 55.5s-20 64.667 -12 114c-1.33301 2 -2.33301 5.5 -3 10.5s-0.5 10.167 0.5 15.5s3 10 6 14s7.83301 6 14.5 6c7.33301 0 11.5 -2.16699 12.5 -6.5
s0.5 -9.16602 -1.5 -14.499s-4.66699 -10.5 -8 -15.5s-5.66602 -7.83301 -6.99902 -8.5c-8 -46.667 -4.16699 -82.334 11.5 -107.001s39.667 -41.834 72 -51.501s71.333 -12.834 117 -9.50098s94 9.83301 145 19.5s103.167 21.334 156.5 35.001
s104.166 26.334 152.499 38.001s92.166 20.834 131.499 27.501s70.666 7.66699 93.999 3c34.667 -6.66699 59 -23.5 73 -50.5s20.5 -61 19.5 -102s-8 -87.167 -21 -138.5s-29.667 -104.333 -50 -159s-42.833 -109.5 -67.5 -164.5s-48.834 -106.667 -72.501 -155
s-45.5 -91.5 -65.5 -129.5s-35.667 -67.667 -47 -89c7.33301 5.33301 17.166 18.333 29.499 39s26.666 46 42.999 76s34.666 63.333 54.999 100s42 73.5 65 110.5s47.333 72.833 73 107.5s52 65 79 91s54.667 46.5 83 61.5s56.833 21.5 85.5 19.5s50.334 -10.333 65.001 -25
s24.167 -33.667 28.5 -57s4.16602 -50.166 -0.500977 -80.499s-12 -61.833 -22 -94.5c32 50 66.667 101.5 104 154.5s75.833 104.5 115.5 154.5s80.167 97 121.5 141s82.5 82.167 123.5 114.5s81 57.5 120 75.5s76.167 26 111.5 24c43.333 -2.66699 75.166 -14 95.499 -34
s32 -46.167 35 -78.5s-1.16699 -69.666 -12.5 -111.999s-27.166 -87.166 -47.499 -134.499s-43.333 -95.666 -69 -144.999s-51.5 -97.5 -77.5 -144.5s-50.333 -91.333 -73 -133s-41.167 -78.167 -55.5 -109.5s-22.833 -56.5 -25.5 -75.5s3.33301 -28.833 18 -29.5
c17.333 -1.33301 42 7 74 25s67.5 41.5 106.5 70.5s80 61.333 123 97s84.5 70.834 124.5 105.501s76.667 66.834 110 96.501s60.333 52.5 81 68.5z" />
    <glyph glyph-name="N" unicode="N" horiz-adv-x="1951" 
d="M596 -30c8 14.667 21.334 39.667 40.001 75s40 76.666 64 123.999s49.333 99 76 155s51.667 112.5 75 169.5s44 112.333 62 166s30.167 102.167 36.5 145.5s5.83301 79.333 -1.5 108s-24.666 46.334 -51.999 53.001c-22.667 5.33301 -53.834 4.83301 -93.501 -1.5
s-83.834 -15.166 -132.501 -26.499s-100 -24 -154 -38s-107.167 -25.833 -159.5 -35.5s-101.666 -16 -147.999 -19s-86 0.666992 -119 11s-57.5 28.833 -73.5 55.5s-20 64.667 -12 114c-1.33301 2 -2.33301 5.5 -3 10.5s-0.5 10.167 0.5 15.5s3 10 6 14s7.83301 6 14.5 6
c7.33301 0 11.5 -2.16699 12.5 -6.5s0.5 -9.16602 -1.5 -14.499s-4.66699 -10.5 -8 -15.5s-5.66602 -7.83301 -6.99902 -8.5c-8 -46.667 -4.16699 -82.334 11.5 -107.001s39.667 -41.834 72 -51.501s71.333 -12.834 117 -9.50098s94 9.83301 145 19.5
s103.167 21.334 156.5 35.001s104.166 26.334 152.499 38.001s92.166 20.834 131.499 27.501s70.666 7.66699 93.999 3c34 -6.66699 58 -23.667 72 -51s20.5 -61.5 19.5 -102.5s-8.33301 -87.5 -22 -139.5s-30.667 -105.667 -51 -161s-43 -110.833 -68 -166.5
s-49.5 -108 -73.5 -157s-46.167 -93 -66.5 -132s-36.5 -69.5 -48.5 -91.5c24.667 30 51.5 67.833 80.5 113.5s59.5 95.834 91.5 150.501s65.833 111.667 101.5 171s72.667 117.666 111 174.999s78.333 111.833 120 163.5s84.5 96.5 128.5 134.5s89.333 67.667 136 89
s94.667 30.666 144 27.999c43.333 -2.66699 75.166 -14 95.499 -34s32.166 -46.167 35.499 -78.5s-0.833984 -69.666 -12.501 -111.999s-27.5 -87.166 -47.5 -134.499s-42.833 -95.666 -68.5 -144.999s-51.5 -97.5 -77.5 -144.5s-50.333 -91.333 -73 -133
s-41.167 -78.167 -55.5 -109.5s-22.833 -56.5 -25.5 -75.5s3.33301 -28.833 18 -29.5c17.333 -1.33301 42 7 74 25s67.5 41.5 106.5 70.5s79.833 61.333 122.5 97s84 70.834 124 105.501s76.667 66.834 110 96.501s60.333 52.5 81 68.5l9 -11
c-21.333 -16.667 -48.833 -39.834 -82.5 -69.501s-70.667 -62 -111 -97s-82.166 -70.5 -125.499 -106.5s-84.666 -68.5 -123.999 -97.5s-75.333 -52.333 -108 -70s-58.334 -25.834 -77.001 -24.501c-24 2 -38.5 12.5 -43.5 31.5s-3.16699 44.167 5.5 75.5
s22.667 67.666 42 108.999s40.833 85.166 64.5 131.499s48.5 94 74.5 143s49.833 96.667 71.5 143s40 90.333 55 132s23.5 78.5 25.5 110.5s-3.66699 58 -17 78s-37.333 31.333 -72 34c-49.333 2.66699 -97.666 -8 -144.999 -32s-93.5 -57 -138.5 -99
s-88.833 -90.833 -131.5 -146.5s-83.667 -113.667 -123 -174s-76.666 -120.833 -111.999 -181.5s-68.666 -116.834 -99.999 -168.501s-60.333 -96.834 -87 -135.501s-50.667 -66 -72 -82c-2 -2 -5.83301 -3 -11.5 -3s-11.667 0.5 -18 1.5s-12.5 2 -18.5 3
s-10.667 1.83301 -14 2.5z" />
    <glyph glyph-name="O" unicode="O" horiz-adv-x="1239" 
d="M33 308c1.33301 -3.33301 1.50195 -7.16309 0.501953 -11.4961s-2.66699 -8.5 -5 -12.5s-5.33301 -7.33301 -9 -10s-7.5 -3.66699 -11.5 -3s-6.5 3.16699 -7.5 7.5s-0.666992 9 1 14s4.16699 9.66699 7.5 14s7.33301 6.83301 12 7.5c22 39.333 48.167 72.666 78.5 99.999
s63.5 50.166 99.5 68.499s74.333 33 115 44s82 20.167 124 27.5c31.333 64 67.166 124.667 107.499 182s83 107.5 128 150.5s91.5 77.333 139.5 103s95.667 39.167 143 40.5c41.333 0.666992 74.5 -6.33301 99.5 -21s42.667 -34 53 -58s13.5 -51.167 9.5 -81.5
s-14 -60.833 -30 -91.5c27.333 -24.667 44.166 -57 50.499 -97s4.5 -84.333 -5.5 -133s-27.167 -99.667 -51.5 -153s-53.333 -105.666 -87 -156.999s-71 -100 -112 -146s-83.333 -85.5 -127 -118.5s-87.5 -58 -131.5 -75s-85.667 -22.5 -125 -16.5
s-71.666 19.667 -96.999 41s-44.333 48.166 -57 80.499s-19.667 69.166 -21 110.499s2 85.166 10 131.499s20.333 94.5 37 144.5s36.667 99.667 60 149c-40.667 -7.33301 -80.334 -16.333 -119.001 -27s-75.167 -24.834 -109.5 -42.501s-65.833 -39.667 -94.5 -66
s-53.667 -58.166 -75 -95.499zM507.002 551.003c-24.667 -49.333 -46.668 -98.834 -66.001 -148.501s-34.833 -97.667 -46.5 -144s-19.167 -90.166 -22.5 -131.499s-1.16602 -78.166 6.50098 -110.499s21.5 -59.166 41.5 -80.499s47 -35 81 -41
c37.333 -6 77.166 -0.666992 119.499 16s84.666 41 126.999 73s83.5 70.333 123.5 115s76.667 92 110 142s62 100.833 86 152.5s41.333 101.167 52 148.5s13.334 90.333 8.00098 129s-20.666 70 -45.999 94c-18 -30.667 -40.333 -56.5 -67 -77.5s-56.167 -38.667 -88.5 -53
s-66.333 -26 -102 -35s-71.834 -16.333 -108.501 -22s-72.667 -10.334 -108 -14.001s-68.666 -7.83398 -99.999 -12.501zM956.001 824.002c51.333 -2.66699 91.665 -15.334 120.998 -38.001c14.667 28 23.834 56 27.501 84s1 52.833 -8 74.5s-25 39.167 -48 52.5
s-53.833 19.666 -92.5 18.999c-33.333 -0.666992 -69.166 -12.834 -107.499 -36.501s-77 -56 -116 -97s-77.167 -88.667 -114.5 -143s-72 -112.166 -104 -173.499c30 4 62.167 7.83301 96.5 11.5s69.333 8.33398 105 14.001s70.834 12.834 105.501 21.501s67.667 20 99 34
s59.833 31.333 85.5 52s47.167 45.667 64.5 75c-13.333 10.667 -29.333 19 -48 25s-40.334 9.66699 -65.001 11c-4.66699 -5.33301 -12.334 -8 -23.001 -8s-17.667 3.66699 -21 11c-2 4 -1.33301 7.5 2 10.5s7.5 5 12.5 6s10.333 1.16699 16 0.5s9.83398 -2.66699 12.501 -6
z" />
    <glyph glyph-name="P" unicode="P" horiz-adv-x="1567" 
d="M537 -123c6.66699 12.667 18.0049 33.6729 34.0049 63.0059s34.5 64.333 55.5 105s44 85.667 69 135s49.833 100.333 74.5 153c-21.333 -4 -40.166 -9.83301 -56.499 -17.5s-28.166 -18.167 -35.499 -31.5c2 -2.66699 3.16699 -6.33398 3.5 -11.001
s-0.333984 -9.33398 -2.00098 -14.001s-3.83398 -8.66699 -6.50098 -12s-6 -5 -10 -5c-4.66699 0 -7.83398 1.83301 -9.50098 5.5s-2.33398 8 -2.00098 13s1.5 10 3.5 15s5 8.5 9 10.5c8 18 22.333 31.667 43 41s43.667 16 69 20c22 47.333 43 94.666 63 141.999
s37.833 93.166 53.5 137.499s28.5 86 38.5 125s15.833 73.5 17.5 103.5s-1.66602 54.667 -9.99902 74s-22.5 31.666 -42.5 36.999c-22.667 5.33301 -53.834 4.83301 -93.501 -1.5s-83.834 -15.166 -132.501 -26.499s-100 -24 -154 -38s-107.167 -25.833 -159.5 -35.5
s-101.666 -16 -147.999 -19s-86 0.666992 -119 11s-57.5 28.833 -73.5 55.5s-20 64.667 -12 114c-1.33301 2 -2.33301 5.5 -3 10.5s-0.5 10.167 0.5 15.5s3 10 6 14s7.83301 6 14.5 6c7.33301 0 11.5 -2.16699 12.5 -6.5s0.5 -9.16602 -1.5 -14.499s-4.66699 -10.5 -8 -15.5
s-5.66602 -7.83301 -6.99902 -8.5c-8 -46.667 -4.16699 -82.334 11.5 -107.001s39.667 -41.834 72 -51.501s71.333 -12.834 117 -9.50098s94 9.83301 145 19.5s103.167 21.334 156.5 35.001s104.166 26.334 152.499 38.001s92.166 20.834 131.499 27.501
s70.666 7.66699 93.999 3c26.667 -5.33301 46.667 -17.833 60 -37.5s21.166 -44.834 23.499 -75.501s-0.166992 -65.834 -7.5 -105.501s-17.833 -82 -31.5 -127s-29.834 -91.5 -48.501 -139.5s-38.667 -96 -60 -144h14c27.333 55.333 55.833 110.5 85.5 165.5
s60 107.833 91 158.5s62.667 97.667 95 141s65 80.833 98 112.5s66.167 56.167 99.5 73.5s66.666 25 99.999 23c44.667 -2.66699 80.334 -14.167 107.001 -34.5s44.834 -46.333 54.501 -78s11.334 -67.5 5.00098 -107.5s-20 -80.833 -41 -122.5s-49 -82.5 -84 -122.5
s-76.5 -76 -124.5 -108s-102 -58.167 -162 -78.5s-125.333 -31.833 -196 -34.5c-19.333 -0.666992 -38.833 -0.833984 -58.5 -0.500977s-39.5 0.5 -59.5 0.5c-30 -60.667 -58.333 -118.667 -85 -174s-51.334 -104.5 -74.001 -147.5s-43 -77.667 -61 -104
s-33 -40.833 -45 -43.5l-1 -2zM975.005 355.006c60 2.66699 116.334 13.835 169.001 33.502s100.667 44.667 144 75s81.666 64.5 114.999 102.5s60.833 76.667 82.5 116s37 78 46 116s11 72.167 6 102.5s-17.5 55.166 -37.5 74.499s-48.333 30.333 -85 33
c-32 2 -64.167 -5.33301 -96.5 -22s-64.333 -40.167 -96 -70.5s-63 -66.5 -94 -108.5s-61.5 -87.5 -91.5 -136.5s-59.333 -100.5 -88 -154.5s-56.667 -108 -84 -162c18.667 0.666992 37.167 0.666992 55.5 0s36.5 -0.333984 54.5 0.999023zM828.006 339.007
c-22 -48.667 -44.165 -96.1689 -66.498 -142.502s-43.833 -89.166 -64.5 -128.499s-39.167 -74.5 -55.5 -105.5s-29.5 -55.5 -39.5 -73.5c10.667 8 24 25.5 40 52.5s34.167 60.833 54.5 101.5s42.666 86.334 66.999 137.001s50.166 104 77.499 160h-6.5
c-2.33301 0 -4.5 -0.333008 -6.5 -1z" />
    <glyph glyph-name="Q" unicode="Q" horiz-adv-x="1224" 
d="M264 124c18.667 14.667 38.6709 26.666 60.0039 35.999c2.66699 57.333 13.334 118.5 32.001 183.5s43.667 130.167 75 195.5c-40.667 -7.33301 -80.334 -16.333 -119.001 -27s-75.167 -24.834 -109.5 -42.501s-65.833 -39.667 -94.5 -66s-53.667 -58.166 -75 -95.499
c1.33301 -3.33301 1.5 -7.16602 0.5 -11.499s-2.66699 -8.5 -5 -12.5s-5.16602 -7.33301 -8.49902 -10s-7 -3.66699 -11 -3c-4.66699 0.666992 -7.33398 3.16699 -8.00098 7.5s-0.333984 9 0.999023 14s3.83301 9.66699 7.5 14s7.5 6.83301 11.5 7.5
c22 39.333 48.167 72.666 78.5 99.999s63.5 50.166 99.5 68.499s74.333 33 115 44s82 20.167 124 27.5c31.333 64 67 124.5 107 181.5s82.5 106.833 127.5 149.5s91.5 76.667 139.5 102s95.333 38.666 142 39.999c41.333 0.666992 74.5 -6.16602 99.5 -20.499
s42.833 -33.333 53.5 -57s14.167 -50.5 10.5 -80.5s-13.5 -60.333 -29.5 -91c25.333 -22.667 41.666 -51.667 48.999 -87s7.66602 -74.666 0.999023 -117.999s-19.667 -89.166 -39 -137.499s-43 -96.333 -71 -144s-59.667 -94 -95 -139s-72.333 -85.833 -111 -122.5
c56.667 -29.333 112.667 -57.833 168 -85.5s108.5 -48.834 159.5 -63.501s98.5 -20.334 142.5 -17.001s83 21.333 117 54l5.5 -5.5c2.33301 -2.33301 1.5 -5.83301 -2.5 -10.5c-28.667 -28 -58.834 -48 -90.501 -60s-64.5 -18 -98.5 -18s-69 5 -105 15
s-72.333 23.167 -109 39.5s-73.834 35 -111.501 56s-74.834 42.167 -111.501 63.5c-24 -20 -48.333 -38 -73 -54s-49.167 -29.167 -73.5 -39.5s-48.333 -17.5 -72 -21.5s-46.5 -4.33301 -68.5 -1c-32 5.33301 -59.333 15.5 -82 30.5s-41 34 -55 57s-24.167 49.333 -30.5 79
s-9.16602 61.5 -8.49902 95.5c-15.333 -6 -30.666 -15 -45.999 -27c0.666992 -3.33301 0 -7 -2 -11s-5 -7.66699 -9 -11s-8.33301 -5.66602 -13 -6.99902s-8.66699 -1 -12 1s-4.83301 4.83301 -4.5 8.5s1.83301 7.33398 4.5 11.001s6.16699 7 10.5 10s8.5 4.83301 12.5 5.5z
M377.004 173.999c31.333 4 64.1641 3.00098 98.4971 -2.99902s69.833 -15.667 106.5 -29s74.167 -29.166 112.5 -47.499s76.833 -37.5 115.5 -57.5c38 35.333 74.333 74.833 109 118.5s65.834 88.834 93.501 135.501s51.334 93.5 71.001 140.5s33.167 91.5 40.5 133.5
s7.83301 80.333 1.5 115s-21.166 63 -44.499 85c-18 -30.667 -40.333 -56.5 -67 -77.5s-56.167 -38.667 -88.5 -53s-66.333 -26 -102 -35s-71.834 -16.333 -108.501 -22s-72.667 -10.334 -108 -14.001s-68.666 -7.83398 -99.999 -12.501
c-32 -64.667 -59.5 -129.334 -82.5 -194.001s-38.833 -125.667 -47.5 -183zM956.002 824c51.333 -2.66699 91.667 -15.335 121 -38.002c14.667 28 23.834 55.833 27.501 83.5s0.666992 52.167 -9 73.5s-26 38.5 -49 51.5s-53.833 19.167 -92.5 18.5
c-33.333 -0.666992 -69 -12.667 -107 -36s-76.333 -55.333 -115 -96s-76.667 -88 -114 -142s-71.666 -111.667 -102.999 -173c30 4 62.167 7.83301 96.5 11.5s69.166 8.33398 104.499 14.001s70.333 12.834 105 21.501s67.667 20 99 34s59.833 31.333 85.5 52
s47.167 45.667 64.5 75c-13.333 10.667 -29.333 19 -48 25s-40.334 9.66699 -65.001 11c-4.66699 -5.33301 -12.334 -8 -23.001 -8s-17.667 3.66699 -21 11c-2 4 -1.33301 7.5 2 10.5s7.5 5 12.5 6s10.333 1.16699 16 0.5s9.83398 -2.66699 12.501 -6zM774.003 5.99902
c-36 20.667 -71.833 40.8359 -107.5 60.5029s-70.334 36.667 -104.001 51s-66.167 25.166 -97.5 32.499s-61.333 9.66602 -90 6.99902c-4 -34.667 -5 -66.834 -3 -96.501s8 -56 18 -79s24 -42 42 -57s41 -24.833 69 -29.5c42 -6.66699 86.333 0.333008 133 21
s93.334 50.667 140.001 90z" />
    <glyph glyph-name="R" unicode="R" horiz-adv-x="1500" 
d="M537 -123c7.33301 14 19.999 37.8262 37.999 71.4932s39.167 73.667 63.5 120s50.333 97.5 78 153.5s54.5 113 80.5 171c-14.667 3.33301 -29.667 6.16602 -45 8.49902s-31.666 4.16602 -48.999 5.49902c-4.66699 0.666992 -6.5 3.16699 -5.5 7.5
s2.83301 6.16602 5.5 5.49902c36.667 0.666992 73 2.66699 109 6c28.667 64.667 54.334 127.834 77.001 189.501s39.167 117.334 49.5 167.001s12.833 91 7.5 124s-22 52.833 -50 59.5c-22.667 5.33301 -53.834 4.83301 -93.501 -1.5s-83.834 -15.166 -132.501 -26.499
s-100 -24 -154 -38s-107.167 -25.833 -159.5 -35.5s-101.666 -16 -147.999 -19s-86 0.666992 -119 11s-57.5 28.833 -73.5 55.5s-20 64.667 -12 114c-1.33301 2 -2.33301 5.5 -3 10.5s-0.5 10.167 0.5 15.5s3 10 6 14s7.83301 6 14.5 6c7.33301 0 11.5 -2.16699 12.5 -6.5
s0.5 -9.16602 -1.5 -14.499s-4.66699 -10.5 -8 -15.5s-5.66602 -7.83301 -6.99902 -8.5c-8 -46.667 -4.16699 -82.334 11.5 -107.001s39.667 -41.834 72 -51.501s71.333 -12.834 117 -9.50098s94 9.83301 145 19.5s103.167 21.334 156.5 35.001
s104.166 26.334 152.499 38.001s92.166 20.834 131.499 27.501s70.666 7.66699 93.999 3c36.667 -7.33301 60.834 -27.666 72.501 -60.999s14.5 -75.333 8.5 -126s-19.167 -107.334 -39.5 -170.001s-44.166 -127 -71.499 -193l18 3c38.667 77.333 79.167 152 121.5 224
s85.666 135.5 129.999 190.5s89.5 98.5 135.5 130.5s92 46.667 138 44c54 -0.666992 95.5 -9.66699 124.5 -27s47.667 -39.666 56 -66.999s6.66602 -58.666 -5.00098 -93.999s-31.5 -71.333 -59.5 -108s-63.333 -72.667 -106 -108s-91.167 -67.333 -145.5 -96
s-113.5 -52.167 -177.5 -70.5s-131.333 -28.833 -202 -31.5c-3.33301 -6 -6 -11.167 -8 -15.5s-4.66699 -9.5 -8 -15.5c45.333 -11.333 85.333 -28.666 120 -51.999s65.334 -50.166 92.001 -80.499s50.334 -62.833 71.001 -97.5s39.667 -68.667 57 -102s34 -65 50 -95
s32.833 -55.667 50.5 -77s36.834 -36.833 57.501 -46.5s44.667 -11.167 72 -4.5c1.33301 -1.33301 2.5 -3.66602 3.5 -6.99902s-1.16699 -5.66602 -6.5 -6.99902c-35.333 -8.66699 -66.166 -8.83398 -92.499 -0.500977s-50 22.833 -71 43.5s-40.167 46 -57.5 76
s-34.5 61.833 -51.5 95.5s-34.833 68 -53.5 103s-39.834 67.833 -63.501 98.5s-50.5 57.834 -80.5 81.501s-65.333 41.167 -106 52.5c-31.333 -64.667 -61.166 -126.834 -89.499 -186.501s-54.333 -112.5 -78 -158.5s-44.834 -83.167 -63.501 -111.5
s-34.334 -43.166 -47.001 -44.499zM1410 1007.99c-44.667 2 -89 -12.333 -133 -43s-87.333 -72.5 -130 -125.5s-84.5 -114.333 -125.5 -184s-80.5 -142.5 -118.5 -218.5c58 2.66699 114.167 12.834 168.5 30.501s105.5 39.667 153.5 66s91.667 56 131 89s73 66.667 101 101
s49.333 67.833 64 100.5s20.834 62.167 18.501 88.5s-13.833 48.166 -34.5 65.499s-52.334 27.333 -95.001 30zM845.999 379.993c-23.333 -52.667 -47.167 -104.167 -71.5 -154.5s-47.5 -97.166 -69.5 -140.499s-42 -82 -60 -116s-32.333 -61 -43 -81
c10.667 8 24.5 26.667 41.5 56s36.5 66 58.5 110s46 93.667 72 149s53.667 113 83 173c-2 1.33301 -5.66699 2.66602 -11 3.99902zM861.998 417.993l-8.00195 -19.001c2 -0.666992 4.16699 -1.16699 6.5 -1.5s4.5 -1.16602 6.5 -2.49902l12 25
c-3.33301 0 -6.16602 -0.166992 -8.49902 -0.5s-5.16602 -0.833008 -8.49902 -1.5zM803.996 406.992l2 5.99902c-4.66699 -0.666992 -9.16699 -1.16699 -13.5 -1.5s-8.83301 -0.5 -13.5 -0.5c4 -1.33301 8 -2.16602 12 -2.49902s8.33301 -0.833008 13 -1.5z" />
    <glyph glyph-name="S" unicode="S" horiz-adv-x="928" 
d="M607 421c-1.33301 16.667 -3.1709 33.1641 -5.50391 49.4971s-5.16602 32.833 -8.49902 49.5c-16 -7.33301 -38 -15.333 -66 -24s-58.667 -16.667 -92 -24s-67.666 -13 -102.999 -17s-68.5 -4.33301 -99.5 -1s-58.167 11 -81.5 23s-39.666 30 -48.999 54
c-3.33301 0.666992 -6 3 -8 7s-3.33301 8.5 -4 13.5s-0.333984 9.83301 0.999023 14.5s4 8 8 10s7.5 1.66699 10.5 -1s5.33301 -6.33398 7 -11.001s2.33398 -9.5 2.00098 -14.5s-1.5 -9.5 -3.5 -13.5c8 -22.667 23.333 -39.334 46 -50.001s49.167 -17.167 79.5 -19.5
s62.833 -1.33301 97.5 3s68.167 10.166 100.5 17.499s62 15.333 89 24s47.833 16 62.5 22c-8 36.667 -16.167 73.334 -24.5 110.001s-13.666 72.334 -15.999 107.001s0 67.834 7 99.501s21.5 60.834 43.5 87.501c11.333 14 26.666 26.833 45.999 38.5
s40.333 21.334 63 29.001s45.834 12.834 69.501 15.501s45.834 1.66699 66.501 -3s38.5 -13.167 53.5 -25.5s25.5 -29.833 31.5 -52.5c7.33301 -28.667 8 -57 2 -85s-16.333 -55 -31 -81s-32.5 -50.667 -53.5 -74s-43.333 -44.833 -67 -64.5s-47.5 -37.334 -71.5 -53.001
s-46 -28.5 -66 -38.5l3 -12c3.33301 -16 6.16602 -32 8.49902 -48s4.16602 -32.333 5.49902 -49c90 19.333 190.333 34.333 301 45l2 -14c-56.667 -5.33301 -109.834 -11.833 -159.501 -19.5s-96.834 -16.167 -141.501 -25.5c4 -67.333 -1 -133.833 -15 -199.5
s-37.833 -125.5 -71.5 -179.5s-77.5 -99.167 -131.5 -135.5s-118.667 -58.833 -194 -67.5c-35.333 -4 -68.833 -3 -100.5 3s-59.167 16.333 -82.5 31s-41.166 33.667 -53.499 57s-16.166 50.333 -11.499 81c5.33301 38 19.333 73.5 42 106.5s50.834 63.333 84.501 91
s71.167 52.834 112.5 75.501s83.5 43 126.5 61s85.333 33.333 127 46s79.167 23 112.5 31zM607.995 407.997c-32.667 -8 -69.1699 -18.168 -109.503 -30.501s-81.5 -27.166 -123.5 -44.499s-83.333 -37.166 -124 -59.499s-77.667 -46.833 -111 -73.5
s-61.166 -55.834 -83.499 -87.501s-36.166 -65.834 -41.499 -102.501c-4 -28.667 -0.166992 -53.5 11.5 -74.5s28.5 -38 50.5 -51s48 -21.833 78 -26.5s61.333 -5 94 -1c61.333 8 115.166 28.667 161.499 62s84.833 75.333 115.5 126s52.834 107.334 66.501 170.001
s18.834 127 15.501 193zM903.992 941.996c-6.66699 18.667 -17.3301 33.167 -31.9971 43.5s-31.334 17.166 -50.001 20.499s-38.334 3.5 -59.001 0.5s-40.667 -8.33301 -60 -16s-37 -17 -53 -28s-28.667 -22.833 -38 -35.5c-18 -25.333 -28.333 -52.833 -31 -82.5
s-1 -60.5 5 -92.5s14.5 -64.667 25.5 -98s20.5 -66 28.5 -98c20.667 10.667 43 23.834 67 39.501s47.5 33.167 70.5 52.5s44.5 40.5 64.5 63.5s36.167 47 48.5 72s20.166 50.833 23.499 77.5s0 53.667 -10 81z" />
    <glyph glyph-name="T" unicode="T" horiz-adv-x="833" 
d="M1 879c8.66699 28.667 24.1562 51.5078 46.4893 68.5078s49.666 29.667 81.999 38s68.833 13.166 109.5 14.499s83.834 0.5 129.501 -2.5s92.834 -7.66699 141.501 -14s97.667 -12.5 147 -18.5c15.333 22 31 39.833 47 53.5s32 21.834 48 24.501
c8.66699 1.33301 13.167 0 13.5 -4s0.5 -6.66699 0.5 -8c-12.667 0 -25.5 -6.16699 -38.5 -18.5s-26.167 -29.5 -39.5 -51.5c60 -8 118.333 -14.333 175 -19s108.334 -5.5 155.001 -2.5s86.834 11.5 120.501 25.5s57.5 36 71.5 66
c1.33301 -0.666992 3.83301 -1.83398 7.5 -3.50098s3.83398 -5.16699 0.500977 -10.5c-19.333 -34.667 -47.666 -60.667 -84.999 -78s-80.5 -28.833 -129.5 -34.5s-102.5 -6.83398 -160.5 -3.50098s-117.333 8.66602 -178 15.999c-18.667 -36.667 -37.5 -80 -56.5 -130
s-38.667 -103.333 -59 -160s-41.333 -115 -63 -175s-44 -118.5 -67 -175.5s-46.833 -110.833 -71.5 -161.5s-50.167 -95 -76.5 -133s-53.666 -68 -81.999 -90s-57.833 -32.667 -88.5 -32c-30 0 -52.5 9.16699 -67.5 27.5s-23 41.833 -24 70.5s4.5 60.5 16.5 95.5
s29.667 69.333 53 103s52 64.834 86 93.501s72.333 51 115 67c0.666992 3.33301 2.83398 6.5 6.50098 9.5s7.66699 5.33301 12 7s8.66602 2.33398 12.999 2.00098s7.83301 -1.83301 10.5 -4.5c3.33301 -3.33301 4 -6.83301 2 -10.5s-5.16699 -7 -9.5 -10
s-9.16602 -5.16699 -14.499 -6.5s-10 -1 -14 1c-40 -14.667 -76.167 -35.334 -108.5 -62.001s-59.833 -55.834 -82.5 -87.501s-40.334 -64 -53.001 -97s-19.167 -63.167 -19.5 -90.5s5.83398 -49.833 18.501 -67.5s33 -26.834 61 -27.501
c22.667 -0.666992 45.167 9.66602 67.5 30.999s44.666 50.666 66.999 87.999s44.333 80.833 66 130.5s43.334 102.667 65.001 159s43.334 114.166 65.001 173.499s43.334 117.333 65.001 174s43.5 110 65.5 160s44 94 66 132c-48 6 -95.667 12.167 -143 18.5
s-92.666 11.5 -135.999 15.5s-84.166 6 -122.499 6s-72.333 -3 -102 -9s-54.5 -15.833 -74.5 -29.5s-33.333 -32.5 -40 -56.5c-3.33301 1.33301 -6.33301 2.16602 -9 2.49902s-3 3.83301 -1 10.5z" />
    <glyph glyph-name="U" unicode="U" horiz-adv-x="1434" 
d="M1473 462c-20.667 -15.333 -44.1777 -35.6689 -70.5107 -61.002s-54.166 -53.666 -83.499 -84.999s-59.5 -64.5 -90.5 -99.5s-61.667 -69.5 -92 -103.5s-59.666 -66.5 -87.999 -97.5s-54.5 -58.167 -78.5 -81.5s-45 -41.666 -63 -54.999s-32 -19.666 -42 -18.999
c-20 1.33301 -31 15.5 -33 42.5s2.66699 62.833 14 107.5s28.166 96 50.499 154s48.166 118.333 77.499 181c-47.333 -54.667 -94.666 -106.834 -141.999 -156.501s-92.666 -93.5 -135.999 -131.5s-83.333 -68.667 -120 -92s-67.334 -35.666 -92.001 -36.999
c-32.667 -2 -55.334 6 -68.001 24s-18 43.167 -16 75.5s9.83301 70.5 23.5 114.5s30.667 91 51 141s42.333 101.833 66 155.5s46.5 106.167 68.5 157.5s41.667 100.333 59 147s29.5 88.334 36.5 125.001s7.5 66.667 1.5 90s-21 37.666 -45 42.999
c-16 2.66699 -37.833 1.5 -65.5 -3.5s-58.5 -12 -92.5 -21s-70.167 -18.667 -108.5 -29s-76 -18.833 -113 -25.5s-72.333 -10.667 -106 -12s-63.167 2.33398 -88.5 11.001s-45.166 23.667 -59.499 45s-20.5 51.333 -18.5 90c-2.66699 2 -4.16699 5.33301 -4.5 10
s0 9.5 1 14.5s2.83301 9.33301 5.5 13s6 5.83398 10 6.50098c4.66699 0.666992 8 -0.833008 10 -4.5s3 -8 3 -13s-1 -10 -3 -15s-5 -8.5 -9 -10.5c-1.33301 -36.667 5 -64.834 19 -84.501s33.333 -33.334 58 -41.001s53.5 -10.5 86.5 -8.5s67.667 6.5 104 13.5
s73.333 15.833 111 26.5s73.334 20.334 107.001 29.001s64.334 15.667 92.001 21s49.834 6.66602 66.501 3.99902c29.333 -7.33301 49.333 -23.333 60 -48s14.5 -55.5 11.5 -92.5s-11.5 -79 -25.5 -126s-30.833 -96.167 -50.5 -147.5s-41 -103.5 -64 -156.5
s-45 -104.333 -66 -154s-39.667 -96.167 -56 -139.5s-27.833 -81 -34.5 -113s-7.16699 -56.833 -1.5 -74.5s20.167 -25.5 43.5 -23.5c26 1.33301 58.333 14.666 97 39.999s80.834 58.833 126.501 100.5s93.334 89.334 143.001 143.001s98.834 109.5 147.501 167.5
c19.333 40.667 40.833 83 64.5 127s47.834 87.333 72.501 130s49.834 84.167 75.501 124.5s50.5 77.5 74.5 111.5s46.5 63.667 67.5 89s39.833 44.666 56.5 57.999c4 1.33301 7.33301 0.5 10 -2.5s3.33398 -7.16699 2.00098 -12.5c-3.33301 -20 -14.833 -49.167 -34.5 -87.5
s-44.334 -81.333 -74.001 -129s-62.667 -97.667 -99 -150s-73.166 -102.5 -110.499 -150.5c-25.333 -50 -49.833 -100 -73.5 -150s-45.667 -98.167 -66 -144.5s-38.333 -89.666 -54 -129.999s-28 -75.5 -37 -105.5s-14.167 -53.667 -15.5 -71s2.33398 -26.333 11.001 -27
c10 -0.666992 28.167 11.166 54.5 35.499s57.5 55.666 93.5 93.999s74.833 80.833 116.5 127.5s83 92.334 124 137.001s79.833 85.5 116.5 122.5s67.667 64.833 93 83.5zM1401.99 998.997c-15.333 -17.333 -33.667 -41.999 -55 -73.999s-44 -67.667 -68 -107
s-48.167 -80.5 -72.5 -123.5s-46.833 -83.833 -67.5 -122.5c28.667 38 57.334 78.333 86.001 121s55.167 83.667 79.5 123s45.166 75.166 62.499 107.499s29 57.5 35 75.5z" />
    <glyph glyph-name="V" unicode="V" horiz-adv-x="1412" 
d="M1348 996c13.333 -2.66699 18.668 -13.3252 16.001 -31.9922s-10 -41.667 -22 -69s-27 -56.666 -45 -87.999s-35.833 -60.833 -53.5 -88.5s-33.167 -51.334 -46.5 -71.001s-21.333 -31.5 -24 -35.5c-4 -19.333 -7.5 -42.166 -10.5 -68.499s-3.66699 -51.833 -2 -76.5
s7.16699 -46.334 16.5 -65.001s24.666 -30 45.999 -34c22 -4 51 1.83301 87 17.5s80.333 44.834 133 87.501l8 -11c-54.667 -44 -100.834 -74 -138.501 -90s-68.167 -21.667 -91.5 -17c-22 4 -38.5 14.167 -49.5 30.5s-18.333 35.666 -22 57.999s-4.66699 46.166 -3 71.499
s4.5 48.666 8.5 69.999c-38 -54 -79 -109.333 -123 -166s-88.833 -112 -134.5 -166s-91.167 -105 -136.5 -153s-88.333 -90 -129 -126s-78 -65 -112 -87s-62.333 -33.667 -85 -35c-31.333 -2 -53 6.33301 -65 25s-16.667 44.667 -14 78s11.167 72.666 25.5 117.999
s31.833 93.833 52.5 145.5s43.167 105.167 67.5 160.5s48.166 109.666 71.499 162.999s44.666 104 63.999 152s34 90.833 44 128.5s14 68.667 12 93s-12.333 39.166 -31 44.499c-14.667 4 -35.667 3.66699 -63 -1s-58 -11.334 -92 -20.001s-70.333 -18.334 -109 -29.001
s-76.834 -19.667 -114.501 -27s-73.667 -11.833 -108 -13.5s-64.5 1.83301 -90.5 10.5s-46.333 23.667 -61 45s-21 51.666 -19 90.999c-2.66699 2 -4.16699 5.33301 -4.5 10s0 9.5 1 14.5s2.83301 9.33301 5.5 13s6 5.83398 10 6.50098
c4.66699 0.666992 8 -0.833008 10 -4.5s3 -8 3 -13s-1 -10 -3 -15s-5 -8.5 -9 -10.5c-1.33301 -36.667 5 -64.834 19 -84.501s33.333 -33.334 58 -41.001s53.5 -10.5 86.5 -8.5s67.667 6.5 104 13.5s73.333 15.833 111 26.5s73.334 20.334 107.001 29.001
s64.334 15.667 92.001 21s49.834 6.66602 66.501 3.99902c27.333 -4.66699 45.333 -19 54 -43s10.667 -54.833 6 -92.5s-14.834 -80.667 -30.501 -129s-34.167 -99.166 -55.5 -152.499s-44.166 -107.833 -68.499 -163.5s-47.666 -109.5 -69.999 -161.5
s-42.333 -100.833 -60 -146.5s-30.5 -85.334 -38.5 -119.001s-9.66699 -60 -5 -79s18 -27.5 40 -25.5c23.333 1.33301 52.333 13.5 87 36.5s72.667 53.333 114 91s85 81.334 131 131.001s92 102.167 138 157.5s91 111.833 135 169.5s84.667 113.5 122 167.5
c2 11.333 6.33301 28.833 13 52.5s14.834 50 24.501 79s20.5 58.5 32.5 88.5s24.667 57.167 38 81.5s26.666 43.833 39.999 58.5s26.333 20.667 39 18z" />
    <glyph glyph-name="W" unicode="W" horiz-adv-x="1865" 
d="M696 974c20.667 -11.333 31.1719 -32.332 31.5049 -62.999s-5.5 -67.334 -17.5 -110.001s-28.167 -89.334 -48.5 -140.001s-41 -101.5 -62 -152.5s-40.333 -100.167 -58 -147.5s-30 -89 -37 -125s-6.5 -64.333 1.5 -85s27 -30 57 -28
c26.667 3.33301 54.667 14.833 84 34.5s59.166 44.834 89.499 75.501s60.833 65.667 91.5 105s60.167 80.5 88.5 123.5s55.166 86.5 80.499 130.5s48 86 68 126s37 76.667 51 110s23.667 61 29 83c2 13.333 6.83301 20 14.5 20s13.167 -8.66699 16.5 -26
c4 -31.333 0.333008 -70.333 -11 -117s-27.166 -97.667 -47.499 -153s-43.5 -113 -69.5 -173s-51.667 -118.667 -77 -176s-48.333 -112 -69 -164s-36.167 -97.333 -46.5 -136s-13.666 -69 -9.99902 -91s17.5 -32 41.5 -30c23.333 1.33301 52.333 13.5 87 36.5
s72.5 53.333 113.5 91s84.5 81.334 130.5 131.001s92 102.167 138 157.5s91 111.833 135 169.5s84.667 113.5 122 167.5c2 11.333 6.5 28.833 13.5 52.5s15.333 50 25 79s20.5 58.5 32.5 88.5s24.5 57.167 37.5 81.5s26.167 43.833 39.5 58.5s26.333 20.667 39 18
c13.333 -2.66699 18.666 -13.334 15.999 -32.001s-10 -41.667 -22 -69s-27 -56.666 -45 -87.999s-35.667 -60.833 -53 -88.5s-32.833 -51.334 -46.5 -71.001s-21.834 -31.5 -24.501 -35.5c-4 -19.333 -7.5 -42.166 -10.5 -68.499s-3.66699 -51.833 -2 -76.5
s7.16699 -46.334 16.5 -65.001s24.666 -30 45.999 -34c22 -4 51 1.83301 87 17.5s80.667 44.834 134 87.501l8 -11c-54.667 -44 -100.834 -74 -138.501 -90s-68.5 -21.667 -92.5 -17c-21.333 4 -37.5 14.167 -48.5 30.5s-18.333 35.666 -22 57.999
s-4.66699 46.166 -3 71.499s4.16699 48.666 7.5 69.999c-38 -54 -79 -109.333 -123 -166s-88.833 -112 -134.5 -166s-91.167 -105 -136.5 -153s-88.166 -90 -128.499 -126s-77.5 -65 -111.5 -87s-62.667 -33.667 -86 -35c-32 -2 -53.833 6.66699 -65.5 26s-16 46.333 -13 81
s12.167 75.334 27.5 122.001s33.666 96.667 54.999 150s44.666 108.166 69.999 164.499s49.666 111.5 72.999 165.5s44.166 105 62.499 153s31.833 90.333 40.5 127c-15.333 -40 -35.833 -85.5 -61.5 -136.5s-54.834 -103.333 -87.501 -157s-67.667 -106.167 -105 -157.5
s-74.666 -97.5 -111.999 -138.5s-73.833 -74.333 -109.5 -100s-68.167 -39.5 -97.5 -41.5c-32 -2 -56 3.66699 -72 17s-25.833 32.333 -29.5 57s-2.16699 54 4.5 88s16.334 70.333 29.001 109s27.5 78.834 44.5 120.501s34.167 82.667 51.5 123
s33.666 79.166 48.999 116.499s27.5 71 36.5 101s14.167 55.167 15.5 75.5s-3.33398 33.833 -14.001 40.5c-12 7.33301 -31.167 9.16602 -57.5 5.49902s-56.666 -9.83398 -90.999 -18.501s-71.5 -18.5 -111.5 -29.5s-79.667 -20.667 -119 -29s-77.166 -14 -113.499 -17
s-68.333 -0.333008 -96 8s-49.334 23.333 -65.001 45s-22.5 52.834 -20.5 93.501c-2.66699 2 -4.16699 5.33301 -4.5 10s0 9.5 1 14.5s2.83301 9.33301 5.5 13s6 5.83398 10 6.50098c4.66699 0.666992 8 -0.833008 10 -4.5s3 -8 3 -13s-1 -10 -3 -15s-5 -8.5 -9 -10.5
c-1.33301 -39.333 5.83398 -69.166 21.501 -89.499s37.167 -34 64.5 -41s59 -8.5 95 -4.5s73.833 10.667 113.5 20s79.5 19.833 119.5 31.5s77.333 21.834 112 30.501s65.334 14.5 92.001 17.5s46.667 0.5 60 -7.5z" />
    <glyph glyph-name="X" unicode="X" horiz-adv-x="1131" 
d="M853 435c63.333 48 124.663 95.9961 183.996 143.996s113 96.5 161 145.5s88.5 98.5 121.5 148.5s54.5 101.333 64.5 154c3.33301 -0.666992 6.33301 -1.5 9 -2.5s3.33398 -5.5 2.00098 -13.5c-12 -54.667 -35 -107.667 -69 -159s-75.333 -101.833 -124 -151.5
s-102.834 -98.834 -162.501 -147.501s-121.167 -97 -184.5 -145c3.33301 -46 6.66602 -91.5 9.99902 -136.5s7.5 -87.667 12.5 -128s11.667 -77.666 20 -111.999s19 -64 32 -89s29 -44.667 48 -59s41.833 -21.5 68.5 -21.5
c0.666992 -1.33301 0.833984 -3.83301 0.500977 -7.5s-3.5 -5.5 -9.5 -5.5c-31.333 1.33301 -58.5 9 -81.5 23s-42.667 33 -59 57s-29.833 52 -40.5 84s-19.5 67 -26.5 105s-12.5 78.167 -16.5 120.5s-7.33301 85.5 -10 129.5c-60 -46 -119.5 -92.167 -178.5 -138.5
s-114 -93.5 -165 -141.5s-96.667 -97.167 -137 -147.5s-71.833 -102.166 -94.5 -155.499c-3.33301 1.33301 -6 2.83301 -8 4.5s-1.33301 6.83398 2 15.501c24 54 56.333 106.667 97 158s86.667 101.333 138 150s106.5 96.334 165.5 143.001s118.5 93 178.5 139
c-4 44.667 -8 89.834 -12 135.501s-8.5 89.834 -13.5 132.501s-10.333 82.667 -16 120s-12.334 70 -20.001 98s-16.334 50.167 -26.001 66.5s-20.834 24.833 -33.501 25.5c-13.333 0.666992 -33.333 -2.66602 -60 -9.99902s-57.167 -16 -91.5 -26s-71 -20.667 -110 -32
s-77.667 -20.5 -116 -27.5s-75.166 -11.167 -110.499 -12.5s-66.166 2.5 -92.499 11.5s-47.166 24.667 -62.499 47s-22 53.166 -20 92.499c-2.66699 2 -4.16699 5.33301 -4.5 10s0 9.5 1 14.5s2.83301 9.33301 5.5 13s6 5.83398 10 6.50098
c4.66699 0.666992 8 -0.833008 10 -4.5s3 -8 3 -13s-1 -10 -3 -15s-5 -8.5 -9 -10.5c-2 -37.333 4.16699 -66.333 18.5 -87s34.333 -35 60 -43s55.5 -11.167 89.5 -9.5s69.667 6.33398 107 14.001s75.333 17.167 114 28.5s75.334 22.166 110.001 32.499s65.834 19 93.501 26
s49.834 10.167 66.501 9.5s31.834 -9.16699 45.501 -25.5s26 -38.5 37 -66.5s20.667 -60.333 29 -97s15.833 -75.334 22.5 -116.001s12.5 -82.334 17.5 -125.001s9.16699 -83.667 12.5 -123z" />
    <glyph glyph-name="Y" unicode="Y" horiz-adv-x="1130" 
d="M663 476c27.333 1.33301 56.8359 12.5098 88.5029 33.5098s63.5 47.5 95.5 79.5s63.5 67.5 94.5 106.5s59.833 77.333 86.5 115s50.167 72.667 70.5 105s35.5 57.833 45.5 76.5c4.66699 5.33301 10.167 6.5 16.5 3.5s9.16602 -8.83301 8.49902 -17.5
c-2.66699 -32.667 -11.5 -73.834 -26.5 -123.501s-35.167 -104 -60.5 -163s-54.833 -120.833 -88.5 -185.5s-70.5 -128.334 -110.5 -191.001c40.667 -20 70.167 -47.167 88.5 -81.5s27.833 -72.833 28.5 -115.5c2.66699 -2 4.5 -5.33301 5.5 -10
s1.16699 -9.33398 0.5 -14.001s-2.16699 -9 -4.5 -13s-5.5 -6.33301 -9.5 -7c-4 -1.33301 -7.16699 -0.166016 -9.5 3.50098s-3.83301 8 -4.5 13s-0.166992 10 1.5 15s4.16699 8.83301 7.5 11.5c-0.666992 40.667 -9.66699 77.167 -27 109.5s-45.333 58.166 -84 77.499
c-40 -62 -82 -120.667 -126 -176s-88.833 -103.833 -134.5 -145.5s-91.5 -74.334 -137.5 -98.001s-90.667 -34.5 -134 -32.5c-26 1.33301 -44.333 10.666 -55 27.999s-14.834 39.5 -12.501 66.5s10.833 57.333 25.5 91s34.167 67 58.5 100s53.333 64.333 87 94
s70.667 54.5 111 74.5s83.5 33.167 129.5 39.5s94 2.83301 144 -10.5c36.667 60 70.834 120.167 102.501 180.5s59.667 116.5 84 168.5s44.333 97.667 60 137s26.167 68 31.5 86c-12.667 -18.667 -28.667 -42.334 -48 -71.001s-41.166 -59.334 -65.499 -92.001
s-50.333 -65.334 -78 -98.001s-56 -62.334 -85 -89.001s-58 -48.667 -87 -66s-56.833 -26.666 -83.5 -27.999s-46.667 5 -60 19s-22.166 32.833 -26.499 56.5s-5 50.667 -2 81s7.83301 61.666 14.5 93.999s14.167 63.833 22.5 94.5s15.333 58.167 21 82.5
s9.5 43.833 11.5 58.5s-0.333008 22 -7 22c-20 -0.666992 -44.5 -4.33398 -73.5 -11.001s-60.333 -14.5 -94 -23.5s-68.667 -18.167 -105 -27.5s-71.833 -16.833 -106.5 -22.5s-67.334 -8.5 -98.001 -8.5s-57.334 4.83301 -80.001 14.5s-40.334 25 -53.001 46
s-18.334 49.833 -17.001 86.5c-2.66699 2 -4.16699 5.33301 -4.5 10s0 9.5 1 14.5s2.83301 9.33301 5.5 13s6 5.83398 10 6.50098c4.66699 0.666992 8 -0.833008 10 -4.5s3 -8 3 -13s-1 -10 -3 -15s-5 -8.5 -9 -10.5c-1.33301 -36.667 4.83398 -64.834 18.501 -84.501
s32.5 -33.5 56.5 -41.5s52.167 -11 84.5 -9s66.5 6.5 102.5 13.5s72.333 15.667 109 26s71.667 20 105 29s63.666 16 90.999 21s49.333 6.16699 66 3.5c12.667 -6.66699 20.5 -19 23.5 -37s2.83301 -39.667 -0.5 -65s-8.83301 -53.166 -16.5 -83.499l-23 -91
c-7.66699 -30.333 -14.5 -59.666 -20.5 -87.999s-9 -53.333 -9 -75s4 -38.834 12 -51.501s21.667 -18.334 41 -17.001zM344.003 -133.99c38 -2 77.502 9.33301 118.502 34s82.167 58.167 123.5 100.5s82.166 91.5 122.499 147.5s79.166 114.333 116.499 175
c-46 11.333 -90.5 13.666 -133.5 6.99902s-83.5 -19.334 -121.5 -38.001s-73 -42.167 -105 -70.5s-60 -58 -84 -89s-43.5 -62.167 -58.5 -93.5s-24.5 -59.666 -28.5 -84.999s-2.16699 -46.166 5.5 -62.499s22.5 -24.833 44.5 -25.5z" />
    <glyph glyph-name="Z" unicode="Z" horiz-adv-x="771" 
d="M284 573c-1.33301 35.333 0.160156 71.3223 4.49316 107.989s11.833 72.334 22.5 107.001s24.834 67.334 42.501 98.001s39.167 57.334 64.5 80.001s54.5 40.334 87.5 53.001s70.5 18.334 112.5 17.001c37.333 -1.33301 67.5 -10.333 90.5 -27s39.667 -37.667 50 -63
s14.833 -53.166 13.5 -83.499s-8 -59.5 -20 -87.5c-17.333 -40 -39.833 -77.667 -67.5 -113s-59 -68 -94 -98s-72.5 -57.167 -112.5 -81.5s-81 -45.833 -123 -64.5c22.667 3.33301 43.834 3.66602 63.501 0.999023s35.834 -10 48.501 -22
c13.333 -12.667 22.666 -27.834 27.999 -45.501s7.33301 -37.167 6 -58.5c44.667 19.333 91.5 42.833 140.5 70.5s102.5 64.167 160.5 109.5l8 -11c-60 -46.667 -115 -84.167 -165 -112.5s-98 -52.166 -144 -71.499c-2.66699 -29.333 -10.167 -60.5 -22.5 -93.5
s-28.333 -65.5 -48 -97.5s-42.167 -62.667 -67.5 -92s-52.666 -54.833 -81.999 -76.5s-59.833 -38.5 -91.5 -50.5s-63.5 -16.667 -95.5 -14c-38 5.33301 -65 22 -81 50s-18 60 -6 96c8.66699 25.333 22.334 48.5 41.001 69.5s40.334 40 65.001 57s51.667 32.333 81 46
s59 26.334 89 38.001s59.333 22.5 88 32.5s54.667 19.333 78 28c3.33301 24 3 45.667 -1 65s-12.333 35.333 -25 48c-9.33301 9.33301 -22 14.333 -38 15s-33.667 -0.833008 -53 -4.5s-39 -8.5 -59 -14.5s-38 -11.333 -54 -16c-12 -3.33301 -19 -2.83301 -21 1.5
s-2 8.16602 0 11.499c44 12.667 90.167 30.334 138.5 53.001s94.833 50.667 139.5 84s85.834 72 123.501 116s68.5 93.667 92.5 149c10.667 26 18.5 52.833 23.5 80.5s5.33301 53.334 1 77.001s-14.666 43.167 -30.999 58.5s-39.833 23.333 -70.5 24
c-40.667 0.666992 -76.834 -5.16602 -108.501 -17.499s-59.5 -29.166 -83.5 -50.499s-44.333 -46.666 -61 -75.999s-30 -60.5 -40 -93.5s-17 -67.167 -21 -102.5s-5.33301 -70 -4 -104c2.66699 -2 4.83398 -5.16699 6.50098 -9.5s2.5 -8.83301 2.5 -13.5
s-1 -9.16699 -3 -13.5s-5 -7.16602 -9 -8.49902s-7.33301 -0.333008 -10 3s-4.5 7.5 -5.5 12.5s-1.16699 10 -0.5 15s2.66699 9.16699 6 12.5zM19.9932 -4.01074c-11.333 -32 -10.001 -60.3359 3.99902 -85.0029s38 -39.334 72 -44.001c24.667 0 49.834 5.83301 75.501 17.5
s50.667 27.5 75 47.5s47.5 43 69.5 69s41.833 53.5 59.5 82.5s32.5 58.333 44.5 88s20.667 57.834 26 84.501c-22.667 -8.66699 -47.667 -17.667 -75 -27s-55.5 -19.666 -84.5 -30.999s-57.5 -23.666 -85.5 -36.999s-54 -28.166 -78 -44.499s-45.167 -34.5 -63.5 -54.5
s-31.5 -42 -39.5 -66z" />
    <glyph glyph-name="bracketleft" unicode="[" horiz-adv-x="395" 
d="M227 778c-24.667 -119.333 -51.665 -237.335 -80.998 -354.002s-58 -234 -86 -352h61c15.333 0 30 -0.333008 44 -1l-1 -21c-14 0 -29 0.333008 -45 1s-38.667 1 -68 1c-15.333 -3.33301 -24 -3 -26 1c29.333 122 59.333 243.333 90 364s58.667 243.334 84 368.001
c2.66699 6 4.66699 9.66699 6 11s5.66602 2 12.999 2h74.5c17 0 32.5 -0.333008 46.5 -1l-1 -22c-14 0.666992 -28.833 1.33398 -44.5 2.00098s-37.834 1 -66.501 1z" />
    <glyph glyph-name="backslash" unicode="\" horiz-adv-x="438" 
d="M-92 705c4 0.666992 8.00098 1.83301 12.001 3.5s8 2.66699 12 3s7.83301 -0.5 11.5 -2.5s7.16699 -6 10.5 -12c61.333 -116 125.833 -229.833 193.5 -341.5s134.167 -224.5 199.5 -338.5c-2.66699 0 -6.16699 -0.666992 -10.5 -2s-8.83301 -2 -13.5 -2
s-9.33398 1 -14.001 3s-9 6 -13 12c-65.333 113.333 -131.5 226 -198.5 338s-130.167 225 -189.5 339z" />
    <glyph glyph-name="bracketright" unicode="]" horiz-adv-x="449" 
d="M137 69c24.667 119.333 51.6641 237.335 80.9971 354.002s58 234 86 352h-61c-15.333 0 -30 0.333008 -44 1l1 21c14 0 29 -0.333008 45 -1s38.667 -1 68 -1c15.333 3.33301 24 3 26 -1c-29.333 -122 -59.333 -243.333 -90 -364s-58.667 -243.334 -84 -368.001
c-2.66699 -6 -4.66699 -9.66699 -6 -11s-5.66602 -2 -12.999 -2h-43h-32c-9.33301 0 -17.666 0.166992 -24.999 0.5s-14.333 0.5 -21 0.5l1 22c14 -0.666992 28.833 -1.33398 44.5 -2.00098s37.834 -1 66.501 -1z" />
    <glyph glyph-name="asciicircum" unicode="^" horiz-adv-x="649" 
d="M307 725c7.33301 -6.66699 17.334 -18.1689 30.001 -34.502s26.334 -34.666 41.001 -54.999s29.667 -41.833 45 -64.5s29.333 -43.5 42 -62.5s23 -35.333 31 -49s12 -21.834 12 -24.501l-18 -1c0 1.33301 -4.16699 8.16602 -12.5 20.499s-18.833 27.666 -31.5 45.999
s-26.667 38.166 -42 59.499s-30 41.666 -44 60.999s-26.5 36.166 -37.5 50.499s-18.833 23.5 -23.5 27.5c-4.66699 -4 -12.5 -13.167 -23.5 -27.5s-23.667 -31.166 -38 -50.499s-29 -39.666 -44 -60.999s-28.833 -41.166 -41.5 -59.499s-23.334 -33.666 -32.001 -45.999
s-13 -19.166 -13 -20.499l-18 1c0 2.66699 4 10.834 12 24.501s18.333 30.167 31 49.5s26.667 40.333 42 63s30.5 44.334 45.5 65.001s28.667 39 41 55s22.166 27.333 29.499 34c4.66699 3.33301 7.66699 5 9 5s4 -2 8 -6z" />
    <glyph glyph-name="underscore" unicode="_" horiz-adv-x="487" 
d="M57 295h337.996c6.66699 0 11.834 -1.33301 15.501 -4s5.83398 -5.5 6.50098 -8.5s-0.833008 -5.66699 -4.5 -8s-9.5 -3.5 -17.5 -3.5h-338c-8 0 -13.667 1.16699 -17 3.5s-4.66602 5 -3.99902 8s2.83398 5.83301 6.50098 8.5s8.5 4 14.5 4z" />
    <glyph glyph-name="grave" unicode="`" horiz-adv-x="229" 
d="M118 629c-6.66699 -3.33301 -13.8311 -3.83301 -21.498 -1.5s-15.167 6.5 -22.5 12.5s-14 13.333 -20 22s-11 17.667 -15 27l38 2c5.33301 -12.667 10.666 -24.667 15.999 -36s13.666 -20 24.999 -26z" />
    <glyph glyph-name="a" unicode="a" horiz-adv-x="515" 
d="M218 501c-6 -8 -13.6689 -19.1699 -23.002 -33.5029s-18.666 -29.833 -27.999 -46.5s-17.833 -33.5 -25.5 -50.5s-12.834 -32.5 -15.501 -46.5s-1.66699 -25.333 3 -34s14.334 -13 29.001 -13c22 0.666992 48.5 6.33398 79.5 17.001s64 25 99 43s70.667 38.667 107 62
s70.5 48 102.5 74l8 -11c-32 -26.667 -66.333 -51.834 -103 -75.501s-72.667 -44.5 -108 -62.5s-69 -32.333 -101 -43s-59.667 -16.334 -83 -17.001c-20 -0.666992 -34.833 3.33301 -44.5 12s-15.834 20 -18.501 34s-1.83398 30 2.49902 48s10.5 36.333 18.5 55
c-10.667 -11.333 -22.167 -21.166 -34.5 -29.499s-25.166 -13.5 -38.499 -15.5c-14.667 0 -25.5 4.33301 -32.5 13s-10.833 19.334 -11.5 32.001s1.83301 26.334 7.5 41.001s13.834 28 24.501 40s23.5 21.333 38.5 28s31.5 8.33398 49.5 5.00098
c6.66699 -1.33301 14.334 -4.33301 23.001 -9s14.667 -13 18 -25l9 12c4.66699 5.33301 10.5 7.5 17.5 6.5s17.167 -4.5 30.5 -10.5zM151.998 479.997c-1.33301 11.333 -4.83398 19.499 -10.501 24.499s-11.5 7.5 -17.5 7.5
c-17.333 0.666992 -32.666 -5.66602 -45.999 -18.999s-23.833 -28.166 -31.5 -44.499s-12 -31.666 -13 -45.999s2.16699 -21.5 9.5 -21.5c10 -0.666992 20.333 2.66602 31 9.99902s21 16.166 31 26.499s19 21.333 27 33s14.667 21.5 20 29.5z" />
    <glyph glyph-name="b" unicode="b" horiz-adv-x="551" 
d="M163 312c-14 5.33301 -23.6729 15.3291 -29.0059 29.9961s-6.83301 29.667 -4.5 45s8 29 17 41s20.833 17.667 35.5 17c14 0 25.167 -3.83301 33.5 -11.5s14 -17.5 17 -29.5s3.33301 -25.667 1 -41s-6.83301 -30.666 -13.5 -45.999
c28.667 0.666992 59.667 5.83398 93 15.501s66.5 22 99.5 37s64.333 31.5 94 49.5s54.834 36 75.501 54l8 -11c-27.333 -21.333 -56.666 -41.666 -87.999 -60.999s-63.5 -36.166 -96.5 -50.499s-66 -25.666 -99 -33.999s-64.167 -12.5 -93.5 -12.5
c-10.667 -19.333 -24.667 -37.333 -42 -54s-36.333 -30.667 -57 -42s-41.834 -20 -63.501 -26s-42.167 -8.33301 -61.5 -7c-19.333 2 -32.5 9.83301 -39.5 23.5s-9.66699 30.334 -8 50.001s6.5 41.5 14.5 65.5s16.833 47.167 26.5 69.5s19.5 42.833 29.5 61.5
s17.667 33 23 43c19.333 34 40.666 70.5 63.999 109.5s47.833 77.167 73.5 114.5s52.5 72.666 80.5 105.999s56.833 61.666 86.5 84.999s59.834 40.166 90.501 50.499s61.334 11.166 92.001 2.49902c26.667 -7.33301 45.5 -20.166 56.5 -38.499s13.667 -40.666 8 -66.999
s-20.167 -56.333 -43.5 -90s-56 -69.5 -98 -107.5c-33.333 -30 -66.333 -56.333 -99 -79s-65 -42.334 -97 -59.001s-63.667 -31.167 -95 -43.5s-62.666 -23.5 -93.999 -33.5c-4.66699 -8.66699 -11.5 -20.5 -20.5 -35.5s-18 -31.5 -27 -49.5s-17.667 -36.5 -26 -55.5
s-14.166 -36.333 -17.499 -52s-3.66602 -28.667 -0.999023 -39s10.334 -16.166 23.001 -17.499c19.333 0 38 4 56 12s34.5 18.333 49.5 31s28.167 26.167 39.5 40.5s20.333 27.5 27 39.5zM436.994 663.996c41.333 38 72.835 72.998 94.502 104.998s34.667 60.167 39 84.5
s1.16602 44 -9.50098 59s-28 24.167 -52 27.5c-26 1.33301 -52.167 -5.16699 -78.5 -19.5s-52.666 -34 -78.999 -59s-52.333 -54 -78 -87s-50.5 -67.667 -74.5 -104s-46.833 -73 -68.5 -110s-41.834 -71.833 -60.501 -104.5c63.333 20.667 125.166 46.834 185.499 78.501
s120.833 74.834 181.5 129.501zM168.996 323.994c14 26.667 21.5 49.832 22.5 69.499s-3.16699 30.167 -12.5 31.5c-8 0.666992 -15 -3.5 -21 -12.5s-10 -19.5 -12 -31.5s-1.33301 -23.667 2 -35s10.333 -18.666 21 -21.999z" />
    <glyph glyph-name="c" unicode="c" horiz-adv-x="355" 
d="M130 443c8.66699 6.66699 15.499 14.0029 20.499 22.0029s8.5 15.5 10.5 22.5s2.5 13 1.5 18s-3.5 8.16699 -7.5 9.5c-13.333 2 -27.166 -2.16699 -41.499 -12.5s-27.666 -23.666 -39.999 -39.999s-23 -34.5 -32 -54.5s-15 -38.5 -18 -55.5s-2.5 -31.167 1.5 -42.5
s13 -16.666 27 -15.999c24 0.666992 51.833 8 83.5 22s63.334 30.5 95.001 49.5s61.5 38.333 89.5 58s50 36.167 66 49.5l9 -11c-18.667 -14.667 -43.167 -32.667 -73.5 -54s-62.5 -42 -96.5 -62s-67.5 -37 -100.5 -51s-61.5 -20.667 -85.5 -20
c-18.667 0.666992 -32.5 8.16699 -41.5 22.5s-13.667 31.666 -14 51.999s3.5 42.166 11.5 65.499s19.5 44.166 34.5 62.499s33.333 32.666 55 42.999s46.167 13.166 73.5 8.49902c5.33301 -1.33301 10.166 -4 14.499 -8s7.16602 -9.5 8.49902 -16.5
s0.666016 -15.667 -2.00098 -26s-8.33398 -22.5 -17.001 -36.5c-3.33301 -5.33301 -8.66602 -8 -15.999 -8s-12.666 3 -15.999 9z" />
    <glyph glyph-name="d" unicode="d" horiz-adv-x="670" 
d="M701 473l8.00195 -11c-18.667 -15.333 -42.5 -33 -71.5 -53s-60.833 -40.667 -95.5 -62s-70.834 -42.333 -108.501 -63s-74.667 -39.167 -111 -55.5s-70.666 -29.5 -102.999 -39.5s-60.5 -15.333 -84.5 -16c-14.667 0 -25.5 3.66699 -32.5 11s-11.667 17 -14 29
s-2.33301 26 0 42s6 32.5 11 49.5s11 34 18 51s13.833 32.833 20.5 47.5c-7.33301 -7.33301 -15.666 -14.333 -24.999 -21s-18.833 -12.834 -28.5 -18.501s-19 -10.5 -28 -14.5s-16.833 -6.33301 -23.5 -7c-14.667 -1.33301 -25 2.66699 -31 12s-8.16699 21.666 -6.5 36.999
s6.33398 31.833 14.001 49.5s18 34.167 31 49.5s27.833 27.833 44.5 37.5s34.667 13.834 54 12.501c4 0 8.33301 -0.833008 13 -2.5s9 -4.5 13 -8.5s7.5 -9.5 10.5 -16.5s4.83301 -16.167 5.5 -27.5c19.333 34 40.833 70.5 64.5 109.5s48.667 77.5 75 115.5
s53.666 73.833 81.999 107.5s57.333 62.334 87 86.001s59.667 40.667 90 51s60.5 10.833 90.5 1.5c26 -8 44.5 -21.167 55.5 -39.5s13.833 -40.5 8.5 -66.5s-19.5 -55.5 -42.5 -88.5s-54.833 -68.167 -95.5 -105.5c-33.333 -30 -66.333 -56.5 -99 -79.5
s-65.334 -43 -98.001 -60s-64.834 -31.833 -96.501 -44.5s-63.167 -24 -94.5 -34c-4.66699 -8.66699 -11.5 -20.667 -20.5 -36s-18.167 -32 -27.5 -50s-18.166 -36.5 -26.499 -55.5s-14.333 -36.333 -18 -52s-4.16699 -28.834 -1.5 -39.501s10.334 -16.667 23.001 -18
c19.333 -1.33301 44.166 2.66699 74.499 12s63.166 22 98.499 38s72.166 34.333 110.499 55s75 41.834 110 63.501s67.5 42.667 97.5 63s54.333 38.5 73 54.5zM588.002 667c40 36 70.6699 69.835 92.0029 101.502s34.166 59.667 38.499 84s1.16602 44.166 -9.50098 59.499
s-28 24.666 -52 27.999c-26 1.33301 -52.167 -5.16699 -78.5 -19.5s-52.666 -34 -78.999 -59s-52.333 -54 -78 -87s-50.5 -67.667 -74.5 -104s-46.833 -73 -68.5 -110s-41.834 -71.833 -60.501 -104.5c63.333 20.667 125.666 47.5 186.999 80.5s122.333 76.5 183 130.5z
M157.005 442.002l11 21.0049c2 21.333 0.166992 37.166 -5.5 47.499s-11.834 15.166 -18.501 14.499c-12 -0.666992 -23.667 -5.33398 -35 -14.001s-22 -19.334 -32 -32.001s-18.833 -26.167 -26.5 -40.5s-13.667 -27.833 -18 -40.5s-6.83301 -23 -7.5 -31
s1.33301 -12 6 -12c7.33301 0 16.5 2.5 27.5 7.5s22.333 11.5 34 19.5s23.334 17.167 35.001 27.5s21.5 21.166 29.5 32.499z" />
    <glyph glyph-name="e" unicode="e" horiz-adv-x="368" 
d="M54 293c25.333 -2.66699 53.833 2.16895 85.5 14.502s63.334 28.166 95.001 47.499s62 39.833 91 61.5s53.5 40.5 73.5 56.5l8 -11c-19.333 -15.333 -43.333 -33.833 -72 -55.5s-59.334 -42.334 -92.001 -62.001s-65.5 -36.334 -98.5 -50.001
s-63.167 -20.167 -90.5 -19.5c-19.333 2 -34.166 9.83301 -44.499 23.5s-16.666 30.167 -18.999 49.5s-0.666016 40 5.00098 62s15.167 42 28.5 60s30.5 32.667 51.5 44s45.5 16 73.5 14c14 -1.33301 23.667 -7.5 29 -18.5s4.16602 -23 -3.50098 -36
s-22.334 -25.167 -44.001 -36.5s-52.167 -18 -91.5 -20c-3.33301 -8 -6.33301 -18.667 -9 -32s-3.83398 -26.5 -3.50098 -39.5s2.5 -24.667 6.5 -35s11 -16.166 21 -17.499zM149 515.003c-9.33301 0.666992 -18.667 -1.33105 -28 -5.99805s-18.5 -10.834 -27.5 -18.501
s-17.333 -16.667 -25 -27s-14.834 -20.833 -21.501 -31.5c28 1.33301 51 6.16602 69 14.499s31 17.5 39 27.5s11.333 19.167 10 27.5s-6.66602 12.833 -15.999 13.5z" />
    <glyph glyph-name="f" unicode="f" horiz-adv-x="399" 
d="M22 226c12.667 -43.333 17.3398 -86.6641 14.0068 -129.997s-11.666 -82.833 -24.999 -118.5s-30.333 -64.834 -51 -87.501s-42.334 -35 -65.001 -37c-22 -1.33301 -39 5 -51 19s-19.5 33.667 -22.5 59s-1.83301 55.166 3.5 89.499s14.333 71.166 27 110.499
s28.5 80.166 47.5 122.499s40.5 84.166 64.5 125.499c34.667 59.333 70 111.166 106 155.499s71.833 80.666 107.5 108.999s70 48.333 103 60s63.833 14.5 92.5 8.5c12.667 -4 23 -11.667 31 -23s11.167 -25 9.5 -41s-8.83398 -33.667 -21.501 -53s-33 -38.833 -61 -58.5
s-64.667 -38.667 -110 -57s-101.333 -34.5 -168 -48.5c-14.667 -20 -31.5 -47.667 -50.5 -83s-37.833 -73.666 -56.5 -114.999s-35.667 -83.5 -51 -126.5s-26.333 -82 -33 -117s-7.66699 -63.667 -3 -86s17.667 -34.166 39 -35.499c18 0.666992 36.167 11.334 54.5 32.001
s33.666 47.667 45.999 81s20 71.333 23 114s-1.83301 86 -14.5 130c-17.333 -0.666992 -29.833 1.16602 -37.5 5.49902s-12.167 9.33301 -13.5 15s0.166992 11.334 4.5 17.001s9.66602 9 15.999 10s13.5 -0.833008 21.5 -5.5s15 -14 21 -28c28 4 56 11.333 84 22
s58.167 25.334 90.5 44.001s67.666 41.834 105.999 69.501s81.833 60.5 130.5 98.5l9 -11c-53.333 -41.333 -100.333 -76.333 -141 -105s-77.334 -52.334 -110.001 -71.001s-62.334 -32.667 -89.001 -42s-52.334 -15.333 -77.001 -18zM376.006 688.002
c-16.667 4 -34.6709 2.66406 -54.0039 -4.00293s-39 -16.834 -59 -30.501s-40 -29.667 -60 -48s-38.833 -37.166 -56.5 -56.499s-34 -38.166 -49 -56.499s-27.5 -34.166 -37.5 -47.499c58.667 12.667 108.5 27 149.5 43s74.833 32.333 101.5 49s46.834 33.334 60.501 50.001
s22.334 32 26.001 46s3.33398 25.833 -0.999023 35.5s-11.166 16.167 -20.499 19.5z" />
    <glyph glyph-name="g" unicode="g" horiz-adv-x="449" 
d="M161 290c52.667 16.667 106.33 41.3301 160.997 73.9971s107 69 157 109l9 -11c-23.333 -18.667 -48.666 -37.5 -75.999 -56.5s-55.333 -36.833 -84 -53.5s-57.667 -31.667 -87 -45s-57.666 -23.666 -84.999 -30.999c-24.667 -60.667 -53.334 -117.167 -86.001 -169.5
s-67.5 -97.333 -104.5 -135s-75.333 -66.834 -115 -87.501s-78.5 -29.667 -116.5 -27c-35.333 2.66699 -60.833 13.334 -76.5 32.001s-22.167 41.667 -19.5 69s14.834 57.333 36.501 90s52.334 64.5 92.001 95.5s88.667 59.333 147 85s125.5 45.167 201.5 58.5
c11.333 32 22 62.5 32 91.5s18.667 56.167 26 81.5c-9.33301 -9.33301 -19.833 -19 -31.5 -29s-23.5 -19 -35.5 -27s-23.833 -14.667 -35.5 -20s-21.834 -8 -30.501 -8c-14.667 0 -24.667 4.83301 -30 14.5s-6.83301 21.834 -4.5 36.501s7.66602 30.334 15.999 47.001
s19 31.834 32 45.501s27.833 24.5 44.5 32.5s34 10.333 52 7c6.66699 -1.33301 14.334 -5.66602 23.001 -12.999s14.334 -18.333 17.001 -33l3 18c6 2 12.5 3.66699 19.5 5s13 1.66602 18 0.999023s8.83301 -2.83398 11.5 -6.50098s2.66699 -9.16699 0 -16.5
c-25.333 -79.333 -52.333 -154 -81 -224zM108.996 271.996c-74.667 -14 -139.669 -33.5 -195.002 -58.5s-101.666 -52 -138.999 -81s-66 -58.667 -86 -89s-31.333 -58 -34 -83s2.66602 -45.333 15.999 -61s34.333 -23.834 63 -24.501
c34.667 0.666992 70.334 12.834 107.001 36.501s71.834 54.5 105.501 92.5s64.667 80.5 93 127.5s51.5 93.833 69.5 140.5zM153.994 543.996c-12 0.666992 -23.665 -2.66992 -34.998 -10.0029s-22 -16.833 -32 -28.5s-19 -24.167 -27 -37.5s-14.167 -25.833 -18.5 -37.5
s-6.83301 -21.5 -7.5 -29.5s1.33301 -12 6 -12c8 0 18 2.83301 30 8.5s24.667 13.334 38 23.001s26.5 20.334 39.5 32.001s24.167 23.5 33.5 35.5c1.33301 3.33301 1.66602 8 0.999023 14s-2.33398 12 -5.00098 18s-6 11.333 -10 16s-8.33301 7.33398 -13 8.00098z" />
    <glyph glyph-name="h" unicode="h" horiz-adv-x="616" 
d="M28 488c19.333 34 40.665 70.5088 63.998 109.509s47.833 77.167 73.5 114.5s52.5 72.666 80.5 105.999s56.833 61.666 86.5 84.999s59.667 40.166 90 50.499s61.166 11.166 92.499 2.49902c26.667 -7.33301 45.5 -20.166 56.5 -38.499s13.667 -40.666 8 -66.999
s-20 -56.333 -43 -90s-55.5 -69.5 -97.5 -107.5c-33.333 -30 -66.333 -56.333 -99 -79s-65 -42.334 -97 -59.001s-63.833 -31.167 -95.5 -43.5s-63.167 -23.5 -94.5 -33.5c-11.333 -20.667 -23.166 -42 -35.499 -64s-23.166 -43.667 -32.499 -65
c12 13.333 27.333 29.833 46 49.5s38 38.5 58 56.5s39.833 32.833 59.5 44.5s36.834 16.167 51.501 13.5c16 -3.33301 24.667 -13 26 -29s-1.16699 -35.167 -7.5 -57.5s-14.5 -45.833 -24.5 -70.5s-18 -47.334 -24 -68.001s-7.83301 -37.334 -5.5 -50.001
s12.5 -18.334 30.5 -17.001c12.667 1.33301 31.334 8.5 56.001 21.5s52.167 29 82.5 48s62 39.833 95 62.5s64.167 44.667 93.5 66s55.166 40.5 77.499 57.5s38.166 29.167 47.499 36.5l8 -11c-10 -8 -26.167 -20.667 -48.5 -38s-48.166 -36.666 -77.499 -57.999
s-60.333 -43.333 -93 -66s-64.334 -43.5 -95.001 -62.5s-59 -35 -85 -48s-46.333 -20.167 -61 -21.5c-23.333 -2.66699 -39.333 2.66602 -48 15.999s-12.5 30.5 -11.5 51.5s5 44.167 12 69.5s14.167 49.166 21.5 71.499s13.666 41.166 18.999 56.499
s6.33301 23.666 3 24.999c-15.333 0 -33 -7.16699 -53 -21.5s-40.167 -31.5 -60.5 -51.5s-40.166 -40.5 -59.499 -61.5s-35.666 -37.833 -48.999 -50.5c-10.667 -2 -16.834 1.66699 -18.501 11s-0.666992 21.5 3 36.5s9.33398 31.5 17.001 49.5s15.5 35.333 23.5 52
s15.333 31.167 22 43.5s10.667 19.833 12 22.5zM429.999 664.009c41.333 38 72.833 72.998 94.5 104.998s34.834 60.167 39.501 84.5s1.5 44 -9.5 59s-28.5 24.167 -52.5 27.5c-26 1.33301 -52.167 -5.16699 -78.5 -19.5s-52.666 -34 -78.999 -59s-52.333 -54 -78 -87
s-50.5 -67.667 -74.5 -104s-46.833 -73 -68.5 -110s-41.834 -71.833 -60.501 -104.5c63.333 20.667 125.166 46.834 185.499 78.501s120.833 74.834 181.5 129.501z" />
    <glyph glyph-name="i" unicode="i" horiz-adv-x="401" 
d="M80 482c-6 -8 -12.333 -18.665 -19 -31.998s-13.167 -27.5 -19.5 -42.5s-11.666 -30.167 -15.999 -45.5s-6.83301 -29.333 -7.5 -42s1 -23 5 -31s11 -12 21 -12c22 0.666992 48.5 6.33398 79.5 17.001s64 25 99 43s70.667 38.667 107 62s70.5 48 102.5 74l8 -11
c-32 -26.667 -66.333 -51.834 -103 -75.501s-72.834 -44.5 -108.501 -62.5s-69.5 -32.333 -101.5 -43s-59.333 -16.334 -82 -17.001c-26.667 -0.666992 -44 7.16602 -52 23.499s-10.833 36 -8.5 59s7.83301 46.667 16.5 71s17 43.5 25 57.5c6.66699 12.667 15 18 25 16
s19.667 -5 29 -9zM94 588.002c13.333 -3.33301 16.667 -11.333 10 -24c-3.33301 -5.33301 -8.16602 -9.5 -14.499 -12.5s-12.5 -3.83301 -18.5 -2.5s-10 4.33301 -12 9s-1.33301 9.66699 2 15s8.16602 9.5 14.499 12.5s12.5 3.83301 18.5 2.5z" />
    <glyph glyph-name="j" unicode="j" horiz-adv-x="297" 
d="M10 291c52 17.333 105.332 42.002 159.999 74.002s107.334 68 158.001 108l8 -11c-23.333 -18.667 -48.333 -37.167 -75 -55.5s-54.167 -35.833 -82.5 -52.5s-57.5 -31.834 -87.5 -45.501s-59.333 -24.834 -88 -33.501c-24.667 -60.667 -53.334 -117 -86.001 -169
s-67.5 -96.833 -104.5 -134.5s-75.167 -66.834 -114.5 -87.501s-78 -29.667 -116 -27c-35.333 2.66699 -60.833 13.334 -76.5 32.001s-22.167 41.667 -19.5 69s14.667 57.333 36 90s52 64.5 92 95.5s89 59.333 147 85s125 45.167 201 58.5c14.667 37.333 27.5 73 38.5 107
s20.5 64.333 28.5 91c3.33301 9.33301 10.333 13.333 21 12s20.334 -7 29.001 -17c-22 -66 -45 -129 -69 -189zM-43.001 272.002c-74.667 -14 -139.669 -33.5 -195.002 -58.5s-101.666 -52 -138.999 -81s-66 -58.667 -86 -89s-31.333 -58 -34 -83
s2.66602 -45.333 15.999 -61s34.333 -23.834 63 -24.501c34.667 0.666992 70.334 12.834 107.001 36.501s71.834 54.5 105.501 92.5s64.667 80.5 93 127.5s51.5 93.833 69.5 140.5zM89.9971 588.002c13.333 -3.33301 16.667 -11.333 10 -24
c-3.33301 -5.33301 -8.16602 -9.5 -14.499 -12.5s-12.5 -3.83301 -18.5 -2.5s-10 4.33301 -12 9s-1.33301 9.66699 2 15s8.16602 9.5 14.499 12.5s12.5 3.83301 18.5 2.5z" />
    <glyph glyph-name="k" unicode="k" horiz-adv-x="543" 
d="M-12 309c22 24 43.3379 46.6748 64.0049 68.0078s40.834 39.666 60.501 54.999s38.5 27.166 56.5 35.499s35 11.5 51 9.5c12 -1.33301 20.167 -6 24.5 -14s3.5 -17.167 -2.5 -27.5s-17.5 -21 -34.5 -32s-40.5 -20.5 -70.5 -28.5
c-10 -15.333 -17.833 -33.666 -23.5 -54.999s-8.16699 -41.333 -7.5 -60s4.66699 -34.334 12 -47.001s19 -18 35 -16c12.667 1.33301 30.667 8 54 20s49 27 77 45s57.167 37.833 87.5 59.5s59 42.5 86 62.5s50.833 38 71.5 54s35.667 27.667 45 35
c1.33301 -2 2.66602 -3.83301 3.99902 -5.5s2.66602 -3.5 3.99902 -5.5c-10 -8 -25.5 -20.167 -46.5 -36.5s-44.833 -34.5 -71.5 -54.5s-55 -40.667 -85 -62s-59.167 -41 -87.5 -59s-54.666 -33.167 -78.999 -45.5s-44.166 -19.166 -59.499 -20.499
c-24 -2 -42.833 3.83301 -56.5 17.5s-22.334 31.167 -26.001 52.5s-2.5 44.5 3.5 69.5s16.333 47.5 31 67.5c16 3.33301 32.167 8.33301 48.5 15s30.166 13.667 41.499 21s19.166 14.166 23.499 20.499s2.83301 10.833 -4.5 13.5c-13.333 2.66699 -28.666 -0.5 -45.999 -9.5
s-36.333 -22.333 -57 -40s-42.667 -38.5 -66 -62.5s-48 -49.333 -74 -76c-10.667 -1.33301 -16.834 2.16699 -18.501 10.5s-0.833984 19.5 2.49902 33.5s8.66602 29.5 15.999 46.5s15 33.667 23 50s15.667 31.333 23 45s12.666 23.5 15.999 29.5
c19.333 34 40.5 70.5 63.5 109.5s47.333 77.167 73 114.5s52.5 72.666 80.5 105.999s56.833 61.666 86.5 84.999s59.667 40.166 90 50.499s61.166 11.166 92.499 2.49902c26.667 -7.33301 45.334 -20.333 56.001 -39s13.334 -41.167 8.00098 -67.5
s-19.166 -55.833 -41.499 -88.5s-53.5 -66.334 -93.5 -101.001c-67.333 -60 -133.833 -107 -199.5 -141s-129.834 -61 -192.501 -81c-1.33301 -2 -4.83301 -8.5 -10.5 -19.5s-12.334 -23.5 -20.001 -37.5s-15 -27.833 -22 -41.5s-12.167 -23.834 -15.5 -30.501z
M439.005 671.008c39.333 36 69.5 69.667 90.5 101s33.667 58.833 38 82.5s1.16602 43 -9.50098 58s-28 24.167 -52 27.5c-26 1.33301 -52.167 -5.16699 -78.5 -19.5s-52.666 -34 -78.999 -59s-52.333 -54 -78 -87s-50.5 -67.667 -74.5 -104s-47 -73 -69 -110
s-42.333 -71.833 -61 -104.5c63.333 20.667 126.333 48 189 82s124 78.333 184 133z" />
    <glyph glyph-name="l" unicode="l" horiz-adv-x="533" 
d="M563 473l8.00488 -11.002c-17.333 -14.667 -40.5 -32 -69.5 -52s-61 -40.5 -96 -61.5s-72 -41.833 -111 -62.5s-77 -39.167 -114 -55.5s-72.167 -29.5 -105.5 -39.5s-62 -15.333 -86 -16c-20 0 -33.667 6.5 -41 19.5s-10.333 29.5 -9 49.5s6 42.167 14 66.5
s17 48.166 27 71.499s20 44.5 30 63.5s17.667 33.5 23 43.5c19.333 34 40.666 70.333 63.999 109s47.833 76.834 73.5 114.501s52.5 73 80.5 106s56.833 61.167 86.5 84.5s59.667 40.166 90 50.499s61.166 11.166 92.499 2.49902c26.667 -7.33301 45.5 -20.166 56.5 -38.499
s13.667 -40.666 8 -66.999s-20.167 -56.333 -43.5 -90s-56 -69.5 -98 -107.5c-33.333 -30 -66.333 -56.333 -99 -79s-65 -42.334 -97 -59.001s-63.833 -31.167 -95.5 -43.5s-62.834 -23.5 -93.501 -33.5c-4.66699 -8.66699 -11.334 -20.5 -20.001 -35.5
s-17.667 -31.5 -27 -49.5s-17.833 -36.5 -25.5 -55.5s-13.167 -36.333 -16.5 -52s-3.66602 -28.667 -0.999023 -39s10.334 -16.166 23.001 -17.499c19.333 -1.33301 44.666 2.83398 75.999 12.501s65.666 22.667 102.999 39s75.666 35 114.999 56s77 42.167 113 63.5
s68.5 41.833 97.5 61.5s51.5 36.834 67.5 51.501zM434.005 663.998c41.333 38 72.8311 72.998 94.498 104.998s34.834 60.167 39.501 84.5s1.66699 44 -9 59s-28 24.167 -52 27.5c-26 1.33301 -52.167 -5.16699 -78.5 -19.5s-52.666 -34 -78.999 -59s-52.333 -54 -78 -87
s-50.5 -67.667 -74.5 -104s-46.833 -73 -68.5 -110s-41.834 -71.833 -60.501 -104.5c62.667 20.667 124.334 46.834 185.001 78.501s121 74.834 181 129.501z" />
    <glyph glyph-name="m" unicode="m" horiz-adv-x="737" 
d="M400 241c12.667 1.33301 29.1729 7.00293 49.5059 17.0029s42.666 22.333 66.999 37s49.333 30.834 75 48.501s50 35 73 52s43.667 32.333 62 46s32.166 24.167 41.499 31.5l8 -11c-10 -8 -24.167 -19 -42.5 -33s-39 -29.333 -62 -46s-47.167 -33.834 -72.5 -51.501
s-50.333 -33.834 -75 -48.501s-47.834 -27 -69.501 -37s-39.834 -15.667 -54.501 -17c-24 -2.66699 -39.833 0.833008 -47.5 10.5s-10.667 22.5 -9 38.5s6.33398 33.833 14.001 53.5s15.5 38 23.5 55s14.333 31.333 19 43s4.33398 17.834 -0.999023 18.501
c-12 1.33301 -27.167 -4.16699 -45.5 -16.5s-36.833 -26.666 -55.5 -42.999s-35.834 -32.333 -51.501 -48l-32.5 -32.5c-3.33301 -3.33301 -8.66602 -4.33301 -15.999 -3s-12 5.33301 -14 12c0.666992 5.33301 5.5 15.166 14.5 29.499s19.667 31 32 50
s25.5 38.833 39.5 59.5s26.167 40 36.5 58s17.833 33.667 22.5 47s4 21.666 -2 24.999c-12.667 6 -28.167 5.5 -46.5 -1.5s-37.833 -18.167 -58.5 -33.5s-41.834 -33.5 -63.501 -54.5s-42.667 -42.167 -63 -63.5s-39.166 -41.666 -56.499 -60.999s-31.666 -35 -42.999 -47
c-11.333 -2 -18.166 1.33301 -20.499 10s-1.5 20.667 2.5 36s10.667 32.833 20 52.5s20.333 40.167 33 61.5c4 6.66699 10.667 11.834 20 15.501s20.666 0.166992 33.999 -10.5c-6 -8 -16 -23.167 -30 -45.5s-27.333 -47.833 -40 -76.5c11.333 11.333 25.166 26 41.499 44
s34.166 36.833 53.499 56.5s39.5 38.834 60.5 57.501s41.5 34.5 61.5 47.5s39 22 57 27s34 3.83301 48 -3.5c11.333 -5.33301 17 -15.5 17 -30.5s-3.83301 -32.333 -11.5 -52s-17.834 -40.834 -30.501 -63.501s-26.334 -44.334 -41.001 -65.001
c28 23.333 52.5 42.166 73.5 56.499s39.5 20.833 55.5 19.5c18 -2 28.167 -9 30.5 -21s0.666016 -26.5 -5.00098 -43.5s-13.167 -35 -22.5 -54s-17 -36.333 -23 -52s-8.33301 -28.334 -7 -38.001s10.333 -13.834 27 -12.501z" />
    <glyph glyph-name="n" unicode="n" horiz-adv-x="522" 
d="M88 487c-3.33301 -4 -7.66797 -9.99805 -13.001 -17.998s-11.166 -17.5 -17.499 -28.5s-13.166 -23.167 -20.499 -36.5s-14 -27.333 -20 -42c8 8.66699 18 19.334 30 32.001s24.833 25.667 38.5 39s27.667 26.666 42 39.999s28.333 25 42 35s26.334 17.667 38.001 23
s21.5 7 29.5 5c16 -4.66699 23.167 -15.334 21.5 -32.001s-7.66699 -36.167 -18 -58.5s-22.666 -46 -36.999 -71s-26.166 -47.667 -35.499 -68s-13.666 -36.833 -12.999 -49.5s10.667 -18 30 -16c12.667 1.33301 29.167 7 49.5 17s42.666 22.333 66.999 37
s49.333 30.834 75 48.501s50 35 73 52s43.667 32.333 62 46s32.166 24.167 41.499 31.5l8 -11c-10 -8 -24.167 -19 -42.5 -33s-39 -29.333 -62 -46s-47.167 -33.834 -72.5 -51.501s-50.333 -33.834 -75 -48.501s-47.834 -27 -69.501 -37s-39.834 -15.667 -54.501 -17
c-26 -1.33301 -42.333 4.83398 -49 18.501s-7.83398 31 -3.50098 52s12.5 44.167 24.5 69.5s23.833 49.166 35.5 71.499s21.334 41 29.001 56s9.83398 23.167 6.50098 24.5c-8.66699 2.66699 -22.167 -2.66602 -40.5 -15.999s-38.5 -30.333 -60.5 -51
s-44.333 -42.834 -67 -66.501s-42.667 -44.5 -60 -62.5c-14 -2 -21.333 3.33301 -22 16s2.16602 28 8.49902 46s14.666 36.667 24.999 56s19.5 35 27.5 47c5.33301 7.33301 12.833 11 22.5 11s18.5 -4.66699 26.5 -14z" />
    <glyph glyph-name="o" unicode="o" horiz-adv-x="341" 
d="M125 560c14 -6 24.5029 -14.667 31.5029 -26s11.333 -24.333 13 -39s0.5 -30.5 -3.5 -47.5s-10.333 -33.833 -19 -50.5c20 0 40.5 2 61.5 6s41.5 9.33301 61.5 16s38.667 14.667 56 24s32.666 19.333 45.999 30l8 -11c-14.667 -12 -31.5 -22.833 -50.5 -32.5
s-39 -18 -60 -25s-42.833 -12.333 -65.5 -16s-44.667 -5.16699 -66 -4.5c-16 -23.333 -32.333 -40.666 -49 -51.999s-32.5 -18 -47.5 -20s-28 0.166992 -39 6.5s-19 15.666 -24 27.999s-5.83301 27 -2.5 44s12 35.5 26 55.5c-6 16 -6.66699 32.167 -2 48.5
s13.167 30.5 25.5 42.5s27.166 20.5 44.499 25.5s35.666 4.16699 54.999 -2.5zM72.0029 466c-3.33301 -2 -6.66895 -4.83105 -10.002 -8.49805s-6.83301 -7.66699 -10.5 -12s-6.83398 -8.5 -9.50098 -12.5s-4.66699 -6.66699 -6 -8c13.333 -10.667 28.833 -18 46.5 -22
s34.5 -6.33301 50.5 -7c8.66699 16 15.167 31.833 19.5 47.5s6 30.5 5 44.5s-4.5 26.167 -10.5 36.5s-14.333 17.833 -25 22.5c-15.333 5.33301 -30.166 6.16602 -44.499 2.49902s-26.666 -10.167 -36.999 -19.5s-18 -20.666 -23 -33.999s-6.5 -26.333 -4.5 -39
c1.33301 1.33301 3.33301 4.16602 6 8.49902s5.66699 8.16602 9 11.499c5.33301 4 13.333 5 24 3s17.334 -6.66699 20.001 -14zM28 414.002c-17.333 -24.667 -25.334 -44.666 -24.001 -59.999s8 -24.833 20 -28.5s27.333 -1 46 8s36.667 25.5 54 49.5
c-16 1.33301 -32.667 4.16602 -50 8.49902s-32.666 11.833 -45.999 22.5z" />
    <glyph glyph-name="p" unicode="p" horiz-adv-x="514" 
d="M86 512c-5.33301 -12 -13.166 -29.9961 -23.499 -53.9961s-22.5 -51.667 -36.5 -83c24 33.333 45.167 59.833 63.5 79.5s34.666 34.667 48.999 45s26.833 17 37.5 20s20.667 4.5 30 4.5c22.667 -1.33301 38 -11.666 46 -30.999s9.83301 -42.5 5.5 -69.5
s-14.166 -54.667 -29.499 -83s-35 -51.833 -59 -70.5c33.333 1.33301 67.166 9 101.499 23s67.666 31.167 99.999 51.5s63.333 42 93 65s56.834 44.167 81.501 63.5l8 -11c-28 -22 -57.833 -45.333 -89.5 -70s-64.667 -47.334 -99 -68.001s-69.666 -37.334 -105.999 -50.001
s-72.833 -18.334 -109.5 -17.001c-8.66699 -5.33301 -20.5 -10.333 -35.5 -15s-28.5 -6.33398 -40.5 -5.00098c-12.667 0.666992 -21.834 4.16699 -27.501 10.5s-8.33398 12.666 -8.00098 18.999s4 11.666 11 15.999s16.5 5.16602 28.5 2.49902l28 -8
c9.33301 -2.66699 18.666 -4.33398 27.999 -5.00098c12.667 10 24.334 23 35.001 39s20.167 32.667 28.5 50s15 34.833 20 52.5s7.83301 33.667 8.5 48s-1 26 -5 35s-11 13.5 -21 13.5c-17.333 0.666992 -34.5 -5.16602 -51.5 -17.499s-34 -28.333 -51 -48
s-33.667 -41.167 -50 -64.5s-32.5 -45.666 -48.5 -66.999c-15.333 -34 -30.666 -69 -45.999 -105s-30.5 -70.833 -45.5 -104.5s-29.833 -64.834 -44.5 -93.501s-28.667 -53 -42 -73s-26.166 -34.167 -38.499 -42.5s-23.5 -8.83301 -33.5 -1.5
c-9.33301 6.66699 -10.333 22 -3 46s19.5 51.833 36.5 83.5s36.667 65 59 100s44.166 66.5 65.499 94.5c13.333 28.667 26.333 57 39 85s24.334 54.167 35.001 78.5s20.167 46.5 28.5 66.5s15.166 36 20.499 48c2.66699 6.66699 5.66699 11.334 9 14.001
s7.16602 4.33398 11.499 5.00098s9.33301 0.5 15 -0.5s12.834 -1.5 21.501 -1.5zM-242 -94.9961c6 -0.666992 14.668 8.83301 26.001 28.5s23.5 43.667 36.5 72s26.167 58.166 39.5 89.499s25 58.333 35 81c-21.333 -29.333 -41.5 -59.166 -60.5 -89.499
s-35 -58.333 -48 -84s-22.333 -47.5 -28 -65.5s-5.83398 -28.667 -0.500977 -32zM116.001 260.004c-7.33301 1.33301 -14.502 2.83496 -21.502 4.50195s-14.167 3.5 -21.5 5.5c-4.66699 1.33301 -8.16699 1.16602 -10.5 -0.500977s-3.66602 -3.83398 -3.99902 -6.50098
s0.833984 -5.33398 3.50098 -8.00098s6.66699 -4.33398 12 -5.00098c7.33301 -1.33301 14.833 -0.666016 22.5 2.00098s14.167 5.33398 19.5 8.00098z" />
    <glyph glyph-name="q" unicode="q" horiz-adv-x="491" 
d="M121 242c36 4.66699 72.167 15.5049 108.5 32.5049s71.666 36.667 105.999 59s67.166 45.833 98.499 70.5s60.666 47.667 87.999 69l8 -11c-21.333 -16.667 -47.5 -37.334 -78.5 -62.001s-64.5 -48.834 -100.5 -72.501s-73.5 -45 -112.5 -64
s-77.167 -31.167 -114.5 -36.5c21.333 -34 33.166 -69.5 35.499 -106.5s-2.16699 -71.333 -13.5 -103s-28 -58.334 -50 -80.001s-46.333 -34.167 -73 -37.5c-19.333 -0.666992 -31.666 7.83301 -36.999 25.5s-5.66602 41 -0.999023 70s13 61.833 25 98.5s26 74.167 42 112.5
s32.833 75.666 50.5 111.999s33.834 68.166 48.501 95.499c-23.333 -21.333 -42.5 -36.666 -57.5 -45.999s-31.5 -14.333 -49.5 -15c-16.667 0 -28.5 4.83301 -35.5 14.5s-10.167 21.5 -9.5 35.5s4.83398 29.167 12.501 45.5s18.167 31 31.5 44s28.833 23.167 46.5 30.5
s36.5 9.33301 56.5 6c6 -1.33301 13.833 -4.33301 23.5 -9s16.167 -13.334 19.5 -26.001l5 12c1.33301 2.66699 4 4.83398 8 6.50098s8.5 2.5 13.5 2.5s10 -0.833008 15 -2.5s9.5 -4.16699 13.5 -7.5c-25.333 -49.333 -47.833 -95.333 -67.5 -138
s-39.5 -84.334 -59.5 -125.001h4zM107 222.005c-7.33301 -14 -15.667 -31.3301 -25 -51.9971s-18.5 -42.334 -27.5 -65.001s-17 -45.167 -24 -67.5s-12.167 -42.333 -15.5 -60s-4 -31.834 -2 -42.501s7.66699 -16 17 -16c22 2 42.5 13.5 61.5 34.5s33.333 46.5 43 76.5
s13 62.167 10 96.5s-15.5 66.166 -37.5 95.499zM145.999 512.008c-11.333 0.666992 -22.334 -2.33008 -33.001 -8.99707s-20.5 -15.334 -29.5 -26.001s-16.833 -22.334 -23.5 -35.001s-11.667 -24.334 -15 -35.001s-5 -19.834 -5 -27.501s2.33301 -11.5 7 -11.5
c8 -1.33301 17.333 0.333984 28 5.00098s21.834 11.667 33.501 21s23.334 20.5 35.001 33.5s22.5 26.833 32.5 41.5c2 4 2.5 8.33301 1.5 13s-3 9.16699 -6 13.5s-6.83301 8 -11.5 11s-9.33398 4.83301 -14.001 5.5z" />
    <glyph glyph-name="r" unicode="r" horiz-adv-x="436" 
d="M57 216c16.667 3.33301 36.6689 10.8359 60.002 22.5029s48.166 25.5 74.499 41.5s53.333 33.167 81 51.5s53.834 36.5 78.501 54.5s47.167 34.667 67.5 50s36.5 27.666 48.5 36.999l8 -11c-14 -11.333 -31.667 -25 -53 -41s-44.666 -33 -69.999 -51
s-51.666 -36.167 -78.999 -54.5s-54.333 -35.333 -81 -51s-51.834 -29.167 -75.501 -40.5s-44.167 -19 -61.5 -23c-20.667 -4 -35 -2 -43 6s-12 19.5 -12 34.5s3.16699 32.333 9.5 52s13.666 39.5 21.999 59.5s17 38.833 26 56.5s16.167 32.167 21.5 43.5
c2 6 2.66699 12.5 2 19.5s-2 14.167 -4 21.5c-6.66699 -6 -13.334 -11.833 -20.001 -17.5s-13.667 -11.167 -21 -16.5c-1.33301 2 -2.83301 3.66699 -4.5 5s-3.16699 3 -4.5 5l22.5 18c8.33301 6.66699 16.166 13.334 23.499 20.001c-8 21.333 -11.833 40.333 -11.5 57
s3.16602 30.5 8.49902 41.5s12.5 18.667 21.5 23s18.5 5.16602 28.5 2.49902c10 -3.33301 17 -9 21 -17s5 -17.5 3 -28.5s-7 -23 -15 -36s-18.667 -25.833 -32 -38.5c5.33301 -12.667 10.833 -26.334 16.5 -41.001s6.83398 -29.334 3.50098 -44.001
c-3.33301 -8 -9 -19.167 -17 -33.5s-16.667 -29.833 -26 -46.5s-18 -33.5 -26 -50.5s-13.667 -31.833 -17 -44.5s-3.33301 -22.667 0 -30s12 -9.33301 26 -6zM116.002 617.003c-6 0 -11.168 -2.83301 -15.501 -8.5s-7.66602 -13 -9.99902 -22s-3.5 -19 -3.5 -30
s1.66699 -21.167 5 -30.5c23.333 22.667 36.5 43 39.5 61s-2.16699 28 -15.5 30z" />
    <glyph glyph-name="s" unicode="s" horiz-adv-x="360" 
d="M137 390c22 1.33301 44.165 3.33203 66.498 5.99902s44.333 7 66 13s42.834 14.167 63.501 24.5s40 23.5 58 39.5l8 -11c-20.667 -18 -41.667 -32.167 -63 -42.5s-43.166 -18.5 -65.499 -24.5s-45 -10.167 -68 -12.5s-45.833 -4.16602 -68.5 -5.49902
c-19.333 -81.333 -48.333 -143.333 -87 -186s-81.667 -65 -129 -67c-22.667 -1.33301 -41 3.83398 -55 15.501s-23 26.5 -27 44.5s-2.5 38 4.5 60s20.667 43 41 63s47.833 37.333 82.5 52s77.334 24 128.001 28c4 20 7.5 41 10.5 63s5.83301 45.333 8.5 70l-73 -59l-9 10
c4.66699 4 9.33398 7.83301 14.001 11.5s10.167 8 16.5 13s13.833 11.167 22.5 18.5s19.667 16.666 33 27.999c2.66699 28 7.66699 51.167 15 69.5s15.666 33 24.999 44s19.166 18.833 29.499 23.5s19.833 7 28.5 7s16.5 -3 23.5 -9s9.83301 -15 8.5 -27s-8.5 -27 -21.5 -45
s-35.5 -39 -67.5 -63c-1.33301 -28 -3.5 -54.667 -6.5 -80s-7.16699 -49.333 -12.5 -72zM88.998 373.999c-44.667 -4 -82.667 -12.502 -114 -25.502s-56.5 -28.167 -75.5 -45.5s-32.5 -35.666 -40.5 -54.999s-11 -36.833 -9 -52.5s8.66699 -28.667 20 -39
s26.333 -15.166 45 -14.499c44 3.33301 80 23.5 108 60.5s50 94.167 66 171.5zM212.998 671.997c-4.66699 0.666992 -10.001 -1.33398 -16.001 -6.00098s-11.667 -11.667 -17 -21s-10.166 -21 -14.499 -35s-6.83301 -30 -7.5 -48c20.667 16 36.5 30.833 47.5 44.5
s18.167 25.334 21.5 35.001s3.5 17.167 0.5 22.5s-7.83301 8 -14.5 8z" />
    <glyph glyph-name="t" unicode="t" horiz-adv-x="535" 
d="M566 473l8.00098 -11.0049c-17.333 -14.667 -40.5 -32 -69.5 -52s-61 -40.5 -96 -61.5s-72 -41.833 -111 -62.5s-77 -39.167 -114 -55.5s-72.167 -29.5 -105.5 -39.5s-62 -15.333 -86 -16c-20 0 -33.667 6.5 -41 19.5s-10.333 29.5 -9 49.5s6 42.167 14 66.5
s17 48.166 27 71.499s20 44.5 30 63.5s17.667 33.5 23 43.5c21.333 38 44.833 78.333 70.5 121s53.167 84.334 82.5 125.001c-32 3.33301 -59 4 -81 2s-36.667 -10.333 -44 -25c-8.66699 0.666992 -12.834 4.5 -12.501 11.5s1.83301 11.833 4.5 14.5c6 6 14.833 10 26.5 12
s24.167 2.83301 37.5 2.5s26.833 -1.16602 40.5 -2.49902s26.167 -2.33301 37.5 -3l24 33c6.66699 8 13.834 13 21.501 15s22.167 -0.333008 43.5 -7c-14 -16 -26 -31.333 -36 -46c28 -2 55.333 -4 82 -6s50.834 -2.83301 72.501 -2.5s40 2.33301 55 6s25.167 9.5 30.5 17.5
c3.33301 -1.33301 6.16602 -4.66602 8.49902 -9.99902s0.833008 -10.333 -4.5 -15c-9.33301 -7.33301 -22.833 -12 -40.5 -14s-37.667 -2.5 -60 -1.5s-46.666 2.83301 -72.999 5.5s-53.166 5.33398 -80.499 8.00098c-22 -30 -42.667 -60.167 -62 -90.5
s-36.833 -58.666 -52.5 -84.999s-29.334 -49.833 -41.001 -70.5s-20.5 -36 -26.5 -46c-4.66699 -8.66699 -11.167 -20.5 -19.5 -35.5s-17 -31.5 -26 -49.5s-17.5 -36.5 -25.5 -55.5s-13.667 -36.333 -17 -52s-3.5 -28.667 -0.5 -39s10.833 -16.166 23.5 -17.499
c19.333 -1.33301 44.666 3 75.999 13s65.333 23.167 102 39.5s74.667 34.833 114 55.5s76.833 41.667 112.5 63s68.167 42 97.5 62s52.666 37 69.999 51z" />
    <glyph glyph-name="u" unicode="u" horiz-adv-x="483" 
d="M245 501c-6 -8 -13.667 -19.1709 -23 -33.5039s-18.833 -29.833 -28.5 -46.5s-18.334 -33.5 -26.001 -50.5s-12.667 -32.5 -15 -46.5s-1.33301 -25.333 3 -34s14.166 -13 29.499 -13c22 0.666992 48.167 8.66699 78.5 24s61.166 33.5 92.499 54.5s61 42.333 89 64
s50.667 39.5 68 53.5l9 -11c-12 -9.33301 -26.5 -20.666 -43.5 -33.999s-35.5 -27.333 -55.5 -42s-40.667 -29.167 -62 -43.5s-42.333 -27.166 -63 -38.499s-40.667 -20.666 -60 -27.999s-36.666 -11.333 -51.999 -12c-21.333 -0.666992 -37 3.83301 -47 13.5
s-15.667 22.334 -17 38.001s0.666992 33.5 6 53.5s12.666 40 21.999 60c-10 -10.667 -20.333 -20.834 -31 -30.501s-21.5 -18.167 -32.5 -25.5s-21.833 -13 -32.5 -17s-20.667 -6 -30 -6c-14 0.666992 -23 6.33398 -27 17.001s-4 24 0 40s11.333 33.167 22 51.5
s24 35.833 40 52.5c4 4 11 4.83301 21 2.5s16.333 -7.16602 19 -14.499c-2 -2 -6 -6.66699 -12 -14s-12.667 -15.833 -20 -25.5s-14.666 -19.834 -21.999 -30.501s-13.166 -20.667 -17.499 -30s-6.5 -17 -6.5 -23s3.66699 -9.33301 11 -10
c14.667 -1.33301 35.834 9.16699 63.501 31.5s58.5 54.5 92.5 96.5l9 11c4.66699 5.33301 10.5 7.5 17.5 6.5s17.167 -4.5 30.5 -10.5z" />
    <glyph glyph-name="v" unicode="v" horiz-adv-x="415" 
d="M30 472c4.66699 4 11.0068 9.33398 19.0068 16.001s16.167 13 24.5 19s16.666 11.167 24.999 15.5s15.166 6.16602 20.499 5.49902c6.66699 -1.33301 12.334 -5.83301 17.001 -13.5s2.66699 -20.167 -6 -37.5c-10 -18.667 -21.167 -40.667 -33.5 -66
s-23.5 -49.333 -33.5 -72s-17.667 -41.667 -23 -57s-5.66602 -22 -0.999023 -20c12 4.66699 27.167 14.834 45.5 30.501s37.666 33.667 57.999 54s40.833 41.666 61.5 63.999s39 42.833 55 61.5c-5.33301 10 -6.83301 20.167 -4.5 30.5s6.66602 19.333 12.999 27
s13.666 13.5 21.999 17.5s15.5 4.33301 21.5 1c10 -4.66699 10.833 -13.834 2.5 -27.501s-20.5 -30.5 -36.5 -50.5c9.33301 -9.33301 21.5 -15.666 36.5 -18.999s30.833 -4.5 47.5 -3.5s32.667 3.83301 48 8.5s27.666 10.334 36.999 17.001l8 -11
c-10.667 -7.33301 -24.334 -13.5 -41.001 -18.5s-34 -8 -52 -9s-35.333 0.5 -52 4.5s-30.334 11 -41.001 21c-19.333 -22.667 -41.166 -46.667 -65.499 -72s-48.166 -48.833 -71.499 -70.5s-44.5 -40 -63.5 -55s-32.5 -22.833 -40.5 -23.5
c-10 -1.33301 -15.833 3.33398 -17.5 14.001s-0.833984 24.5 2.49902 41.5s8.66602 35.833 15.999 56.5s15.166 40.834 23.499 60.501s16.5 37.667 24.5 54s14.333 28.166 19 35.499c-2 0.666992 -5.66699 -0.833008 -11 -4.5s-11 -7.83398 -17 -12.501
s-11.833 -9.33398 -17.5 -14.001s-9.5 -7.66699 -11.5 -9z" />
    <glyph glyph-name="w" unicode="w" horiz-adv-x="545" 
d="M79 475c-2 -2 -6.32715 -6.66992 -12.9941 -14.0029s-14 -16 -22 -26s-16.167 -20.5 -24.5 -31.5s-15 -21.167 -20 -30.5s-7.83301 -17 -8.5 -23s2.66602 -9 9.99902 -9c9.33301 0 21.666 5.33301 36.999 16s31.5 23.167 48.5 37.5s33.833 29.166 50.5 44.499
s30.667 28 42 38c6.66699 5.33301 14.5 8 23.5 8s16.5 -5.33301 22.5 -16c-1.33301 -2 -6.66602 -8.5 -15.999 -19.5s-20 -24.5 -32 -40.5s-24 -33.167 -36 -51.5s-21.667 -35.166 -29 -50.499s-11 -28 -11 -38s6.33301 -15 19 -15c16 0 35.667 8 59 24
s47.666 35.167 72.999 57.5s49.666 46 72.999 71s43 46.5 59 64.5c-5.33301 10 -6.83301 20.167 -4.5 30.5s6.66602 19.5 12.999 27.5s13.666 13.833 21.999 17.5s15.5 4.16699 21.5 1.5c10 -5.33301 10.833 -14.833 2.5 -28.5s-20.5 -30.5 -36.5 -50.5
c9.33301 -9.33301 21.833 -15.5 37.5 -18.5s32 -4 49 -3s33.333 3.83301 49 8.5s28.167 10.334 37.5 17.001l8 -11c-10.667 -7.33301 -24.5 -13.666 -41.5 -18.999s-34.833 -8.5 -53.5 -9.5s-36.5 0.5 -53.5 4.5s-30.833 11 -41.5 21
c-18.667 -22 -40.334 -45.833 -65.001 -71.5s-50 -49.667 -76 -72s-51.167 -40.833 -75.5 -55.5s-45.166 -21.667 -62.499 -21c-14 0.666992 -23.667 4.83398 -29 12.501s-8 17.334 -8 29.001s2.33301 24.667 7 39s10.5 28.333 17.5 42s14.5 26.334 22.5 38.001
s15.333 20.5 22 26.5c-9.33301 -7.33301 -20.666 -16.666 -33.999 -27.999s-27 -22.333 -41 -33s-27.833 -19.834 -41.5 -27.501s-25.834 -11.5 -36.501 -11.5c-15.333 0 -24.5 5.5 -27.5 16.5s-1.5 24.667 4.5 41s15.167 33.666 27.5 51.999s26.166 35.166 41.499 50.499
c4 4 11 5 21 3s16.333 -6.66699 19 -14z" />
    <glyph glyph-name="x" unicode="x" horiz-adv-x="404" 
d="M77 527c-0.666992 -17.333 -1.6709 -34.165 -3.00391 -50.498s-2.66602 -32.166 -3.99902 -47.499c46.667 42 88.334 73.333 125.001 94s68.334 26.334 95.001 17.001c1.33301 -0.666992 2 -1.5 2 -2.5s-1 -4.83301 -3 -11.5c-24 9.33301 -54.833 3.16602 -92.5 -18.501
s-80.5 -54.5 -128.5 -98.5c-3.33301 -36.667 -1.83301 -67 4.5 -91s18.5 -36.667 36.5 -38c14 -0.666992 30.5 2.66602 49.5 9.99902s39 17 60 29s42.333 25.333 64 40s42.334 29.334 62.001 44.001s37.334 28.167 53.001 40.5s28.167 22.166 37.5 29.499l8 -11
c-17.333 -13.333 -40.166 -31 -68.499 -53s-58.5 -43.833 -90.5 -65.5s-63.833 -40.334 -95.5 -56.001s-58.834 -23.5 -81.501 -23.5c-20 0 -36.5 8.16699 -49.5 24.5s-21.833 45.5 -26.5 87.5c-22.667 -20 -42.667 -38.5 -60 -55.5s-33 -31.5 -47 -43.5
s-26.667 -20.667 -38 -26s-22 -6.66602 -32 -3.99902c-1.33301 0.666992 -2.16602 1.5 -2.49902 2.5s0.166992 4.83301 1.5 11.5c9.33301 -4 19.333 -3.33301 30 2s23 14.166 37 26.499s30 27.333 48 45s38.667 37.167 62 58.5c-2.66699 32 -2.66699 71.333 0 118
c1.33301 7.33301 5.66602 12.666 12.999 15.999s18.666 3.33301 33.999 0z" />
    <glyph glyph-name="y" unicode="y" horiz-adv-x="491" 
d="M204 290c60 20.667 115.162 46.001 165.495 76.001s101.166 65.667 152.499 107l9 -11c-22.667 -18 -48 -36.667 -76 -56s-57 -37.666 -87 -54.999s-59.5 -32.666 -88.5 -45.999s-55.833 -23 -80.5 -29c-24.667 -60.667 -53.334 -117.167 -86.001 -169.5
s-67.5 -97.333 -104.5 -135s-75.333 -66.834 -115 -87.501s-78.5 -29.667 -116.5 -27c-35.333 2.66699 -60.833 13.334 -76.5 32.001s-22.167 41.667 -19.5 69s14.834 57.333 36.501 90s52.334 64.5 92.001 95.5s88.667 59.333 147 85s125.5 45.167 201.5 58.5
c13.333 36 25.333 70.333 36 103s20 62.334 28 89.001c-14.667 -18.667 -29.667 -38.167 -45 -58.5s-31.166 -39 -47.499 -56s-33 -30.833 -50 -41.5s-34.5 -15.667 -52.5 -15c-11.333 0.666992 -20.166 5.66699 -26.499 15s-9.66602 22.166 -9.99902 38.499s3 35.5 10 57.5
s18.5 45.667 34.5 71c3.33301 4.66699 9.83301 6.83398 19.5 6.50098s18.834 -2.83301 27.501 -7.5c-2 -2 -5.66699 -7.5 -11 -16.5s-11 -19.5 -17 -31.5s-11.833 -24.833 -17.5 -38.5s-10 -26.334 -13 -38.001s-4 -21.334 -3 -29.001s5.16699 -11.5 12.5 -11.5
c12 0 25.167 4.33301 39.5 13s28.5 20 42.5 34s27.667 29.333 41 46s25.5 32.667 36.5 48s20.333 29 28 41s12.834 20.333 15.501 25c6 2 12.5 3.66699 19.5 5s13 1.66602 18 0.999023s8.83301 -2.83398 11.5 -6.50098s2.66699 -9.16699 0 -16.5
c-25.333 -79.333 -52.333 -154 -81 -224zM151.995 272.001c-74.667 -14 -139.669 -33.5 -195.002 -58.5s-101.666 -52 -138.999 -81s-66 -58.667 -86 -89s-31.333 -58 -34 -83s2.66602 -45.333 15.999 -61s34.333 -23.834 63 -24.501
c34.667 0.666992 70.334 12.834 107.001 36.501s71.834 54.5 105.501 92.5s64.667 80.5 93 127.5s51.5 93.833 69.5 140.5z" />
    <glyph glyph-name="z" unicode="z" horiz-adv-x="504" 
d="M25 468c8 6.66699 17.998 14.668 29.998 24.001s24.833 18 38.5 26s27.834 14.5 42.501 19.5s28.667 7.16699 42 6.5c22 -2 39.333 -8.66699 52 -20s21 -25.333 25 -42s3.66699 -34.667 -1 -54s-13.167 -38 -25.5 -56s-28.333 -34 -48 -48s-42.834 -24 -69.501 -30
c24.667 -6.66699 42 -17.667 52 -33c30 12.667 59.833 25.667 89.5 39s59.834 28.333 90.501 45s61.834 35.334 93.501 56.001s64.5 44.667 98.5 72l8 -11c-34 -27.333 -67 -51.333 -99 -72s-63.333 -39.334 -94 -56.001s-61 -31.834 -91 -45.501s-60 -26.834 -90 -39.501
c6.66699 -15.333 7.5 -34.5 2.5 -57.5s-14 -47.667 -27 -74s-29.333 -52.833 -49 -79.5s-40.834 -51.667 -63.501 -75s-46.167 -43.666 -70.5 -60.999s-47.5 -29.333 -69.5 -36c-38.667 -12 -69.5 -12 -92.5 0s-36 31 -39 57s5.33301 56.333 25 91s52.834 68.667 99.501 102
c14.667 10.667 32.667 22.167 54 34.5s43.5 24.666 66.5 36.999s45.333 23.833 67 34.5s40.5 19.334 56.5 26.001c-4.66699 10 -11.334 18 -20.001 24s-22 9.33301 -40 10c0 2.66699 -0.166992 5 -0.5 7s-0.5 4.33301 -0.5 7c25.333 4.66699 47.333 13.667 66 27
s34 28.666 46 45.999s20.667 35.333 26 54s7.83301 35.834 7.5 51.501s-3.66602 28.667 -9.99902 39s-15.166 15.833 -26.499 16.5c-12 0.666992 -24.667 -1.5 -38 -6.5s-26.5 -11.333 -39.5 -19s-25.333 -16 -37 -25s-21.834 -16.833 -30.501 -23.5
c-2.66699 5.33301 -5 9.33301 -7 12zM-113.002 -110.999c18.667 7.33301 38.168 19.1689 58.501 35.502s40 35.166 59 56.499s36.833 44 53.5 68s31 47.5 43 70.5s21 44.667 27 65s7.66699 37.166 5 50.499c-16 -6.66699 -34.333 -15 -55 -25s-42 -20.833 -64 -32.5
s-43.167 -23.667 -63.5 -36s-37.833 -23.5 -52.5 -33.5c-43.333 -30 -74.833 -61 -94.5 -93s-29.167 -59.667 -28.5 -83s10.667 -39.833 30 -49.5s46.666 -7.5 81.999 6.5z" />
    <glyph glyph-name="braceleft" unicode="{" horiz-adv-x="303" 
d="M343 770c-12.667 0 -24.501 -6.50195 -35.501 -19.502s-21.667 -29.667 -32 -50s-20.166 -42.666 -29.499 -66.999s-18.666 -47.666 -27.999 -69.999s-18.5 -42 -27.5 -59s-18.5 -28.5 -28.5 -34.5c6 -15.333 7.33301 -35.833 4 -61.5s-7.83301 -53.167 -13.5 -82.5
s-11 -58.666 -16 -87.999s-6.16699 -54.666 -3.5 -75.999c2 -15.333 6.33301 -27.5 13 -36.5s15 -15 25 -18s20.667 -3.33301 32 -1s22.666 6.83301 33.999 13.5c2 -2 3.83301 -5 5.5 -9s-1.5 -7.66699 -9.5 -11c-12.667 -6 -26.334 -9.66699 -41.001 -11
s-28.5 0.166992 -41.5 4.5s-24.167 11.666 -33.5 21.999s-15.333 23.5 -18 39.5c-4 20.667 -3.33301 44.5 2 71.5s11.666 54.333 18.999 82s14 54.667 20 81s8 49.166 6 68.499c-13.333 -7.33301 -23.666 -7.5 -30.999 -0.5s-11.833 16 -13.5 27s-0.5 21.333 3.5 31
s10.333 13.834 19 12.501c7.33301 -1.33301 14 -6.33301 20 -15s10.333 -16.334 13 -23.001c8.66699 11.333 16.334 26.333 23.001 45s13 38.667 19 60s12.5 43 19.5 65s15.5 42 25.5 60s22 33.167 36 45.5s31 19.5 51 21.5c8 0.666992 12 -1.5 12 -6.5v-10.5z" />
    <glyph glyph-name="bar" unicode="|" horiz-adv-x="318" 
d="M224 817c-11.333 -67.333 -23.166 -142.333 -35.499 -225s-24.5 -166.667 -36.5 -252s-24 -169.333 -36 -252s-23 -157.667 -33 -225l-34 3c10 67.333 21 142.333 33 225s24 166.834 36 252.501s24.167 169.667 36.5 252s24.166 157.166 35.499 224.499z" />
    <glyph glyph-name="braceright" unicode="}" horiz-adv-x="328" 
d="M-15 93c12.667 -0.666992 24.502 5.66895 35.502 19.002s21.667 30.166 32 50.499s20.166 42.666 29.499 66.999s18.666 47.666 27.999 69.999s18.5 42 27.5 59s18.5 28.5 28.5 34.5c-4 10 -5.83301 22.5 -5.5 37.5s2 31.5 5 49.5s6.5 37 10.5 57s7.66699 39.667 11 59
s5.83301 38 7.5 56s1.83398 34.333 0.500977 49c-2 15.333 -6.33301 27.5 -13 36.5s-15 15 -25 18s-20.833 3.33301 -32.5 1s-22.834 -6.83301 -33.501 -13.5c-2 2 -3.83301 5 -5.5 9s1.5 7.66699 9.5 11c12.667 6 26.167 9.66699 40.5 11s28 -0.166992 41 -4.5
s24.333 -11.666 34 -21.999s15.834 -23.5 18.501 -39.5c4 -21.333 3.33301 -45.333 -2 -72s-11.666 -53.834 -18.999 -81.501s-14 -54.667 -20 -81s-8 -49.166 -6 -68.499c13.333 6.66699 23.666 6.66699 30.999 0s11.833 -15.5 13.5 -26.5s0.5 -21.333 -3.5 -31
s-10.333 -13.834 -19 -12.501c-7.33301 1.33301 -14 6.33301 -20 15s-10.333 16.334 -13 23.001c-8.66699 -11.333 -16.334 -26.333 -23.001 -45s-13 -38.667 -19 -60s-12.5 -43 -19.5 -65s-15.5 -42 -25.5 -60s-22 -33.167 -36 -45.5s-31 -19.5 -51 -21.5
c-8 -0.666992 -12 1.5 -12 6.5v10.5z" />
    <glyph glyph-name="asciitilde" unicode="~" horiz-adv-x="652" 
d="M306 342c-17.333 16 -36.834 28.3369 -58.501 37.0039s-44.334 12.167 -68.001 10.5s-47.334 -9.66699 -71.001 -24s-45.5 -36.833 -65.5 -67.5c-1.33301 -2 -4.66602 -3.16699 -9.99902 -3.5s-7 2.16699 -5 7.5c16.667 32.667 37.5 58.5 62.5 77.5s51.333 31.333 79 37
s55.334 4.5 83.001 -3.5s53.167 -22 76.5 -42c16.667 -14 33.834 -24.833 51.501 -32.5s35.5 -10.334 53.5 -8.00098s36.167 10.166 54.5 23.499s36.5 33.666 54.5 60.999c4 1.33301 7 0.5 9 -2.5s1.66699 -6.83301 -1 -11.5c-20 -31.333 -41 -54.833 -63 -70.5
s-43.667 -25.167 -65 -28.5s-42 -1.33301 -62 6s-38.333 18.666 -55 33.999z" />
    <glyph glyph-name="caron" unicode="&#x2c7;" horiz-adv-x="235" 
d="M197 690c-16 -8.66699 -31.166 -21.334 -45.499 -38.001s-26.166 -31.667 -35.499 -45c-5.33301 -3.33301 -9.83301 -4.5 -13.5 -3.5s-6.16699 2.16699 -7.5 3.5c-2.66699 6.66699 -5.33398 14 -8.00098 22s-6 15.833 -10 23.5s-8.66699 14.834 -14 21.501s-12 12 -20 16
c10 2.66699 19 2.33398 27 -0.999023s14.833 -8 20.5 -14s10.167 -12.333 13.5 -19s6 -11.334 8 -14.001c6 6.66699 12.833 13.5 20.5 20.5s15.167 13.167 22.5 18.5s14.666 9 21.999 11s14 1.33301 20 -2z" />
    <glyph glyph-name="hungarumlaut" unicode="&#x2dd;" horiz-adv-x="246" 
d="M39 629c11.333 6 19.6689 14.667 25.002 26s10.666 23.333 15.999 36l38 -2c-4 -9.33301 -9 -18.333 -15 -27s-12.667 -16 -20 -22s-14.833 -10.167 -22.5 -12.5s-14.834 -1.83301 -21.501 1.5zM115.003 629c11.333 6 19.6689 14.667 25.002 26s10.666 23.333 15.999 36
l38 -2c-4 -9.33301 -9 -18.333 -15 -27s-12.667 -16 -20 -22s-14.833 -10.167 -22.5 -12.5s-14.834 -1.83301 -21.501 1.5z" />
    <glyph glyph-name="Euro" unicode="&#x20ac;" horiz-adv-x="453" 
d="M83 353l50.002 0.00390625c2.66699 8.66699 5.5 17 8.5 25s6.16699 16.333 9.5 25h-68c-4 0 -6.33301 1.66699 -7 5s-0.166992 7.16602 1.5 11.499s4 8.16602 7 11.499s5.83301 5 8.5 5h74c12 23.333 25.333 45.166 40 65.499s30 37.666 46 51.999s32.833 25 50.5 32
s35.5 9.16699 53.5 6.5c17.333 -3.33301 29.833 -14 37.5 -32s9.5 -41 5.5 -69c-0.666992 -4.66699 -3.66699 -9.66699 -9 -15s-13 -6.33301 -23 -3c3.33301 8 6.33301 17.833 9 29.5s4 22.667 4 33s-1.83301 19.5 -5.5 27.5s-10.5 12.667 -20.5 14
c-12 1.33301 -24.333 -1.33398 -37 -8.00098s-25.334 -16.5 -38.001 -29.5s-24.834 -28.333 -36.501 -46s-22.5 -36.834 -32.5 -57.501h54c3.33301 0 5.5 -1.66699 6.5 -5s1 -7.16602 0 -11.499s-3 -8.16602 -6 -11.499s-6.5 -5 -10.5 -5h-59
c-3.33301 -8.66699 -6.66602 -17 -9.99902 -25s-6.66602 -16.333 -9.99902 -25h79c3.33301 0 5.5 -1.66699 6.5 -5s1 -7.16602 0 -11.499s-3 -8.16602 -6 -11.499s-6.5 -5 -10.5 -5h-80c-8 -26.667 -13.833 -52.334 -17.5 -77.001s-4.83398 -46.167 -3.50098 -64.5
s5.5 -32.5 12.5 -42.5s17.833 -14 32.5 -12c10 1.33301 19.167 5.66602 27.5 12.999s16.166 16.166 23.499 26.499s13.833 21.833 19.5 34.5s10.5 25.334 14.5 38.001c6 1.33301 10.667 0.5 14 -2.5s5.66602 -7 6.99902 -12s1.83301 -10 1.5 -15
s-1.16602 -8.5 -2.49902 -10.5c-16 -28 -33.333 -49.167 -52 -63.5s-37 -22.5 -55 -24.5c-21.333 -2 -38.166 2.5 -50.499 13.5s-20.833 26.333 -25.5 46s-5.83398 42.834 -3.50098 69.501s7.5 54.334 15.5 83.001h-50c-4 0 -6.33301 1.66699 -7 5
s-0.166992 7.16602 1.5 11.499s4 8.16602 7 11.499s5.83301 5 8.5 5z" />
    </font>
</defs>
</svg>
